<svg xmlns="http://www.w3.org/2000/svg" viewBox="0 0 15.599 8.996">
  <defs>
    <style>
      .cls-1 {
        fill: #b7b7b7;
      }
    </style>
  </defs>
  <g id="visible-opened-eye-interface-option" transform="translate(0 -20.843)">
    <path id="Path_420" data-name="Path 420" class="cls-1" d="M15.4,24.794c-.137-.162-3.411-3.951-7.6-3.951S.34,24.633.2,24.794a.841.841,0,0,0,0,1.094c.137.162,3.411,3.951,7.6,3.951s7.46-3.79,7.6-3.951A.84.84,0,0,0,15.4,24.794ZM9.079,23.12a.795.795,0,0,1,.734,1.344.795.795,0,0,1-.734-1.344ZM7.8,28.466c-2.924,0-5.385-2.246-6.237-3.125A11.7,11.7,0,0,1,5.138,22.8a3.185,3.185,0,1,0,5.324,0,11.706,11.706,0,0,1,3.574,2.538C13.185,26.221,10.724,28.466,7.8,28.466Z" transform="translate(0)"/>
  </g>
</svg>
