<svg xmlns="http://www.w3.org/2000/svg" viewBox="0 0 16 15.36">
  <defs>
    <style>
      .cls-1 {
        fill: #b7b7b7;
      }
    </style>
  </defs>
  <g id="icon-like" transform="translate(0 -9.136)">
    <g id="Group_300" data-name="Group 300" transform="translate(0 9.136)">
      <path id="Path_421" data-name="Path 421" class="cls-1" d="M147.689,17.666a2.192,2.192,0,0,0,.55-1.49,1.946,1.946,0,0,0-1.919-1.92h-2.77a2.523,2.523,0,0,1,.08-.24,1.672,1.672,0,0,1,.11-.22q.07-.12.1-.18.18-.34.275-.56a4.086,4.086,0,0,0,.19-.6,3.117,3.117,0,0,0,.095-.76c0-.16,0-.29-.005-.39a4.3,4.3,0,0,0-.05-.45,2.525,2.525,0,0,0-.12-.5,2.33,2.33,0,0,0-.24-.45,1.4,1.4,0,0,0-.4-.405,2.191,2.191,0,0,0-.6-.26,2.987,2.987,0,0,0-.825-.105.615.615,0,0,0-.45.19,1.736,1.736,0,0,0-.34.5,2.974,2.974,0,0,0-.2.52q-.055.22-.125.61-.09.42-.135.6a3.2,3.2,0,0,1-.175.485,1.532,1.532,0,0,1-.31.48,14.788,14.788,0,0,0-1.01,1.2q-.49.64-1.01,1.21t-.76.59a.656.656,0,0,0-.43.205.6.6,0,0,0-.18.435v6.41a.6.6,0,0,0,.19.445.661.661,0,0,0,.45.2,7.312,7.312,0,0,1,1.58.44q.77.26,1.2.395t1.215.29a7.43,7.43,0,0,0,1.44.155h1.29a2.485,2.485,0,0,0,1.97-.78,2.4,2.4,0,0,0,.49-1.81,1.945,1.945,0,0,0,.54-.94,2.057,2.057,0,0,0,0-1.17,2.075,2.075,0,0,0,.43-1.37A2.384,2.384,0,0,0,147.689,17.666Z" transform="translate(-132.239 -9.136)"/>
      <path id="Path_422" data-name="Path 422" class="cls-1" d="M3.52,191.864H.64a.615.615,0,0,0-.45.19.615.615,0,0,0-.19.45v6.4a.616.616,0,0,0,.19.45.616.616,0,0,0,.45.19H3.52a.649.649,0,0,0,.64-.64v-6.4a.649.649,0,0,0-.64-.64Zm-1.15,6.215a.623.623,0,0,1-.45.185.64.64,0,0,1-.455-1.09.633.633,0,0,1,.9,0,.634.634,0,0,1,0,.9Z" transform="translate(0 -185.464)"/>
    </g>
  </g>
</svg>
