<svg xmlns="http://www.w3.org/2000/svg" viewBox="0 0 23.222 23.222">
  <defs>
    <style>
      .cls-1 {
        fill: #00a231;
      }
    </style>
  </defs>
  <g id="icon-smile" transform="translate(0 0)">
    <path id="Path_465" data-name="Path 465" class="cls-1" d="M19.825,3.4a11.616,11.616,0,1,0,0,16.427A11.629,11.629,0,0,0,19.825,3.4Zm-1.268,15.16a9.824,9.824,0,1,1,0-13.894A9.836,9.836,0,0,1,18.558,18.558ZM7.278,8.467A1.358,1.358,0,1,1,8.636,9.825,1.358,1.358,0,0,1,7.278,8.467Zm6.156,0a1.358,1.358,0,1,1,1.358,1.358A1.358,1.358,0,0,1,13.434,8.467Zm3.21,5.561a5.421,5.421,0,0,1-5.02,3.2,5.383,5.383,0,0,1-5.05-3.219.657.657,0,1,1,1.213-.5,4.075,4.075,0,0,0,3.837,2.409,4.108,4.108,0,0,0,3.814-2.411.657.657,0,1,1,1.206.521Z" transform="translate(0 0)"/>
  </g>
</svg>
