<svg xmlns="http://www.w3.org/2000/svg" viewBox="0 0 14.198 15.489">
  <defs>
    <style>
      .cls-1 {
        fill: #fff;
      }
    </style>
  </defs>
  <g id="icon-calendar-white" transform="translate(0 0)">
    <g id="Group_12" data-name="Group 12" transform="translate(0)">
      <g id="Group_11" data-name="Group 11" transform="translate(0)">
        <path id="Path_57" data-name="Path 57" class="cls-1" d="M32.649.516h-.774V.258a.258.258,0,0,0-.516,0V.516h-.516V.258a.258.258,0,0,0-.516,0V.516H29.81V.258a.258.258,0,0,0-.516,0V.516h-.516V.258a.258.258,0,0,0-.516,0V.516H24.647V.258a.258.258,0,0,0-.516,0V.516h-.516V.258a.258.258,0,0,0-.516,0V.516h-.516V.258a.258.258,0,0,0-.516,0V.516h-.516V.258a.258.258,0,0,0-.516,0V.516h-.774A.258.258,0,0,0,20,.774V12.907a.258.258,0,0,0,.258.258h7.5a.258.258,0,0,0,.259-.257c0-.006,0-.012,0-.019l0-.03c-.006-.07-.011-.139-.011-.21a3.341,3.341,0,0,1,.09-.759,3.3,3.3,0,0,1,.256-.715c.011-.023.021-.046.033-.068.034-.066.072-.129.11-.192.012-.02.024-.04.037-.06q.063-.1.132-.192l.029-.039q.077-.1.161-.2l.008-.009a3.4,3.4,0,0,1,1.35-.919l.045-.017c.07-.025.14-.046.212-.066l.1-.026c.06-.015.121-.029.183-.041s.105-.017.158-.024.093-.014.14-.019c.1-.01.208-.016.314-.016.07,0,.139.005.207.01l.032,0H31.6a3.372,3.372,0,0,1,.952.213.258.258,0,0,0,.352-.24V.774A.258.258,0,0,0,32.649.516ZM28.016,10.7c-.009.015-.019.029-.027.043-.037.065-.071.133-.1.2-.018.037-.037.074-.054.112-.028.062-.054.126-.079.19l-.008.019v-1.2h.736A3.9,3.9,0,0,0,28.016,10.7Zm1.277-1.324c-.089.056-.175.116-.258.179V9.551H27.744V8h1.549Zm0-1.893H27.744V5.937h1.549Zm0-2.065H27.744V3.872h1.549Zm2.065.516V7.486H29.81V5.937ZM29.81,5.421V3.872h1.549V5.421Zm1.549,3.356c-.121,0-.24.007-.358.018-.052,0-.1.013-.15.019s-.126.017-.188.029-.131.026-.2.042l-.118.03c-.077.021-.155.044-.232.07L30.087,9c-.094.033-.187.067-.277.107V8h1.549v.774Zm1.032.142a3.836,3.836,0,0,0-.516-.107v-5.2a.258.258,0,0,0-.258-.258H21.291a.258.258,0,0,0-.258.258v8.261a.258.258,0,0,0,.258.258h6.234a3.872,3.872,0,0,0-.038.516h-6.97V2.84H32.391Zm-6.712.632V8h1.549V9.551Zm1.549.516v1.549H25.679V10.068ZM25.679,7.486V5.937h1.549V7.486Zm0-2.065V3.872h1.549V5.421Zm-2.065,4.13V8h1.549V9.551Zm1.549.516v1.549H23.614V10.068ZM23.614,7.486V5.937h1.549V7.486Zm0-2.065V3.872h1.549V5.421Zm-2.065,4.13V8H23.1V9.551Zm1.549.516v1.549H21.549V10.068ZM21.549,7.486V5.937H23.1V7.486Zm0-2.065V3.872H23.1V5.421Zm10.842-3.1H20.516V1.033h.516v.258a.258.258,0,0,0,.516,0V1.033h.516v.258a.258.258,0,0,0,.516,0V1.033H23.1v.258a.258.258,0,0,0,.516,0V1.033h.516v.258a.258.258,0,0,0,.516,0V1.033h3.614v.258a.258.258,0,0,0,.516,0V1.033h.516v.258a.258.258,0,0,0,.516,0V1.033h.516v.258a.258.258,0,0,0,.516,0V1.033h.516v.258a.258.258,0,0,0,.516,0V1.033h.516Z" transform="translate(-20)"/>
      </g>
    </g>
    <g id="Group_14" data-name="Group 14" transform="translate(8.519 9.81)">
      <g id="Group_13" data-name="Group 13">
        <path id="Path_58" data-name="Path 58" class="cls-1" d="M286.84,304a2.84,2.84,0,1,0,2.84,2.84A2.84,2.84,0,0,0,286.84,304Zm0,5.163a2.323,2.323,0,1,1,2.323-2.323A2.323,2.323,0,0,1,286.84,309.163Z" transform="translate(-284 -304)"/>
      </g>
    </g>
    <g id="Group_16" data-name="Group 16" transform="translate(10.329 11.103)">
      <g id="Group_15" data-name="Group 15">
        <path id="Path_59" data-name="Path 59" class="cls-1" d="M342.594,344.17a.258.258,0,0,0-.359,0l-1.108,1.108-.592-.592a.258.258,0,0,0-.365.365l.774.774a.258.258,0,0,0,.365,0l1.291-1.291A.258.258,0,0,0,342.594,344.17Z" transform="translate(-340.098 -344.098)"/>
      </g>
    </g>
  </g>
</svg>
