<svg id="icon-video-camera" xmlns="http://www.w3.org/2000/svg" viewBox="0 0 27.06 25.046">
  <defs>
    <style>
      .cls-1 {
        fill: #00a231;
      }
    </style>
  </defs>
  <g id="Group_121" data-name="Group 121" transform="translate(0 0)">
    <g id="Group_120" data-name="Group 120" transform="translate(0 0)">
      <path id="Path_147" data-name="Path 147" class="cls-1" d="M19.68,200.513c0,.539-.587.976-1.312.976H1.312c-.725,0-1.312-.437-1.312-.976V187.819c0-.539.587-.976,1.312-.976H18.368c.725,0,1.312.437,1.312.976v12.693Z" transform="translate(0 -177.735)"/>
      <ellipse id="Ellipse_12" data-name="Ellipse 12" class="cls-1" cx="3.28" cy="3.446" rx="3.28" ry="3.446" transform="translate(1.64 1.723)"/>
      <ellipse id="Ellipse_13" data-name="Ellipse 13" class="cls-1" cx="4.1" cy="4.308" rx="4.1" ry="4.308" transform="translate(9.84)"/>
      <path id="Path_148" data-name="Path 148" class="cls-1" d="M379.179,180.853s-.109.861-.875.861-5.685-4.822-5.685-5.456V169.94c0-.634,4.811-5.456,5.685-5.456a.848.848,0,0,1,.875.862Z" transform="translate(-352.119 -156.669)"/>
    </g>
  </g>
</svg>
