<svg id="icon-hot" xmlns="http://www.w3.org/2000/svg" xmlns:xlink="http://www.w3.org/1999/xlink" viewBox="0 0 20.829 20.829">
  <defs>
    <style>
      .cls-1 {
        fill: url(#linear-gradient);
      }
    </style>
    <linearGradient id="linear-gradient" x1="0.5" x2="0.5" y2="1" gradientUnits="objectBoundingBox">
      <stop offset="0" stop-color="#f60"/>
      <stop offset="1" stop-color="red"/>
    </linearGradient>
  </defs>
  <path id="Path_634" data-name="Path 634" class="cls-1" d="M10.414,0A10.414,10.414,0,1,0,20.829,10.414,10.414,10.414,0,0,0,10.414,0Zm0,19.2A8.787,8.787,0,1,1,19.2,10.414,8.787,8.787,0,0,1,10.414,19.2Z"/>
  <path id="Path_635" data-name="Path 635" class="cls-1" d="M132.181,128s3.884,2.6,3.428,6.183c0,0,1.3-.325.953-2.479,0,0,1.881,1.815,1.849,3.455-.026,1.333-1.694,3.254-4.831,3.254,0,0,2.829-2.53-.909-5.731,0,0-3.457,3.411-1.176,5.731,0,0-4.6-1.17-3.251-4.1S132.547,131.124,132.181,128Z" transform="translate(-122.791 -122.793)"/>
</svg>
