<svg id="icon-fire-green" xmlns="http://www.w3.org/2000/svg" viewBox="0 0 20 20">
  <defs>
    <style>
      .cls-1 {
        fill: #00a231;
      }
    </style>
  </defs>
  <path id="Path_634" data-name="Path 634" class="cls-1" d="M10,0A10,10,0,1,0,20,10,10,10,0,0,0,10,0Zm0,18.438A8.438,8.438,0,1,1,18.438,10,8.437,8.437,0,0,1,10,18.438Z"/>
  <path id="Path_635" data-name="Path 635" class="cls-1" d="M132.015,128s3.73,2.5,3.292,5.938c0,0,1.252-.312.916-2.38,0,0,1.806,1.743,1.775,3.318-.025,1.28-1.627,3.125-4.639,3.125,0,0,2.716-2.429-.873-5.5,0,0-3.32,3.275-1.129,5.5,0,0-4.417-1.124-3.121-3.937S132.366,131,132.015,128Z" transform="translate(-122.998 -123)"/>
</svg>
