<svg xmlns="http://www.w3.org/2000/svg" viewBox="0 0 17.427 18.313">
  <defs>
    <style>
      .cls-1 {
        fill: #00a231;
      }
    </style>
  </defs>
  <g id="messenger" transform="translate(0 0)">
    <g id="Group_293" data-name="Group 293" transform="translate(0 0)">
      <g id="Group_292" data-name="Group 292" transform="translate(0 0)">
        <path id="Path_416" data-name="Path 416" class="cls-1" d="M392.549,63.726l.895-.741a8.712,8.712,0,0,0-.86-.9l-.78.863A7.616,7.616,0,0,1,392.549,63.726Z" transform="translate(-378.021 -59.833)"/>
        <path id="Path_417" data-name="Path 417" class="cls-1" d="M430.109,116.306l1.067-.46a8.848,8.848,0,0,0-.573-1.1l-.991.606A7.59,7.59,0,0,1,430.109,116.306Z" transform="translate(-414.457 -110.577)"/>
        <path id="Path_418" data-name="Path 418" class="cls-1" d="M29.33,6.446l-1.122.3a7.56,7.56,0,0,1-7.294,9.52,7.479,7.479,0,0,1-3.274-.755l-.216-.1-3.3,1.137.711-3.347-.142-.206A7.552,7.552,0,0,1,25.136,2.452l.65-.963A8.714,8.714,0,0,0,13.595,13.441l-1.034,4.872,4.8-1.651a8.611,8.611,0,0,0,3.558.767A8.721,8.721,0,0,0,29.33,6.446Z" transform="translate(-12.202 0)"/>
        <path id="Path_419" data-name="Path 419" class="cls-1" d="M126.935,183.366l-2.614-2.614-3.461,3.461.821.821,2.639-2.639,2.614,2.614,3.461-3.461-.821-.821Z" transform="translate(-116.915 -174.165)"/>
      </g>
    </g>
  </g>
</svg>
