<svg id="icon-phone" xmlns="http://www.w3.org/2000/svg" viewBox="0 0 18.5 18.5">
  <defs>
    <style>
      .cls-1 {
        fill: #00a231;
      }
    </style>
  </defs>
  <path id="Path_263" data-name="Path 263" class="cls-1" d="M9.25,1.156A8.094,8.094,0,1,1,1.156,9.25,8.1,8.1,0,0,1,9.25,1.156M9.25,0A9.25,9.25,0,1,0,18.5,9.25,9.25,9.25,0,0,0,9.25,0Zm5.157,12.343-.052-.158a1.465,1.465,0,0,0-.894-.845l-1.367-.374a1.34,1.34,0,0,0-1.171.307l-.495.495A5.253,5.253,0,0,1,6.734,8.073l.495-.495a1.341,1.341,0,0,0,.306-1.171L7.162,5.041a1.464,1.464,0,0,0-.846-.894l-.156-.052A1.237,1.237,0,0,0,5,4.368l-.741.741a1.379,1.379,0,0,0-.217.508,8.736,8.736,0,0,0,8.815,8.836,1.364,1.364,0,0,0,.532-.215l.741-.741A1.239,1.239,0,0,0,14.407,12.343Z"/>
</svg>
