<svg xmlns="http://www.w3.org/2000/svg" viewBox="0 0 30.606 21.328">
  <g id="icon-pen" transform="translate(0 -36.09)">
    <path id="Path_389" data-name="Path 389" d="M91.726,42.461l2.313,1.977,2.485,6.156a.9.9,0,0,0,.563.521L109.1,54.908a.9.9,0,0,0,1.129-1.129L106.433,41.77a.9.9,0,0,0-.522-.564l-6.136-2.469-1.993-2.332a.9.9,0,0,0-1.32-.052l-4.787,4.787a.9.9,0,0,0,.052,1.32ZM107.4,50.811l-6.047-6.047a.9.9,0,1,0-1.273,1.272l6.047,6.047-8.094-2.556-2.175-5.39,3.591-3.591,5.4,2.171,2.556,8.093Zm-10.355-12.5.963,1.127-3.247,3.247-1.127-.963,3.411-3.411Z" transform="translate(-79.66)"/>
    <path id="Path_390" data-name="Path 390" d="M29.707,188.008H.9a.9.9,0,0,0,0,1.8H29.707a.9.9,0,0,0,0-1.8Z" transform="translate(0 -132.389)"/>
  </g>
</svg>
