<svg xmlns="http://www.w3.org/2000/svg" viewBox="0 0 13.182 13.182">
  <defs>
    <style>
      .cls-1 {
        fill: #fff;
      }
    </style>
  </defs>
  <g id="icon-stopwatch-white" transform="translate(0)">
    <path id="Path_60" data-name="Path 60" class="cls-1" d="M12.957,8.3s0,0,0,0a6.58,6.58,0,0,0,0-3.408,0,0,0,0,1,0,0v0A6.55,6.55,0,0,0,12.3,3.31s0-.01-.005-.015-.007-.007-.01-.012a6.627,6.627,0,0,0-1.028-1.339s-.005-.01-.009-.014-.01-.006-.014-.009A6.627,6.627,0,0,0,9.9.893S9.891.886,9.886.883A.126.126,0,0,0,9.871.878,6.558,6.558,0,0,0,8.3.226h0a6.573,6.573,0,0,0-3.408,0h0A6.548,6.548,0,0,0,3.311.878C3.306.88,3.3.88,3.3.883s-.007.007-.012.01A6.627,6.627,0,0,0,1.945,1.921s-.01.005-.014.009-.006.01-.009.014A6.635,6.635,0,0,0,.894,3.284s-.008.007-.01.012,0,.01-.005.015A6.55,6.55,0,0,0,.226,4.883v0a.01.01,0,0,1,0,0,6.576,6.576,0,0,0,0,3.408s0,0,0,0v0A6.559,6.559,0,0,0,.878,9.871a.133.133,0,0,0,.005.015A.194.194,0,0,0,.9,9.9a6.626,6.626,0,0,0,1.024,1.332s.005.01.009.014.01.006.014.009a6.628,6.628,0,0,0,1.338,1.027s.007.008.013.011a.182.182,0,0,0,.024.01,6.555,6.555,0,0,0,1.564.647h.005a6.57,6.57,0,0,0,3.405,0H8.3a6.554,6.554,0,0,0,1.564-.647.182.182,0,0,0,.024-.01c.005,0,.008-.008.013-.011a6.635,6.635,0,0,0,1.338-1.027s.01-.005.014-.009.006-.01.009-.014A6.64,6.64,0,0,0,12.285,9.9a.226.226,0,0,0,.014-.018s0-.01.005-.015A6.552,6.552,0,0,0,12.956,8.3Zm-.906-.015.421.113a6.11,6.11,0,0,1-.449,1.079l-.375-.217a.22.22,0,1,0-.22.381l.374.216a6.186,6.186,0,0,1-.712.926l-.3-.3a.22.22,0,1,0-.311.311l.3.3a6.186,6.186,0,0,1-.926.712l-.216-.375a.22.22,0,0,0-.381.22l.217.375a6.116,6.116,0,0,1-1.079.449l-.113-.421a.22.22,0,0,0-.424.114l.112.419a6.137,6.137,0,0,1-1.159.152v-.873a.22.22,0,1,0-.439,0v.873a6.137,6.137,0,0,1-1.159-.152l.112-.419a.22.22,0,0,0-.424-.114l-.113.421a6.116,6.116,0,0,1-1.079-.449l.217-.375a.22.22,0,0,0-.381-.22l-.216.375a6.186,6.186,0,0,1-.926-.712l.3-.3a.22.22,0,1,0-.311-.311l-.305.3a6.186,6.186,0,0,1-.712-.926l.374-.216a.22.22,0,1,0-.219-.381l-.375.217A6.116,6.116,0,0,1,.71,8.394l.421-.113a.22.22,0,0,0-.114-.424L.6,7.97A6.12,6.12,0,0,1,.445,6.811h.873a.22.22,0,0,0,0-.439H.445A6.137,6.137,0,0,1,.6,5.212l.419.112a.223.223,0,0,0,.057.007A.22.22,0,0,0,1.13,4.9L.71,4.788a6.11,6.11,0,0,1,.449-1.079l.375.217a.22.22,0,0,0,.22-.381l-.374-.216A6.186,6.186,0,0,1,2.092,2.4l.3.3A.22.22,0,0,0,2.707,2.4l-.3-.3a6.186,6.186,0,0,1,.926-.712l.216.374a.22.22,0,1,0,.381-.22l-.217-.375A6.116,6.116,0,0,1,4.787.71L4.9,1.13a.219.219,0,0,0,.212.163.223.223,0,0,0,.057-.007.22.22,0,0,0,.155-.269L5.212.6A6.142,6.142,0,0,1,6.371.445v.873a.22.22,0,0,0,.439,0V.445A6.137,6.137,0,0,1,7.97.6l-.112.419a.22.22,0,0,0,.155.269.223.223,0,0,0,.057.007.22.22,0,0,0,.212-.163L8.394.709a6.11,6.11,0,0,1,1.079.449l-.217.375a.22.22,0,1,0,.381.22l.216-.374a6.186,6.186,0,0,1,.926.712l-.3.3a.22.22,0,1,0,.311.311l.3-.3a6.186,6.186,0,0,1,.712.926l-.374.216a.22.22,0,1,0,.22.381l.375-.217a6.117,6.117,0,0,1,.449,1.079l-.421.113a.22.22,0,0,0,.057.432.223.223,0,0,0,.057-.007l.419-.112a6.12,6.12,0,0,1,.152,1.159h-.873a.22.22,0,1,0,0,.439h.873a6.137,6.137,0,0,1-.152,1.159l-.419-.112a.22.22,0,0,0-.114.424Z" transform="translate(0 0)"/>
    <path id="Path_61" data-name="Path 61" class="cls-1" d="M29.3,15.735H27.726a.877.877,0,0,0-.628-.628V12.22a.22.22,0,0,0-.439,0v2.887a.877.877,0,1,0,1.067,1.067H29.3a.22.22,0,1,0,0-.439Zm-2.417.659a.439.439,0,1,1,.439-.439A.44.44,0,0,1,26.879,16.394Z" transform="translate(-20.288 -9.364)"/>
  </g>
</svg>
