<svg id="icon-stopwatch" xmlns="http://www.w3.org/2000/svg" viewBox="0 0 20 20">
  <defs>
    <style>
      .cls-1 {
        fill: #b1b1b1;
      }
    </style>
  </defs>
  <path id="Path_60" data-name="Path 60" class="cls-1" d="M19.659,12.588s0,0,0,0a9.983,9.983,0,0,0,0-5.17,0,0,0,0,1,0,0l0,0a9.938,9.938,0,0,0-.99-2.385c0-.007,0-.016-.008-.023s-.011-.011-.016-.018A10.054,10.054,0,0,0,17.085,2.95c-.006-.007-.008-.015-.014-.022s-.015-.009-.022-.014a10.054,10.054,0,0,0-2.031-1.559c-.007,0-.011-.011-.018-.015a.191.191,0,0,0-.023-.008,9.949,9.949,0,0,0-2.385-.99l0,0h0a9.973,9.973,0,0,0-5.17,0h0l0,0a9.935,9.935,0,0,0-2.385.989c-.008,0-.016,0-.023.008s-.011.011-.018.016A10.054,10.054,0,0,0,2.951,2.915c-.007.006-.015.008-.022.014s-.009.015-.014.022A10.066,10.066,0,0,0,1.356,4.982c0,.007-.012.011-.016.018s0,.015-.008.023a9.938,9.938,0,0,0-.99,2.385l0,0a.015.015,0,0,1,0,0,9.978,9.978,0,0,0,0,5.17s0,0,0,0l0,0a9.952,9.952,0,0,0,.989,2.385A.2.2,0,0,0,1.34,15a.294.294,0,0,0,.022.028,10.053,10.053,0,0,0,1.553,2.021c.006.007.008.015.014.022s.015.009.022.014a10.057,10.057,0,0,0,2.03,1.558c.007.005.011.012.019.017a.277.277,0,0,0,.036.015,9.945,9.945,0,0,0,2.373.982l0,0h0a9.969,9.969,0,0,0,5.166,0h0l0,0a9.945,9.945,0,0,0,2.373-.982A.276.276,0,0,0,15,18.66c.008,0,.012-.012.019-.017a10.066,10.066,0,0,0,2.03-1.558c.007-.006.015-.008.022-.014s.009-.015.014-.022a10.075,10.075,0,0,0,1.553-2.021A.343.343,0,0,0,18.66,15c0-.007,0-.015.008-.023a9.94,9.94,0,0,0,.989-2.385Zm-1.374-.023.638.171a9.27,9.27,0,0,1-.681,1.637l-.57-.329a.333.333,0,1,0-.333.577l.568.328a9.386,9.386,0,0,1-1.08,1.405l-.463-.463a.333.333,0,1,0-.471.471l.463.463a9.386,9.386,0,0,1-1.405,1.08l-.328-.568a.333.333,0,0,0-.577.333l.329.57a9.28,9.28,0,0,1-1.637.681l-.171-.638a.333.333,0,0,0-.644.173l.171.636a9.312,9.312,0,0,1-1.758.231V18a.333.333,0,1,0-.667,0v1.325a9.312,9.312,0,0,1-1.758-.231l.171-.636a.333.333,0,0,0-.644-.173l-.171.638a9.28,9.28,0,0,1-1.637-.681l.329-.57a.333.333,0,1,0-.577-.333l-.328.568a9.386,9.386,0,0,1-1.405-1.08l.463-.463a.333.333,0,0,0-.471-.471l-.463.462a9.386,9.386,0,0,1-1.08-1.405l.568-.328a.333.333,0,1,0-.333-.577l-.57.329a9.28,9.28,0,0,1-.681-1.637l.638-.171a.333.333,0,0,0-.173-.644l-.636.17a9.285,9.285,0,0,1-.231-1.758H2a.333.333,0,0,0,0-.667H.675A9.312,9.312,0,0,1,.906,7.908l.636.17a.338.338,0,0,0,.087.011.333.333,0,0,0,.086-.655l-.638-.171a9.27,9.27,0,0,1,.681-1.637l.57.329a.333.333,0,0,0,.333-.578L2.093,5.05a9.386,9.386,0,0,1,1.08-1.405l.463.463a.333.333,0,0,0,.471-.471l-.463-.463A9.386,9.386,0,0,1,5.05,2.093l.328.568a.333.333,0,1,0,.577-.333l-.329-.57a9.28,9.28,0,0,1,1.637-.681l.171.638a.333.333,0,0,0,.322.247.338.338,0,0,0,.087-.011.333.333,0,0,0,.236-.408L7.908.906A9.319,9.319,0,0,1,9.667.675V2a.333.333,0,0,0,.667,0V.675a9.312,9.312,0,0,1,1.758.231l-.171.636a.334.334,0,0,0,.236.408.338.338,0,0,0,.087.011.333.333,0,0,0,.322-.247l.171-.638a9.27,9.27,0,0,1,1.637.681l-.329.57a.333.333,0,1,0,.577.333l.328-.568a9.386,9.386,0,0,1,1.405,1.08l-.463.463a.333.333,0,1,0,.471.471l.463-.463a9.386,9.386,0,0,1,1.08,1.405l-.568.328a.333.333,0,1,0,.333.577l.57-.329a9.28,9.28,0,0,1,.681,1.637l-.638.171a.333.333,0,0,0,.086.655.338.338,0,0,0,.087-.011l.636-.17a9.285,9.285,0,0,1,.231,1.758H18a.333.333,0,1,0,0,.667h1.325a9.312,9.312,0,0,1-.231,1.758l-.636-.17a.333.333,0,0,0-.173.644Z" transform="translate(0 0)"/>
  <path id="Path_61" data-name="Path 61" class="cls-1" d="M31,17.667H28.619a1.331,1.331,0,0,0-.953-.953V12.333a.333.333,0,0,0-.667,0v4.381a1.331,1.331,0,1,0,1.619,1.619H31a.333.333,0,1,0,0-.667Zm-3.667,1A.667.667,0,1,1,28,18,.667.667,0,0,1,27.333,18.667Z" transform="translate(-17.333 -8)"/>
</svg>
