<svg xmlns="http://www.w3.org/2000/svg" viewBox="0 0 21.542 23.5">
  <defs>
    <style>
      .cls-1 {
        fill: #b1b1b1;
      }
    </style>
  </defs>
  <g id="icon-calendar" transform="translate(-20)">
    <g id="Group_12" data-name="Group 12" transform="translate(20)">
      <g id="Group_11" data-name="Group 11" transform="translate(0)">
        <path id="Path_57" data-name="Path 57" class="cls-1" d="M39.192.783H38.017V.392a.392.392,0,0,0-.783,0V.783H36.45V.392a.392.392,0,0,0-.783,0V.783h-.783V.392a.392.392,0,0,0-.783,0V.783h-.783V.392a.392.392,0,0,0-.783,0V.783H27.05V.392a.392.392,0,0,0-.783,0V.783h-.783V.392a.392.392,0,1,0-.783,0V.783h-.783V.392a.392.392,0,0,0-.783,0V.783H22.35V.392a.392.392,0,0,0-.783,0V.783H20.392A.392.392,0,0,0,20,1.175V19.583a.392.392,0,0,0,.392.392H31.77a.392.392,0,0,0,.393-.391c0-.009,0-.019,0-.028l0-.045c-.009-.106-.016-.212-.016-.319a5.069,5.069,0,0,1,.136-1.151,5,5,0,0,1,.388-1.085c.017-.034.032-.069.05-.1.052-.1.108-.2.167-.292.018-.03.036-.061.056-.091q.1-.149.2-.291l.044-.06q.118-.154.244-.3l.012-.013a5.161,5.161,0,0,1,2.049-1.395l.069-.025c.106-.037.213-.07.322-.1l.148-.039c.092-.023.184-.044.277-.061s.16-.025.24-.036.141-.022.213-.028c.157-.015.316-.024.477-.024.106,0,.211.008.313.015l.049,0h.01a5.116,5.116,0,0,1,1.444.323.392.392,0,0,0,.534-.365V1.175A.392.392,0,0,0,39.192.783ZM32.163,16.24c-.014.022-.028.043-.041.066-.056.1-.107.2-.157.3-.028.056-.056.112-.082.17-.043.094-.083.191-.12.288l-.012.029V15.275h1.117A5.915,5.915,0,0,0,32.163,16.24ZM34.1,14.231c-.135.085-.265.176-.392.272v-.011H31.75v-2.35H34.1Zm0-2.872H31.75V9.008H34.1Zm0-3.133H31.75V5.875H34.1Zm3.133.783v2.35h-2.35V9.008Zm-2.35-.783V5.875h2.35v2.35Zm2.351,5.092c-.183,0-.364.011-.544.027-.078.007-.152.019-.228.029-.1.013-.192.026-.286.044s-.2.039-.3.063c-.06.014-.12.03-.179.046-.118.032-.235.067-.353.106l-.044.016c-.143.05-.284.1-.421.162V12.142h2.35v1.175Zm1.566.216a5.821,5.821,0,0,0-.783-.163V5.483a.392.392,0,0,0-.392-.392H21.958a.392.392,0,0,0-.392.392V18.017a.392.392,0,0,0,.392.392h9.458a5.875,5.875,0,0,0-.058.783H20.783V4.308H38.8Zm-10.183.959v-2.35h2.35v2.35Zm2.35.783v2.35h-2.35v-2.35Zm-2.35-3.917V9.008h2.35v2.35Zm0-3.133V5.875h2.35v2.35Zm-3.133,6.267v-2.35h2.35v2.35Zm2.35.783v2.35h-2.35v-2.35Zm-2.35-3.917V9.008h2.35v2.35Zm0-3.133V5.875h2.35v2.35ZM22.35,14.492v-2.35H24.7v2.35Zm2.35.783v2.35H22.35v-2.35Zm-2.35-3.917V9.008H24.7v2.35Zm0-3.133V5.875H24.7v2.35Zm16.45-4.7H20.783V1.567h.783v.392a.392.392,0,0,0,.783,0V1.567h.783v.392a.392.392,0,0,0,.783,0V1.567H24.7v.392a.392.392,0,1,0,.783,0V1.567h.783v.392a.392.392,0,0,0,.783,0V1.567h5.483v.392a.392.392,0,0,0,.783,0V1.567H34.1v.392a.392.392,0,0,0,.783,0V1.567h.783v.392a.392.392,0,0,0,.783,0V1.567h.783v.392a.392.392,0,0,0,.783,0V1.567H38.8Z" transform="translate(-20)"/>
      </g>
    </g>
    <g id="Group_14" data-name="Group 14" transform="translate(32.925 14.883)">
      <g id="Group_13" data-name="Group 13">
        <path id="Path_58" data-name="Path 58" class="cls-1" d="M288.308,304a4.308,4.308,0,1,0,4.308,4.308A4.308,4.308,0,0,0,288.308,304Zm0,7.833a3.525,3.525,0,1,1,3.525-3.525A3.525,3.525,0,0,1,288.308,311.833Z" transform="translate(-284 -304)"/>
      </g>
    </g>
    <g id="Group_16" data-name="Group 16" transform="translate(35.671 16.846)">
      <g id="Group_15" data-name="Group 15">
        <path id="Path_59" data-name="Path 59" class="cls-1" d="M343.885,344.208a.392.392,0,0,0-.544,0l-1.681,1.681-.9-.9a.392.392,0,0,0-.554.554l1.175,1.175a.392.392,0,0,0,.554,0l1.958-1.958A.392.392,0,0,0,343.885,344.208Z" transform="translate(-340.098 -344.098)"/>
      </g>
    </g>
  </g>
</svg>
