<?xml version="1.0" standalone="no"?>
<!DOCTYPE svg PUBLIC "-//W3C//DTD SVG 1.1//EN" "http://www.w3.org/Graphics/SVG/1.1/DTD/svg11.dtd" >
<svg xmlns="http://www.w3.org/2000/svg" xmlns:xlink="http://www.w3.org/1999/xlink" version="1.1">
<metadata>
Created by FontForge 20170910 at Sat Apr 18 22:38:18 2015
 By Jimmy Wärting
Copyright (c) 2015 by @zamroni_agus (jroh creative). All rights reserved.
</metadata>
<defs>
<font id="SVN-Amethyst" horiz-adv-x="286" >
  <font-face 
    font-family="SVN-Amethyst"
    font-weight="400"
    font-stretch="normal"
    units-per-em="1000"
    panose-1="0 0 0 0 0 0 0 0 0 0"
    ascent="750"
    descent="-250"
    x-height="378"
    cap-height="715"
    bbox="-1123.98 -531 1952 1027.9"
    underline-thickness="50"
    underline-position="-100"
    unicode-range="U+0020-2212"
  />
<missing-glyph horiz-adv-x="250" 
 />
    <glyph glyph-name="e_e" unicode="ee" horiz-adv-x="460" 
d="M130 356c-46 0 -61 -68 -69 -124c64 31 98 77 98 98c0 18 -16 26 -29 26zM396 332c0 -74 -57 -176 -105 -239c10 -30 31 -58 67 -58c26 0 69 14 92 57c21 39 35 91 37 144c0 4 4 8 8 8c5 0 8 -4 8 -9c-2 -55 -17 -110 -39 -151c-8 -15 -44 -82 -111 -82
c-36 0 -73 6 -104 48c-34 -29 -73 -48 -116 -48c-95 0 -129 69 -133 160c0 87 37 220 131 220c29 0 45 -26 45 -50c0 -41 -46 -86 -115 -119c0 -33 -13 -178 77 -178c36 0 69 14 99 36c-10 23 -16 49 -17 91c0 87 37 220 131 220c29 0 45 -26 45 -50zM284 116
c57 67 92 159 95 214c0 18 -16 26 -29 26c-61 0 -69 -129 -69 -207c0 -9 1 -21 3 -33z" />
    <glyph glyph-name="o_r" unicode="or" horiz-adv-x="513" 
d="M556 236c-3 -56 -17 -111 -39 -152c-9 -15 -18 -28 -28 -38v0c-23 -27 -50 -44 -78 -44c-3 0 -6 0 -9 1c-30 4 -41 27 -41 61c0 72 39 188 39 238c0 11 -3 16 -11 16c-22 0 -49 -3 -70 -4c9 -43 2 -81 -19 -108c-19 -24 -48 -38 -84 -40c-3 -86 -41 -166 -114 -166
c-70 0 -101 69 -101 146c0 36 7 76 20 110c-10 15 -15 33 -15 49c0 39 26 75 70 75c71 0 138 -86 140 -198c31 2 55 14 71 34c19 24 24 58 16 98h-6c-27 1 -42 19 -42 48c0 15 9 18 22 18c14 0 30 -20 38 -50h4c23 0 58 7 74 7c36 0 61 -23 61 -53c0 -38 -33 -150 -33 -212
c0 -18 2 -29 7 -34c2 -2 5 -3 7 -3c13 0 26 6 38 17c10 10 20 23 30 40c21 39 35 91 37 144c0 5 4 8 8 8s8 -4 8 -8zM77 356c-36 0 -47 -28 -47 -54c0 -7 0 -13 2 -20c5 10 14 24 20 39c0 0 34 -15 34 -33c0 -15 -7 -35 -15 -60c28 -21 66 -40 106 -45
c-2 102 -44 173 -100 173zM124 35c44 0 53 62 53 132c-32 4 -66 16 -97 36c-4 3 -9 5 -13 9c-5 -20 -9 -43 -9 -67c0 -57 17 -110 66 -110z" />
    <glyph glyph-name="v_r" unicode="vr" horiz-adv-x="571" 
d="M614 233c-2 -55 -16 -110 -39 -151c-8 -15 -17 -28 -27 -39v0c-24 -27 -50 -44 -78 -44c-4 0 -7 0 -9 1c-31 4 -41 28 -41 61c0 73 38 188 38 239c0 10 -3 16 -10 16c-23 0 -50 -4 -72 -5h-6v-4c0 -36 -6 -120 -99 -120c-12 0 -23 2 -32 6c-15 -91 -47 -193 -116 -193
c-63 0 -73 89 -79 184h1c-3 37 -5 75 -9 110c-4 31 -19 52 -30 52c-13 0 -4 33 23 33c41 0 59 -36 64 -70c7 -49 9 -107 13 -158v0c6 -65 16 -117 48 -117c26 0 54 76 69 168c-9 6 -16 13 -21 21c-15 21 -27 54 -27 88c0 61 19 94 42 94c14 0 23 -16 26 -26
c18 -56 8 -115 -1 -167c9 -6 20 -10 31 -10c61 0 82 47 83 109v0c-28 1 -43 19 -43 49c0 14 10 18 22 18c14 0 31 -20 38 -51h4c23 0 58 8 74 8c36 0 61 -24 61 -53c0 -39 -33 -150 -33 -213c0 -17 3 -29 8 -34c2 -1 4 -2 6 -2c13 0 26 6 39 17c10 9 19 22 29 39
c21 39 35 92 37 145c0 4 4 8 8 7c5 0 8 -4 8 -8zM195 314c0 -34 12 -68 32 -90c5 35 8 72 8 106c-2 25 -9 45 -20 45c-6 0 -20 -13 -20 -61z" />
    <glyph glyph-name="w_r" unicode="wr" horiz-adv-x="728" 
d="M771 233c-3 -55 -17 -111 -39 -152c-9 -15 -18 -28 -28 -38v0c-24 -27 -50 -44 -78 -44c-3 0 -6 0 -9 1c-30 4 -41 27 -41 61c0 72 39 188 39 239c0 10 -3 15 -11 15c-22 0 -50 -3 -71 -4h-4v-4c0 -37 -6 -121 -99 -121c-11 0 -21 2 -30 6c-14 -89 -46 -192 -117 -192
c-38 0 -57 32 -67 79c-15 -43 -42 -79 -93 -79c-63 0 -73 89 -79 183h1c-3 38 -5 76 -9 110c-4 32 -19 52 -30 52c-13 0 -4 34 23 34c41 0 59 -36 64 -71c7 -48 9 -107 13 -157v0c6 -65 16 -117 48 -117c26 0 46 25 56 83c-3 24 -5 51 -6 78c-5 12 -9 25 -14 37
c-21 57 -35 98 -30 123c0 2 1 3 1 5c1 3 2 5 4 7c2 3 5 6 10 9c4 2 9 3 14 3c41 0 59 -36 64 -71c15 -112 4 -274 61 -274c28 0 57 73 72 165c-11 7 -19 15 -25 24c-15 20 -27 54 -27 88c0 61 19 94 42 94c14 0 22 -16 25 -26c5 -11 8 -27 9 -45c0 -4 1 -10 1 -18
c0 -15 -2 -57 -8 -106c8 -5 18 -8 29 -8c61 0 82 47 83 109h-3c-27 1 -42 19 -42 49c0 14 9 17 22 17c14 0 30 -20 38 -50h4c23 0 58 7 74 7c35 0 61 -23 61 -52c0 -39 -33 -151 -33 -213c0 -17 2 -29 7 -34c2 -2 4 -2 7 -2c13 0 26 5 38 17c10 9 20 22 30 39
c21 39 34 92 37 144c0 5 3 8 8 8c4 0 8 -4 8 -8zM180 313c4 -18 12 -40 20 -61c-1 14 -2 28 -4 41c-3 23 -12 40 -21 48c0 -7 2 -16 5 -28zM354 314c0 -36 13 -72 35 -93c4 29 6 60 6 90v1c0 31 -7 63 -21 63c-6 0 -20 -14 -20 -61z" />
    <glyph glyph-name="o_z" unicode="oz" horiz-adv-x="578" 
d="M613 245c4 0 8 -4 7 -8c-1 -46 -12 -93 -30 -134c-19 -45 -56 -78 -94 -107c2 -15 2 -30 2 -45c0 -94 -29 -213 -81 -213c-25 0 -41 8 -54 20c-9 11 -21 29 -21 58c0 38 13 71 38 102c18 22 41 41 64 59c-2 40 -14 82 -63 92c-16 3 -34 4 -53 5c0 0 -12 57 32 57
c103 0 128 143 128 191c-13 -1 -26 0 -106 0c-59 0 -63 4 -62 -29c6 -37 -4 -70 -21 -92c-19 -24 -48 -33 -84 -35c-3 -86 -41 -166 -114 -166c-70 0 -101 69 -101 146c0 36 7 76 20 110c-10 15 -15 33 -15 49c0 39 26 75 70 75c71 0 138 -86 140 -198c31 2 55 9 71 29
c10 13 17 34 19 53v3c0 80 -55 113 66 113c51 0 70 -1 140 -1c0 -107 -30 -244 -110 -263c17 -4 32 -10 44 -19v0v0c28 -19 42 -49 48 -83c34 27 66 57 83 96c16 38 27 84 28 128c1 4 4 7 9 7zM31 282c5 10 14 24 20 39c0 0 34 -15 34 -33c0 -15 -7 -35 -15 -60
c28 -21 66 -40 106 -45c-2 102 -44 173 -100 173c-36 0 -47 -28 -47 -54c0 -7 0 -13 2 -20zM123 35c44 0 53 62 53 132c-32 4 -66 16 -97 36c-4 3 -9 5 -13 9c-5 -20 -9 -43 -9 -67c0 -57 17 -110 66 -110zM412 -246c58 1 32 124 32 166c0 10 1 23 1 37
c-48 -38 -87 -78 -87 -141c0 -41 26 -62 52 -62h2z" />
    <glyph glyph-name="v_z" unicode="vz" horiz-adv-x="591" 
d="M425 -246c58 1 32 124 32 166c0 10 1 23 1 37c-48 -38 -87 -78 -87 -141c0 -41 26 -62 52 -62h2zM164 315c0 -40 12 -75 35 -95c4 30 6 61 6 92v1c0 31 -7 63 -21 63c-6 0 -20 -13 -20 -61zM258 185c-16 0 -25 1 -33 3c-5 1 -10 3 -15 5c-14 -89 -46 -191 -117 -191
c-75 0 -73 133 -78 183c-4 37 -5 75 -9 110c-4 31 -19 52 -30 52c-13 0 -4 33 23 33c41 0 59 -36 64 -70c7 -49 9 -107 13 -158c6 -65 16 -117 48 -117c28 0 57 74 72 165c-10 7 -18 14 -25 24c-15 21 -27 54 -27 88c0 61 19 94 42 94c14 0 22 -16 26 -25c6 -18 9 -38 9 -64
c0 -15 -2 -58 -8 -107c5 -3 10 -5 15 -6c8 -2 17 -3 25 -3c36 0 64 31 64 69c0 79 -54 110 66 110c52 0 71 -1 141 -1c0 -107 -30 -244 -111 -263c18 -4 33 -10 45 -19c28 -19 42 -49 48 -83c34 27 66 57 83 96c16 38 27 84 28 128c1 4 4 7 9 7c4 0 8 -4 7 -8
c-2 -46 -12 -93 -30 -134c-20 -45 -56 -78 -94 -107c2 -15 2 -30 2 -45c0 -94 -29 -213 -81 -213c-25 0 -41 8 -54 20c-9 11 -21 29 -21 58c0 38 13 71 38 102c18 22 41 41 64 59c-2 40 -14 82 -64 92c-16 3 -33 4 -52 5c0 0 -12 57 32 57c103 0 128 143 128 191
c-13 -1 -26 0 -106 0c-75 0 -60 11 -60 -54c0 -38 -35 -83 -77 -83z" />
    <glyph glyph-name="w_z" unicode="wz" horiz-adv-x="796" 
d="M831 245c4 0 8 -4 7 -8c-2 -46 -12 -93 -30 -134c-20 -45 -56 -78 -94 -107c2 -15 2 -30 2 -45c0 -94 -29 -213 -81 -213c-25 0 -41 8 -54 20c-9 11 -21 29 -21 58c0 38 13 71 38 102c18 22 41 41 64 59c-2 40 -14 82 -64 92c-16 3 -33 4 -52 5c0 0 -12 57 32 57
c103 0 128 143 128 191c-13 -1 -26 0 -106 0c-75 0 -60 11 -60 -54c0 -29 -27 -65 -55 -75c-14 -6 -29 -8 -44 -8c-9 0 -18 1 -27 3c-5 1 -9 3 -14 5c-14 -89 -46 -191 -117 -191c-38 0 -57 32 -67 78c-15 -43 -42 -78 -93 -78c-63 0 -73 88 -79 183h1c-3 37 -5 75 -9 110
c-4 31 -19 52 -30 52c-13 0 -4 33 23 33c41 0 59 -36 64 -70c7 -49 9 -107 13 -158v0c6 -65 16 -117 48 -117c26 0 46 25 56 83c-3 25 -5 51 -6 78c-5 12 -9 25 -14 37c-21 57 -35 99 -30 123c0 2 1 4 1 6c1 2 2 5 4 7c2 3 5 6 10 8c4 2 9 3 14 3c41 0 59 -36 64 -70
c15 -112 4 -275 61 -275c28 0 57 74 72 165c-10 7 -19 14 -25 24c-15 21 -27 54 -27 88c0 61 19 94 42 94c14 0 22 -16 25 -25c5 -12 8 -27 9 -45c0 -5 1 -11 1 -19c0 -15 -2 -58 -9 -107c5 -3 11 -5 16 -6c20 -5 41 -4 61 4c17 6 45 36 45 61c0 79 -56 111 64 111
c52 0 71 -1 141 -1c0 -107 -30 -244 -111 -263c18 -4 33 -10 45 -19v0v0c28 -19 42 -49 48 -83c34 27 66 57 83 96c16 38 27 84 28 128c1 4 4 7 9 7zM180 315c4 -19 12 -40 20 -62c-1 14 -2 28 -4 42c-3 23 -12 40 -21 47c0 -6 2 -15 5 -27zM388 220c4 30 7 61 7 92v1
c0 31 -7 63 -21 63c-6 0 -20 -13 -20 -61c0 -40 12 -75 34 -95zM630 -246c58 1 32 124 32 166c0 10 1 23 1 37c-48 -38 -87 -78 -87 -141c0 -41 26 -62 52 -62h2z" />
    <glyph glyph-name="o_x" unicode="ox" horiz-adv-x="620" 
d="M663 233c-2 -55 -16 -110 -39 -151c-8 -15 -18 -28 -28 -39h1c-24 -26 -50 -44 -78 -44c-49 0 -84 49 -114 109c-24 -54 -53 -96 -92 -96c-27 0 -33 33 -15 36c30 -13 63 38 90 98c-27 66 -49 137 -72 173c13 -42 3 -87 -17 -113c-19 -24 -48 -38 -84 -40
c-3 -86 -41 -166 -114 -166c-70 0 -101 69 -101 146c0 36 7 76 20 110c-10 15 -15 33 -15 49c0 39 26 75 70 75c71 0 138 -86 140 -198c31 2 55 14 71 34c14 17 20 40 20 66c-3 22 -7 43 -14 61c-2 1 -3 1 -5 2c0 0 -10 33 34 33s74 -71 102 -149c33 78 69 149 133 149
c5 0 8 -3 8 -8c0 -4 -3 -8 -8 -8c-28 0 -53 -15 -75 -52c-13 -21 -27 -68 -44 -118c30 -82 60 -159 105 -159c13 0 26 6 39 17c10 9 19 22 29 39c21 39 35 92 37 145c0 4 4 8 8 7c5 0 8 -3 8 -8zM31 282c5 10 14 24 20 39c0 0 34 -15 34 -33c0 -15 -7 -35 -15 -60
c28 -21 66 -40 106 -45c-2 102 -44 173 -100 173c-36 0 -47 -28 -47 -54c0 -7 0 -13 2 -20zM123 35c44 0 53 62 53 132c-32 4 -66 16 -97 36c-4 3 -9 5 -13 9c-5 -20 -9 -43 -9 -67c0 -57 17 -110 66 -110z" />
    <glyph glyph-name="w_x" unicode="wx" horiz-adv-x="835" 
d="M878 233c-2 -55 -16 -110 -39 -151c-8 -15 -17 -28 -27 -39v0c-24 -26 -50 -44 -78 -44c-48 0 -84 49 -113 109c-24 -54 -54 -96 -93 -96c-27 0 -33 33 -14 36c29 -13 62 38 90 98c-28 66 -47 133 -70 169c21 -83 -27 -148 -120 -127c-5 1 -9 3 -14 5
c-14 -89 -46 -191 -117 -191c-38 0 -57 32 -67 78c-15 -43 -42 -78 -93 -78c-63 0 -73 88 -79 183h1c-3 37 -5 75 -9 110c-4 31 -19 52 -30 52c-13 0 -4 33 23 33c41 0 59 -36 64 -70c7 -49 9 -107 13 -158v0c6 -65 16 -117 48 -117c26 0 46 25 56 83c-3 25 -5 51 -6 78
c-5 12 -9 25 -14 37c-21 57 -35 99 -30 123c0 2 1 4 1 6c1 2 2 5 4 7c2 3 5 6 10 8c4 2 9 3 14 3c41 0 59 -36 64 -70c15 -112 4 -275 61 -275c28 0 57 74 72 165c-10 7 -19 14 -25 24c-15 21 -27 54 -27 88c0 61 19 94 42 94c14 0 22 -16 25 -25c5 -12 8 -27 9 -45
c0 -5 1 -11 1 -19c0 -15 -2 -58 -9 -107c92 -39 149 44 106 133c-2 1 -4 1 -6 2c0 0 -10 33 34 33s74 -71 103 -149c32 78 69 149 133 149c4 0 8 -3 8 -8c0 -4 -4 -8 -8 -8c-28 0 -53 -15 -75 -52c-13 -21 -27 -68 -44 -118c29 -82 60 -159 105 -159c12 0 26 6 38 17
c10 9 20 22 29 39c22 39 35 92 37 145c1 4 4 8 9 7c4 0 7 -3 7 -8zM180 315c4 -19 12 -40 20 -62c-1 14 -2 28 -4 42c-3 23 -12 40 -21 47c0 -6 2 -15 5 -27zM388 220c4 30 7 61 7 92v1c0 31 -7 63 -21 63c-6 0 -20 -13 -20 -61c0 -40 12 -75 34 -95z" />
    <glyph glyph-name="l_l" unicode="ll" horiz-adv-x="263" 
d="M337 490c2 -3 2 -8 -2 -11c-1 -1 -33 -23 -87 -46c-19 -8 -41 -16 -66 -24v-121c0 -12 -1 -24 -2 -33c-2 -59 -6 -141 -3 -183c2 -23 8 -38 19 -38c12 0 26 5 38 17c10 9 20 22 29 39c22 39 35 92 37 145c0 4 4 7 9 7c4 0 7 -4 7 -8c-2 -55 -16 -111 -39 -152
c-8 -15 -17 -27 -27 -38v0c-24 -27 -50 -44 -78 -44c-26 0 -39 22 -44 45c-1 0 -1 -1 -2 -1v0c-23 -27 -50 -44 -77 -44c-52 0 -49 84 -49 98c0 43 2 87 3 128c-1 2 -1 4 -1 5v16c-11 46 -29 95 -42 145c-46 9 -85 29 -114 58c-37 36 -57 86 -57 139c0 48 17 94 48 128
c34 38 81 58 136 58c49 0 93 -16 127 -46c20 -17 35 -38 45 -60c27 -43 35 -150 36 -243c23 7 44 14 60 21c53 23 84 45 85 45c3 3 8 2 11 -2zM-143 461c26 -25 59 -42 98 -51c-8 33 -13 66 -13 101c0 45 0 122 58 122c50 0 60 -122 61 -229c21 1 42 4 61 8v40
c0 93 23 164 8 211v1c-9 19 -23 38 -40 53c-31 27 -72 42 -117 42c-83 0 -168 -59 -168 -170c0 -49 19 -94 52 -128zM-43 501c0 -25 6 -59 15 -95l27 -3v23c0 94 27 191 -1 191c-32 0 -41 -47 -41 -116zM-24 389c8 -27 16 -56 24 -82c0 23 -1 50 -1 80c-8 1 -15 1 -23 2z
M124 264c-1 29 -1 85 -2 131c-19 -3 -40 -6 -61 -7c0 -36 -1 -69 -2 -95v-6v-30c0 -13 -1 -24 -2 -34c-3 -51 -6 -113 -3 -151c2 -23 7 -38 18 -38c13 0 26 5 39 17c4 4 9 9 13 15c-1 15 -1 28 -1 32c0 58 1 115 1 166z" />
    <glyph glyph-name="t_t" unicode="tt" horiz-adv-x="281" 
d="M405 472c2 -15 -5 -3 -9 -4c-1 0 -43 -1 -132 -33c-19 -7 -42 -15 -68 -23v-35v-6c0 -126 -9 -240 -5 -296c3 -24 8 -39 19 -39c12 0 26 6 38 17c10 9 20 22 29 39c22 39 35 92 37 145c1 4 4 7 9 7c4 0 8 -4 7 -8c-2 -55 -16 -110 -39 -151c-8 -15 -17 -28 -27 -39v0
c-24 -27 -50 -44 -78 -44c-32 0 -43 33 -47 61c-5 -6 -9 -12 -14 -17v0c-24 -27 -50 -44 -78 -44c-51 0 -49 84 -49 98c0 54 1 186 2 291c-56 6 -104 27 -138 61c-37 36 -57 86 -57 139c0 48 17 94 48 128c34 38 81 58 136 58c49 0 93 -16 127 -46c20 -17 35 -38 45 -60
c27 -43 34 -141 35 -227c33 15 62 29 82 38c70 29 120 28 127 -10zM-127 463c32 -31 75 -50 127 -56v113c0 1 8 8 21 8c18 0 38 -11 38 -58c0 -11 -1 -34 -2 -65c28 2 55 9 81 17v32c0 93 23 164 8 211c-1 1 -1 3 -2 4c-9 18 -22 36 -38 50c-31 27 -72 42 -117 42
c-83 0 -168 -59 -168 -170c0 -49 19 -94 52 -128zM109 53c10 9 19 21 28 37v10c0 56 1 160 2 242c0 19 -1 38 -1 56c-25 -5 -52 -8 -81 -9c-3 -105 -8 -273 -5 -314c3 -24 8 -39 19 -39c12 0 26 6 38 17z" />
    <glyph glyph-name="i_t_h" unicode="ith" horiz-adv-x="613" 
d="M656 231c-3 -55 -17 -110 -39 -151c-9 -16 -18 -28 -28 -39v0c-24 -27 -50 -44 -78 -44c-51 0 -55 56 -55 98c0 30 11 109 11 136s7 96 -24 96c-39 0 -77 -155 -77 -206c0 -36 -9 -55 -2 -116c-1 -1 -6 -4 -11 -5c-18 -6 -51 -5 -51 55v4c-4 -6 -9 -12 -15 -18v0
c-23 -27 -50 -44 -77 -44c-48 0 -49 71 -49 94c-2 -4 -4 -8 -6 -11c-8 -16 -18 -28 -28 -39v0c-23 -27 -50 -44 -78 -44c-51 0 -48 84 -48 98c0 8 5 171 -1 231c0 1 11 8 24 8c17 0 37 -11 37 -58c0 -46 -11 -150 -6 -206c2 -24 7 -39 18 -39c13 0 26 6 39 17
c9 9 19 22 29 39c8 14 14 30 20 47c0 52 0 129 1 201c-61 3 -109 15 -147 45c-13 8 -20 25 -20 40c0 16 8 30 24 30c24 0 36 -23 36 -44c0 -7 -1 -14 -5 -19c29 -24 68 -34 112 -37c1 73 1 139 1 165c0 1 8 8 21 8c17 0 37 -11 37 -58c0 -16 -1 -61 -2 -115c6 0 12 1 18 1
c24 2 48 6 71 12v46c0 75 15 136 13 181c-1 4 -2 7 -2 11c-1 6 -2 11 -4 16c-33 69 -28 131 11 173c45 47 127 61 197 33c32 -12 59 -33 78 -60c21 -30 32 -67 32 -109c0 -48 -16 -95 -47 -139c-28 -39 -69 -75 -119 -104c-31 -18 -64 -34 -100 -47c1 -64 0 -122 0 -150
c12 53 45 162 96 162c48 0 60 -47 60 -101c0 -52 -16 -162 -13 -205c3 -24 14 -39 25 -39c13 0 26 6 38 17c10 9 20 22 30 39c21 39 34 92 37 145c0 4 3 7 8 7c4 0 8 -4 8 -8zM332 624c25 -42 32 -148 35 -243c32 12 64 27 92 44c48 27 87 62 114 100c29 41 44 84 44 129
c0 39 -10 72 -30 100c-17 24 -41 43 -70 54c-64 26 -139 13 -179 -29c-16 -18 -26 -39 -28 -63c-3 -28 7 -59 22 -92zM301 87c1 2 2 3 2 5c2 41 5 99 6 146c0 29 0 71 -1 108c-23 -5 -46 -9 -70 -11c-7 0 -13 -1 -20 -1c-3 -102 -6 -229 -3 -264c2 -24 7 -39 18 -39
c13 0 26 6 39 17c10 9 19 22 29 39z" />
    <glyph glyph-name=".notdef" horiz-adv-x="250" 
 />
    <glyph glyph-name="b" unicode="b" horiz-adv-x="320" 
d="M356 244c4 0 7 -4 7 -9c-2 -64 -21 -127 -49 -169c-1 0 -2 -1 -2 -2c-13 -19 -47 -70 -108 -70c-19 0 -36 9 -50 22c-15 -9 -33 -15 -51 -15c-26 0 -44 22 -52 45c-18 -5 -50 -5 -50 56c0 32 5 94 7 148c-19 81 -60 168 -60 263c0 45 0 122 58 122c70 0 63 -237 61 -332
c13 35 44 77 85 77c131 0 121 -273 16 -355c11 -9 23 -15 36 -15c52 0 82 44 95 63c0 1 1 2 1 2c27 40 45 100 47 161c0 4 4 8 9 8zM141 332c-39 0 -77 -71 -77 -122c0 -29 -5 -75 -4 -123c6 5 14 8 22 8c21 0 38 -19 56 -39c2 -2 4 -4 5 -6c59 70 65 282 -2 282zM4 619
c-31 0 -41 -47 -41 -116c0 -50 25 -132 45 -199c-1 24 -3 55 -3 124c0 93 27 191 -1 191zM102 27c11 0 21 4 30 11c-2 3 -4 5 -6 7c-15 18 -30 34 -44 34c-13 0 -20 -12 -20 -23v-3v-2c6 -13 18 -24 40 -24z" />
    <glyph glyph-name="c" unicode="c" horiz-adv-x="240" 
d="M275 244c5 0 8 -4 8 -9c-2 -55 -17 -110 -39 -151c-8 -15 -44 -82 -111 -82c-36 0 -73 6 -101 45c-20 27 -30 63 -32 101v14c0 87 46 220 140 220c33 0 36 -34 36 -58c0 -25 -10 -55 -28 -83c-11 -18 -46 -20 -46 1c0 26 24 43 48 34c6 16 9 32 9 46c0 18 -7 34 -20 34
c-46 0 -77 -82 -78 -177v-19c0 -33 6 -125 77 -125c26 0 69 14 92 57c21 39 35 91 37 144c0 4 4 8 8 8z" />
    <glyph glyph-name="d" unicode="d" horiz-adv-x="337" 
d="M380 235c-2 -55 -16 -110 -39 -151c-8 -15 -17 -28 -27 -38v0c-24 -27 -50 -44 -78 -44c-52 0 -49 84 -49 98c-6 -35 -40 -99 -90 -99c-154 0 -114 379 49 379h4c-12 43 -22 87 -22 133c0 45 0 122 58 122c75 0 62 -272 62 -351c0 -68 -12 -137 -7 -210
c2 -23 8 -39 19 -39c12 0 25 6 38 17c10 10 20 22 29 40c22 39 35 91 37 144c0 4 4 8 8 8c5 0 8 -4 8 -9zM188 305c0 9 -1 17 -2 26c-2 5 -5 10 -10 14c4 -14 8 -27 12 -40zM143 503c0 -33 11 -81 25 -128c7 -4 13 -10 18 -17c0 18 -1 40 -1 70c0 93 28 191 -1 191
c-31 0 -41 -47 -41 -116zM184 172c0 20 3 48 4 79c-8 33 -19 68 -30 103c-3 1 -7 1 -11 1c-95 0 -120 -305 -40 -305c39 0 77 71 77 122z" />
    <glyph glyph-name="e" unicode="e" horiz-adv-x="240" 
d="M275 244c5 0 8 -4 8 -9c-2 -55 -17 -110 -39 -151c-8 -15 -44 -82 -111 -82c-36 0 -73 6 -101 45c-20 27 -30 63 -32 101v14c0 87 37 220 131 220c29 0 45 -26 45 -50c0 -41 -46 -86 -115 -119c0 -33 -13 -178 77 -178c26 0 69 14 92 57c21 39 35 91 37 144c0 4 4 8 8 8z
M130 356c-46 0 -61 -68 -69 -124c64 31 98 77 98 98c0 18 -16 26 -29 26z" />
    <glyph glyph-name="f" unicode="f" horiz-adv-x="183" 
d="M226 235c-2 -55 -16 -110 -39 -151c-9 -16 -19 -30 -30 -41c1 -16 1 -29 1 -41c0 -124 -23 -265 -75 -265c-76 0 -82 119 -82 213c0 22 1 55 2 92c-3 3 -6 6 -8 9c-21 25 -25 56 -25 78c0 40 8 70 23 90c3 4 6 7 10 11v1c0 5 -1 10 -1 16c-18 81 -60 169 -60 264
c0 45 0 122 58 122c67 0 62 -237 62 -354v-36c61 -16 85 -106 93 -179c6 8 12 17 18 28c21 39 35 91 37 144c0 4 4 8 8 8c5 0 8 -4 8 -9zM131 41c-5 65 -23 163 -69 184c-1 -54 -3 -130 -4 -194c9 -2 20 -3 32 -3c11 0 26 3 41 13zM-43 501c0 -49 24 -128 44 -194
c-1 33 -2 73 -2 119c0 93 27 191 -1 191c-31 0 -41 -47 -41 -116zM-14 129c0 -18 3 -42 17 -63c1 46 2 97 2 143c-12 -17 -19 -45 -19 -80zM86 -247c25 0 46 94 46 249v21c-13 -7 -26 -11 -40 -11h-1h-2v0h-1c-11 0 -21 1 -31 3c-1 -45 -1 -81 -1 -97
c0 -41 -26 -161 30 -165z" />
    <glyph glyph-name="g" unicode="g" horiz-adv-x="321" 
d="M356 244c4 0 8 -4 8 -9c-2 -45 -13 -93 -30 -133c-20 -45 -55 -77 -92 -106c-1 -17 -1 -33 -1 -46c0 -94 -17 -213 -81 -213c-25 0 -41 7 -54 20c-9 10 -21 28 -21 58c0 37 13 71 39 102c17 21 40 40 63 58v105v20c-6 -35 -40 -99 -90 -99c-154 0 -114 379 49 379
c26 0 43 -21 51 -44c18 5 51 5 51 -56c0 -14 -2 -35 -3 -58c-1 -60 -2 -140 -3 -205c32 26 61 54 77 91c17 39 27 84 29 128c0 4 4 8 8 8zM107 50c100 0 78 220 79 281c-6 13 -18 24 -39 24c-95 0 -120 -305 -40 -305zM155 -248c58 2 32 124 32 166v36
c-47 -37 -86 -76 -86 -139c0 -37 25 -63 54 -63z" />
    <glyph glyph-name="h" unicode="h" horiz-adv-x="310" 
d="M353 235c-2 -55 -16 -110 -39 -151c-8 -15 -17 -28 -27 -38v0c-24 -27 -50 -44 -78 -44c-52 0 -55 56 -55 98c0 30 11 109 11 136s7 96 -25 96c-39 0 -77 -155 -77 -206c0 -37 -8 -56 -2 -117c0 0 -6 -3 -11 -5c-17 -5 -50 -4 -50 56c0 33 6 124 7 189
c-19 82 -60 169 -60 264c0 45 0 122 58 122c76 0 61 -327 61 -399v-13c13 55 45 157 95 157c47 0 59 -46 59 -101c0 -51 -15 -162 -12 -205c2 -23 14 -39 25 -39c12 0 25 6 38 17c10 10 20 22 29 40c21 39 35 91 37 144c0 4 4 8 8 8c5 0 8 -4 8 -9zM3 619
c-31 0 -41 -47 -41 -116c0 -50 25 -132 45 -199c-1 24 -3 55 -3 124c0 93 27 191 -1 191z" />
    <glyph glyph-name="i" unicode="i" horiz-adv-x="156" 
d="M198 235c-2 -55 -16 -110 -39 -151c-8 -15 -17 -28 -27 -38v0c-24 -27 -50 -44 -78 -44c-51 0 -49 84 -49 98c0 8 6 170 0 231c-1 0 10 7 24 7c17 0 37 -10 37 -58c0 -46 -11 -149 -7 -206c3 -23 8 -39 19 -39c13 0 26 6 38 17c10 10 20 22 29 40c22 39 35 91 37 144
c1 4 4 8 9 8c4 0 8 -4 7 -9zM36 380c-24 0 -36 24 -36 45c0 15 7 30 24 30c24 0 36 -24 36 -45c0 -15 -8 -30 -24 -30z" />
    <glyph glyph-name="j" unicode="j" horiz-adv-x="145" 
d="M30 380c-23 0 -36 24 -36 45c0 15 7 30 24 30c24 0 36 -24 36 -45c0 -15 -8 -30 -24 -30zM181 244c4 0 7 -4 7 -9c-2 -45 -12 -93 -30 -133c-22 -51 -64 -85 -107 -118v-34c0 -94 -22 -213 -81 -213c-25 0 -42 7 -54 20c-10 10 -21 28 -21 58c0 37 10 61 36 92
c15 18 42 39 66 57c2 73 5 196 5 249v15c0 40 -1 79 -3 103c0 0 11 7 24 7c17 0 37 -10 37 -58c0 -29 -4 -80 -6 -129c-1 -49 -2 -102 -3 -146c38 29 74 60 92 103c17 39 27 84 29 128c0 4 4 8 9 8zM-36 -248c59 2 33 124 33 166v26c-45 -34 -86 -72 -86 -129
c0 -30 19 -62 53 -63z" />
    <glyph glyph-name="k" unicode="k" horiz-adv-x="305" 
d="M348 235c-2 -55 -16 -110 -39 -151c-8 -15 -17 -28 -27 -38v0c-24 -27 -50 -44 -78 -44h-9c-31 4 -41 28 -41 61c0 47 10 65 10 115c0 20 -7 31 -16 38c-5 -3 -10 -6 -16 -8c-19 -9 -47 -15 -65 -18c-6 -26 -9 -49 -9 -64c0 -6 -7 -66 -2 -117c0 0 -6 -3 -11 -5
c-17 -5 -50 -4 -50 56c0 33 6 124 7 189c-19 82 -60 169 -60 264c0 45 0 122 58 122c76 0 61 -325 61 -397v-14v0c6 35 46 156 99 156c38 0 49 -34 49 -63c0 -31 -14 -61 -38 -83c26 -9 47 -30 47 -73c0 -39 -5 -27 -5 -89c0 -18 3 -29 8 -34c2 -2 4 -3 7 -3
c12 0 25 6 38 17c10 10 20 22 29 40c21 39 35 91 37 144c0 4 4 8 8 8c5 0 8 -4 8 -9zM135 332c-22 0 -44 -51 -59 -104c18 6 45 12 71 10c23 28 20 94 -12 94zM-2 619c-31 0 -41 -47 -41 -116c0 -50 25 -132 45 -199c-1 24 -3 55 -3 124c0 93 27 191 -1 191zM70 203
c16 2 40 7 59 19c-20 2 -43 -5 -57 -10c-1 -3 -2 -6 -2 -9z" />
    <glyph glyph-name="l" unicode="l" horiz-adv-x="150" 
d="M193 234c-2 -56 -16 -111 -39 -152c-8 -15 -17 -28 -27 -38v0c-24 -27 -50 -44 -78 -44c-52 0 -49 84 -49 98c0 43 3 85 3 133c0 5 -1 10 -1 16c-18 81 -60 169 -60 264c0 45 0 122 58 122c68 0 61 -237 61 -354c0 -67 -8 -134 -4 -207c2 -23 5 -39 16 -39
c12 0 26 6 38 18c10 9 20 22 29 39c22 39 35 92 37 144c0 5 4 8 9 8c4 0 7 -4 7 -8zM-43 501c0 -49 24 -128 44 -194c-1 33 -2 73 -2 119c0 93 27 191 -1 191c-31 0 -41 -47 -41 -116z" />
    <glyph glyph-name="m" unicode="m" horiz-adv-x="460" 
d="M503 235c-3 -55 -17 -110 -39 -151c-9 -15 -18 -28 -28 -38v0c-23 -27 -50 -44 -78 -44c-51 0 -55 56 -55 98c0 30 11 109 11 136s7 96 -24 96c-39 0 -79 -182 -79 -233c0 -36 0 -55 3 -90c-1 0 -6 -5 -15 -5h-1v0c-35 1 -44 56 -44 96c0 30 11 109 11 136s7 96 -24 96
c-39 0 -78 -155 -78 -206c0 -37 -4 -56 2 -117c0 0 -10 -3 -15 -5c-17 -5 -50 -4 -50 56c0 35 6 135 7 201c0 27 -1 53 -2 70c-1 0 10 7 24 7c17 0 37 -10 37 -58c0 -18 -2 -44 -4 -73c11 46 52 173 99 173s60 -46 60 -101c0 -22 -3 -47 -6 -72c13 54 52 173 95 173
c48 0 60 -46 60 -101c0 -51 -16 -162 -12 -205c2 -23 13 -39 24 -39c13 0 26 6 39 17c9 10 19 22 29 40c21 39 35 91 37 144c0 4 4 8 8 8s8 -4 8 -9z" />
    <glyph glyph-name="n" unicode="n" horiz-adv-x="311" 
d="M354 235c-3 -55 -17 -110 -39 -151c-9 -15 -18 -28 -28 -38v0c-23 -27 -50 -44 -78 -44c-42 0 -52 38 -54 75c-1 8 -1 16 -1 23c0 30 11 109 11 136s7 96 -24 96c-39 0 -78 -155 -78 -206c0 -37 -4 -56 2 -117c0 0 -10 -3 -15 -5c-17 -5 -50 -4 -50 56c0 35 6 135 7 201
c0 27 -1 53 -2 70c-1 0 10 7 24 7c17 0 37 -10 37 -58c0 -18 -2 -44 -4 -73c11 46 52 173 99 173s60 -46 60 -101c0 -51 -9 -119 -12 -165v0c-1 -16 -1 -30 -1 -40c3 -23 14 -39 25 -39c13 0 26 6 38 17c10 10 20 22 30 40c21 39 34 91 37 144c0 4 3 8 8 8c4 0 8 -4 8 -9z
" />
    <glyph glyph-name="o" unicode="o" 
d="M325 242c4 -2 4 -7 2 -11c-27 -37 -76 -56 -112 -63c-2 -87 -41 -168 -114 -168c-70 0 -101 69 -101 146c0 36 7 76 20 110c-10 15 -15 33 -15 49c0 39 26 75 70 75c70 0 137 -84 140 -195c33 7 76 24 99 55c2 4 7 5 11 2zM76 356c-36 0 -47 -28 -47 -54
c0 -7 0 -13 2 -20c5 10 10 29 15 41c20 3 39 -13 39 -35c0 -16 -8 -38 -16 -64c4 -3 8 -5 11 -8c21 -15 54 -32 95 -35c-1 103 -43 175 -99 175zM123 35c44 0 52 61 52 130c-45 3 -81 22 -104 38c-2 1 -4 3 -6 4c-5 -19 -8 -39 -8 -63c0 -56 17 -109 66 -109z" />
    <glyph glyph-name="p" unicode="p" horiz-adv-x="316" 
d="M351 244c4 0 8 -4 8 -9c-4 -87 -49 -241 -159 -241c-20 0 -36 9 -50 22c-16 -9 -33 -15 -52 -15s-29 11 -38 26c-1 -23 -1 -48 -1 -77c0 -94 -10 -213 -85 -213c-25 0 -42 7 -54 20c-10 10 -21 28 -21 58c0 37 12 71 38 102c18 21 41 40 64 58v209v0v2v7
c1 50 0 107 -3 138c0 0 11 7 24 7c16 0 34 -9 37 -46c10 35 43 88 88 88c131 0 122 -273 16 -355c11 -9 23 -15 37 -15c103 0 139 147 143 226c0 4 4 8 8 8zM137 332c-39 0 -74 -71 -74 -122c0 -29 0 -73 -1 -121c6 4 12 6 20 6c21 0 34 -19 51 -39l6 -6
c59 70 64 282 -2 282zM-32 -248c59 2 33 124 33 166v36c-47 -37 -86 -76 -86 -139c0 -30 19 -62 53 -63zM97 27c11 0 21 4 30 11c-2 3 -4 5 -6 7c-15 18 -25 34 -39 34s-20 -12 -20 -23v-2v-3c6 -13 13 -24 35 -24z" />
    <glyph glyph-name="q" unicode="q" horiz-adv-x="332" 
d="M336 84c-13 -22 -27 -39 -42 -52c-2 -1 -3 -2 -5 -3c5 -9 10 -20 14 -32c12 -37 18 -85 18 -132c0 -35 -3 -64 -11 -86c-5 -16 -18 -42 -41 -42c-52 0 -81 119 -81 213c0 51 -2 98 -2 143c-9 -35 -42 -92 -89 -92c-154 0 -114 379 49 379c26 0 43 -21 51 -44
c18 5 51 5 51 -56c0 -26 -4 -70 -6 -114v-100h1c14 0 27 -8 38 -23c13 9 27 25 41 49c21 39 34 91 37 144c0 4 3 8 8 8c4 0 8 -4 8 -9c-3 -55 -17 -110 -39 -151zM243 50h-1v-22c7 1 16 2 25 7c-8 10 -16 15 -24 15zM184 172c0 2 0 4 1 6v0v0c0 37 7 95 1 153
c-6 13 -18 24 -39 24c-95 0 -120 -305 -40 -305c39 0 77 71 77 122zM287 -8c-3 11 -7 21 -11 29c-11 -5 -22 -8 -34 -9v-94c0 -41 -25 -158 28 -165v0c13 0 21 17 25 31c7 20 10 49 10 81c0 45 -6 92 -18 127z" />
    <glyph glyph-name="r" unicode="r" horiz-adv-x="250" 
d="M293 234c-3 -55 -17 -111 -39 -152c-22 -36 -57 -82 -117 -82c-35 0 -57 28 -57 62c0 72 39 188 39 239c0 10 -3 15 -11 15c-22 0 -49 -3 -71 -4c6 -32 8 -68 4 -104c-5 -40 -16 -78 -31 -110c-1 -3 -3 -5 -6 -5c-1 0 -2 1 -3 1c-4 2 -5 7 -3 11c28 60 36 142 23 207
c-28 0 -47 17 -47 49c0 14 9 17 22 17c14 0 30 -19 38 -50c27 0 62 7 78 7c36 0 61 -23 61 -52c0 -39 -33 -151 -33 -213c0 -9 -3 -33 12 -33c41 0 73 28 88 53c21 39 34 92 37 144c0 5 4 8 8 8s8 -4 8 -8z" />
    <glyph glyph-name="s" unicode="s" horiz-adv-x="225" 
d="M229 84c-33 -60 -91 -82 -166 -82c-35 0 -63 15 -63 41c0 9 4 15 13 16c7 -28 29 -39 52 -39c29 0 33 19 33 50c0 60 -85 114 -85 209c0 78 43 102 61 102c15 0 29 -10 29 -26c0 -14 -10 -51 -54 -51c-52 0 101 -129 101 -209c0 -25 -6 -46 -18 -63c37 10 64 24 83 60
c21 39 35 91 37 144c0 4 4 8 8 8c5 0 8 -4 8 -9c-2 -55 -16 -110 -39 -151z" />
    <glyph glyph-name="t" unicode="t" horiz-adv-x="172" 
d="M215 234c-2 -56 -16 -111 -39 -152c-8 -15 -17 -28 -27 -38v0c-24 -27 -50 -44 -78 -44c-52 0 -49 84 -49 98c0 55 1 162 1 246c-31 1 -34 5 -50 10c-30 9 -9 26 -9 26c19 -8 25 -15 60 -16v83c0 1 8 8 21 8c17 0 37 -11 37 -58v-27c9 2 17 4 25 8c24 9 34 -8 4 -20
c-9 -4 -19 -7 -30 -9c-2 -82 -9 -232 -5 -277c2 -23 8 -39 19 -39c12 0 25 6 38 18c10 9 19 22 29 39c21 39 35 92 37 144c0 5 4 8 8 8c5 0 8 -4 8 -8z" />
    <glyph glyph-name="u" unicode="u" horiz-adv-x="308" 
d="M350 235c-2 -55 -16 -110 -39 -151c-8 -15 -17 -28 -27 -38v0c-24 -27 -50 -44 -78 -44c-63 0 -52 137 -48 182c-6 -35 -41 -182 -101 -182c-47 0 -59 46 -59 101c0 51 16 162 12 205c-2 23 -13 39 -24 39c-13 0 -4 33 23 33c52 0 55 -56 55 -98c0 -30 -11 -109 -11 -136
s-7 -96 25 -96c39 0 77 155 77 206c0 37 8 56 2 116c0 1 6 4 11 6c17 5 50 4 50 -56c0 -81 -7 -149 -7 -248c0 -22 8 -39 19 -39c13 0 26 6 38 17c10 10 20 22 29 40c22 39 35 91 37 144c1 4 4 8 9 8c4 0 8 -4 7 -9z" />
    <glyph glyph-name="v" unicode="v" horiz-adv-x="275" 
d="M313 243c4 -2 5 -7 3 -11c-16 -32 -38 -47 -72 -47c-9 0 -18 1 -26 3c-5 1 -10 3 -15 5c-14 -89 -46 -191 -117 -191c-75 0 -73 133 -78 183c-4 37 -5 75 -9 110c-4 31 -19 52 -30 52c-13 0 -4 33 23 33c41 0 59 -36 64 -70c7 -49 9 -107 13 -158v0
c6 -65 16 -117 48 -117c28 0 57 74 72 165c-10 7 -18 14 -25 24c-15 21 -27 54 -27 88c0 61 19 94 42 94c14 0 22 -16 26 -25c4 -12 7 -27 8 -45c1 -5 1 -11 1 -19c0 -15 -2 -58 -8 -107c5 -3 10 -5 15 -6c33 -8 64 3 81 35c2 4 7 6 11 4zM157 315c0 -40 12 -75 35 -95
c4 30 6 61 6 92v1c0 31 -7 63 -21 63c-6 0 -20 -13 -20 -61z" />
    <glyph glyph-name="w" unicode="w" horiz-adv-x="434" 
d="M472 243c4 -2 5 -7 3 -11c-13 -28 -42 -47 -75 -47c-9 0 -18 1 -27 3c-5 1 -9 3 -14 5c-14 -89 -46 -191 -117 -191c-38 0 -57 32 -67 78c-15 -43 -42 -78 -93 -78c-75 0 -72 130 -77 183c-3 37 -6 75 -10 110c-4 31 -19 52 -30 52c-13 0 -4 33 23 33c41 0 59 -36 64 -70
c7 -49 9 -107 13 -158v0c6 -65 16 -117 48 -117c26 0 46 25 56 83c-3 25 -5 51 -6 78c-5 12 -9 25 -14 37c-21 57 -35 99 -30 123c0 2 1 4 1 6c1 2 2 5 4 7c2 3 5 6 10 8c4 2 9 3 14 3c41 0 59 -36 64 -70c15 -112 4 -275 61 -275c28 0 57 74 72 165c-10 7 -19 14 -25 24
c-15 21 -27 54 -27 88c0 61 19 94 42 94c14 0 22 -16 25 -25c5 -12 8 -27 9 -45c0 -5 1 -11 1 -19c0 -15 -2 -58 -9 -107c5 -3 11 -5 16 -6c33 -8 67 3 84 35c2 4 7 6 11 4zM139 315c4 -19 12 -40 20 -62c-1 14 -2 28 -4 42c-3 23 -12 40 -21 47c0 -6 2 -15 5 -27zM313 315
c0 -40 12 -75 34 -95c4 30 7 61 7 92v1c0 31 -7 63 -21 63c-6 0 -20 -13 -20 -61z" />
    <glyph glyph-name="x" unicode="x" horiz-adv-x="339" 
d="M382 233c-2 -55 -16 -110 -39 -151c-8 -15 -17 -28 -27 -39v0c-24 -26 -50 -44 -78 -44c-48 0 -84 49 -114 109c-24 -54 -53 -96 -92 -96c-27 0 -33 33 -14 36c29 -13 62 38 90 98c-28 66 -50 137 -73 173c9 -39 10 -86 3 -132c-1 -4 -5 -7 -8 -7h-2c-4 1 -6 6 -5 10
c9 56 4 111 -12 153c-1 1 -3 1 -5 2c0 0 -10 33 34 33s74 -71 103 -149c32 78 68 149 132 149c5 0 8 -3 8 -8c0 -4 -3 -12 -8 -12c-27 0 -51 -16 -73 -53c-14 -21 -29 -63 -46 -113c30 -82 60 -159 106 -159c12 0 25 6 38 17c10 9 20 22 29 39c21 39 35 92 37 145
c0 4 4 8 8 7c5 0 8 -3 8 -8z" />
    <glyph glyph-name="y" unicode="y" horiz-adv-x="289" 
d="M324 244c4 0 8 -4 7 -9c-1 -45 -12 -93 -30 -133c-19 -45 -54 -77 -92 -106v-46c0 -94 -18 -213 -81 -213c-25 0 -41 7 -54 20c-9 10 -21 28 -21 58c0 37 13 71 38 102c18 21 41 40 64 58c0 56 -1 130 -1 187c-11 -51 -44 -160 -97 -160c-47 0 -59 46 -59 101
c0 51 16 144 12 187c-2 23 -13 39 -24 39c-13 0 -4 33 23 33c52 0 55 -56 55 -98c0 -30 -11 -91 -11 -118s-7 -96 25 -96c70 0 88 270 79 322c0 1 6 4 11 6c17 5 50 4 50 -56c0 -25 -3 -83 -6 -138c0 -54 -2 -115 -2 -167c32 26 61 54 77 91c16 39 27 84 28 128c1 4 4 8 9 8
zM123 -248c58 0 32 124 32 166v36c-47 -37 -86 -76 -86 -139c0 -38 20 -63 54 -63z" />
    <glyph glyph-name="z" unicode="z" horiz-adv-x="298" 
d="M333 244c4 0 8 -4 8 -8c-2 -46 -13 -94 -31 -134c-19 -45 -56 -78 -94 -108c2 -14 2 -29 2 -44c0 -94 -14 -213 -81 -213c-44 0 -75 32 -75 78c0 37 13 71 39 102c17 21 40 40 63 58c-5 82 -40 91 -116 98c0 0 -12 56 32 56c103 0 128 144 128 192c-13 -1 -26 -1 -105 -1
c-76 0 -61 -19 -61 -84c0 -19 -16 -22 -16 0c0 80 -56 143 65 143c52 0 70 -1 140 -1c0 -107 -30 -245 -110 -263c16 -4 30 -10 45 -19c28 -20 41 -50 48 -83c33 26 65 56 82 95s27 84 29 128c0 5 3 8 8 8zM132 -248c57 0 32 124 32 166c0 10 1 23 1 37
c-48 -37 -87 -77 -87 -140c0 -43 26 -63 54 -63z" />
    <glyph glyph-name="A_swsh" horiz-adv-x="822" 
d="M655 157c66 -266 144 -348 255 -348c145 0 171 150 143 159c38 20 28 -175 -150 -175c-98 0 -212 51 -262 179c-20 52 -55 185 -55 185h-251l-45 -129c-25 -66 -62 -155 -166 -155c-70 0 -118 42 -118 110c0 156 148 214 298 214l132 371c6 17 12 30 19 40
c0 0 -44 177 -97 130c-15 -11 -22 19 24 26c-73 45 -143 91 -202 93c-71 1 -131 -20 -172 -59c-35 -34 -56 -82 -57 -134s18 -103 51 -142c26 -29 76 -65 154 -67c59 -1 112 15 152 45c23 16 40 37 53 61c13 26 21 57 22 92c0 5 3 8 8 8c4 0 8 -3 8 -8
c-2 -71 -30 -128 -82 -166c-43 -32 -98 -49 -161 -48c-84 2 -138 41 -166 73c-37 41 -57 97 -55 153c1 56 23 108 62 145c44 42 107 64 183 63c86 -2 166 -53 241 -91c128 -66 186 -61 217 -43c7 4 0 11 5 11c11 -1 16 -24 11 -36c-13 -28 -46 -34 -78 -33
c-27 1 -54 7 -82 18c1 -1 1 -2 1 -2l150 -500l51 1c43 0 40 -37 34 -47c-8 -12 0 6 -6 6h-69zM253 50l34 106c-133 0 -262 -74 -262 -176c0 -62 62 -94 99 -94c63 0 111 117 129 164zM352 197h219l-96 355z" />
    <glyph glyph-name="B_swsh" horiz-adv-x="1292" 
d="M925 579c-6 8 -24 13 -24 -11l-1 -217c2 10 5 21 8 32c19 77 41 164 17 196zM1045 205c71 -11 170 -50 170 -176c0 -116 -94 -200 -263 -200c-80 0 -199 43 -199 170c0 54 45 111 86 124c1 12 2 21 1 388c0 105 75 122 106 83c30 -42 9 -127 -14 -217
c-12 -47 -24 -96 -27 -134l-3 -36l-3 -34v-42h5c113 0 91 -110 62 -85c2 1 19 14 -1 25c-50 27 -174 17 -174 -94c0 -88 79 -130 165 -130c119 0 199 74 199 179c0 139 -110 153 -182 153c-21 0 -41 21 -6 21c54 0 217 100 217 267c0 311 -549 320 -549 40
c0 -102 87 -163 98 -194c11 -30 4 -53 -5 -68c-5 -9 -12 -16 -21 -21c-2 -2 -4 -2 -4 -2c-15 -7 -34 -9 -52 -8c-141 3 -292 173 -407 176c-71 1 -131 -20 -171 -59c-36 -34 -57 -82 -58 -134s18 -103 51 -142c26 -29 77 -65 154 -67c59 -1 112 15 152 45c23 16 40 37 53 61
c13 26 21 57 22 92c0 5 3 8 8 8c4 0 8 -3 8 -8c-2 -71 -30 -128 -82 -166c-42 -33 -98 -49 -161 -48c-84 2 -138 41 -166 73c-37 41 -56 97 -55 153s23 108 62 145c44 42 107 64 183 63c86 -2 166 -53 241 -91c92 -48 153 -58 192 -54c-32 36 -88 125 -88 239
c0 313 654 299 654 -30c0 -126 -124 -248 -198 -265z" />
    <glyph glyph-name="C_swsh" horiz-adv-x="1106" 
d="M1000 37c20 16 80 -24 39 -89c-19 -31 -78 -115 -220 -115c-186 0 -279 145 -279 371c0 42 5 87 15 131c-109 48 -218 148 -306 151c-71 1 -131 -20 -171 -59c-36 -34 -57 -82 -58 -134s18 -103 51 -142c26 -29 77 -65 154 -67c59 -1 112 15 152 45c23 16 40 37 53 61
c13 26 21 57 22 92c0 5 3 8 8 8c4 0 8 -3 8 -8c-2 -71 -30 -128 -82 -166c-42 -33 -98 -49 -161 -48c-84 2 -138 41 -166 73c-37 41 -56 97 -55 153s23 108 62 145c44 42 107 64 183 63c86 -2 166 -53 241 -91c28 -15 53 -26 76 -34c52 177 179 338 355 338
c84 0 148 -53 148 -155c0 -144 -162 -267 -292 -267c-22 0 -59 3 -66 26c-22 -11 -70 -13 -96 -7c-7 -37 -10 -73 -10 -108c0 -168 86 -355 221 -355c99 0 187 111 187 179c0 16 -19 4 -13 9zM723 379c6 -1 11 -9 12 -18l17 -11c73 -47 284 82 284 214
c0 97 -72 132 -125 132c-123 0 -244 -166 -287 -338c32 -4 71 -1 86 6c2 8 6 15 11 15h1h1z" />
    <glyph glyph-name="D_swsh" horiz-adv-x="1377" 
d="M956 594c-6 8 -27 12 -27 -21c0 -1 0 33 -1 -220c3 14 7 29 11 43c10 41 21 84 25 120c5 38 2 63 -8 78zM249 408c86 -2 166 -53 241 -91c95 -49 157 -59 195 -54c-31 34 -94 119 -94 234c0 305 723 351 723 -116c0 -336 -221 -542 -388 -542c-66 0 -152 35 -152 138
c0 56 47 101 93 121c1 27 1 62 1 433c0 96 57 135 104 75c30 -41 8 -125 -14 -215c-12 -47 -24 -96 -27 -135l-3 -36v-1c-1 -66 -1 -94 -2 -113c116 -10 96 -115 68 -90c3 0 17 10 -1 24c-44 36 -174 20 -174 -78c0 -51 45 -108 113 -108c108 0 326 140 326 525
c0 443 -629 399 -629 125c0 -102 86 -173 98 -204c18 -49 1 -63 -8 -70c-6 -4 -8 -6 -9 -5c-15 -8 -35 -10 -54 -9c-141 3 -292 173 -407 176c-71 1 -131 -20 -171 -59c-36 -34 -57 -82 -58 -134s18 -103 51 -142c26 -29 77 -65 154 -67c59 -1 112 15 152 45
c23 16 40 37 53 61c13 26 21 57 22 92c0 5 3 8 8 8c4 0 8 -3 8 -8c-2 -71 -30 -128 -82 -166c-42 -33 -98 -49 -161 -48c-84 2 -138 41 -166 73c-37 41 -56 97 -55 153s23 108 62 145c44 42 107 64 183 63z" />
    <glyph glyph-name="E_swsh" horiz-adv-x="945" 
d="M675 -174c-113 0 -206 70 -206 192c0 85 66 150 122 179c-51 32 -99 86 -99 188c0 19 2 39 6 58c-82 50 -180 109 -248 111c-71 1 -131 -20 -171 -59c-36 -34 -57 -82 -58 -134s18 -103 51 -142c26 -29 77 -65 154 -67c59 -1 112 15 152 45c23 16 40 37 53 61
c13 26 21 57 22 92c0 5 3 8 8 8c4 0 8 -3 8 -8c-2 -71 -30 -128 -82 -166c-42 -33 -98 -49 -161 -48c-84 2 -138 41 -166 73c-37 41 -56 97 -55 153s23 108 62 145c44 42 107 64 183 63c86 -2 184 -53 258 -91c41 124 140 236 277 236c107 0 154 -58 154 -124
c0 -55 -35 -181 -151 -181c-25 0 -62 18 -70 45c1 -70 -99 -78 -171 -36v-17c0 -88 87 -189 138 -194c23 -5 31 -10 31 -27c0 -25 -14 -16 -28 -17c-49 -6 -164 -31 -164 -156c0 -97 88 -165 153 -165c151 0 203 120 203 176c0 15 -18 -3 -12 6c12 20 41 -10 41 -36
c0 -61 -85 -163 -234 -163zM714 500c2 8 5 14 9 14h1c19 -6 -15 -54 48 -54c82 0 127 86 127 132c0 49 -23 107 -114 107c-121 0 -211 -110 -233 -237c84 -34 169 13 162 38z" />
    <glyph glyph-name="F_swsh" horiz-adv-x="1198" 
d="M896 -25c-10 -103 37 -249 53 -37v213c-27 -48 -46 -112 -53 -176zM1320 751c8 0 14 -27 14 -44c0 -42 -33 -45 -80 -45c-21 0 -172 2 -245 4v-441s114 -6 104 10c-11 19 9 16 8 -4c-1 -21 13 -64 -70 -64h-42v-244c0 -105 -28 -160 -73 -160c-66 0 -70 164 -65 214
c7 69 29 140 59 190h-43c-25 0 -44 28 -44 53c0 13 7 5 19 5h87v438c-167 -11 -369 -22 -369 -208c0 -119 86 -208 147 -155c11 9 -6 20 6 18c16 -4 23 -47 -13 -68c-16 -12 -40 -15 -63 -14c-141 3 -292 173 -407 176c-71 1 -131 -20 -171 -59c-36 -34 -57 -82 -58 -134
s18 -103 51 -142c26 -29 77 -65 154 -67c59 -1 112 15 152 45c23 16 40 37 53 61c13 26 21 57 22 92c0 5 3 8 8 8c4 0 8 -3 8 -8c-2 -71 -30 -128 -82 -166c-42 -33 -98 -49 -161 -48c-84 2 -138 41 -166 73c-37 41 -56 97 -55 153s23 108 62 145c44 42 107 64 183 63
c86 -2 166 -53 241 -91c51 -27 93 -42 126 -49c-33 37 -61 95 -61 168c0 171 147 269 433 269c65 0 270 -2 295 -2c44 0 32 28 36 28z" />
    <glyph glyph-name="G_swsh" horiz-adv-x="1187" 
d="M1032 -66c-86 1 -212 -54 -212 -171c0 -48 42 -86 81 -86c92 0 131 146 131 257zM819 -32c-151 0 -227 123 -227 308c0 48 9 99 27 149c-183 45 -282 154 -373 157c-71 1 -131 -20 -171 -59c-36 -34 -57 -82 -58 -134s18 -103 51 -142c26 -29 77 -65 154 -67
c59 -1 112 15 152 45c23 16 40 37 53 61c13 26 21 57 22 92c0 5 3 8 8 8c4 0 8 -3 8 -8c-2 -71 -30 -128 -82 -166c-42 -33 -98 -49 -161 -48c-84 2 -138 41 -166 73c-37 41 -56 97 -55 153s23 108 62 145c44 42 107 64 183 63c86 -2 166 -53 241 -91
c42 -22 100 -36 147 -44c62 136 179 252 347 252c88 0 155 -47 155 -123c0 -108 -148 -200 -255 -200c-22 0 -40 8 -49 25c-16 -9 -37 -11 -57 -11c-29 0 -66 1 -91 4c-11 -42 -26 -87 -26 -133c0 -183 86 -286 164 -286c150 0 222 243 222 330c0 18 -23 -2 -22 5
c2 17 80 12 80 -36c0 -135 -6 -190 -6 -323c24 3 110 -6 69 14c-22 11 37 24 2 -49c-8 -14 -17 3 -73 5c-5 -110 -29 -280 -171 -280c-82 0 -135 51 -135 116c0 102 132 189 247 189v10c0 42 1 190 7 213c-35 -131 -148 -217 -223 -217zM831 461c2 8 6 14 11 14
c7 -1 12 -11 13 -21h5c64 0 248 45 248 133c0 74 -57 107 -136 107c-110 0 -225 -101 -275 -241c57 -3 114 1 134 8z" />
    <glyph glyph-name="H_swsh" horiz-adv-x="1405" 
d="M1296 614v-249c16 33 31 74 42 114c19 75 21 138 4 171c-26 54 -46 19 -46 -36zM1238 233c0 0 -81 -78 -235 -95l-2 -232c0 -47 -28 -61 -69 -57c-14 2 -30 8 -18 14c3 -8 28 -8 28 11c1 6 1 78 1 85v176c-88 9 -86 8 -119 22c-23 11 -22 41 -9 68c6 12 0 -2 10 -8
c0 0 59 -32 118 -37v326c0 96 -48 193 -146 193c-81 0 -185 -58 -185 -196c0 -101 103 -177 115 -208c18 -49 -7 -58 -16 -65c-18 -12 -40 -14 -62 -13c-141 3 -292 173 -407 176c-71 1 -131 -20 -171 -59c-36 -34 -57 -82 -58 -134s18 -103 51 -142c26 -29 77 -65 154 -67
c59 -1 112 15 152 45c23 16 40 37 53 61c13 26 21 57 22 92c0 5 3 8 8 8c4 0 8 -3 8 -8c-2 -71 -30 -128 -82 -166c-42 -33 -98 -49 -161 -48c-84 2 -138 41 -166 73c-37 41 -56 97 -55 153s23 108 62 145c44 42 107 64 183 63c86 -2 166 -53 241 -91
c92 -48 154 -58 193 -54c-32 35 -99 119 -99 232c0 122 72 219 221 219c73 -1 205 -45 205 -206v-332c121 0 235 75 235 107v286c1 85 -4 136 53 136c33 0 59 -15 73 -44c27 -54 10 -142 -2 -189c-16 -60 -41 -121 -66 -160v-259c0 -126 41 -250 166 -250
c102 0 140 79 140 116c0 28 -8 4 -16 11c0 10 28 14 28 -9c0 -91 -91 -138 -157 -138c-179 0 -209 120 -218 254z" />
    <glyph glyph-name="I_swsh" horiz-adv-x="1041" 
d="M849 -112c31 -46 38 50 37 64v152c-28 -85 -58 -180 -37 -216zM249 424c86 -2 166 -53 241 -91c92 -48 153 -58 192 -54c-32 35 -99 121 -99 235c0 96 38 201 187 201c73 0 175 -45 175 -206v-571c-1 -69 -68 -138 -117 -63c-28 46 3 140 35 239l23 73v319
c0 96 -19 192 -117 192c-80 0 -141 -47 -141 -172c0 -102 82 -193 100 -221c23 -35 -7 -73 -72 -73c-141 3 -292 173 -407 176c-71 1 -131 -20 -171 -59c-36 -34 -57 -82 -58 -134s18 -103 51 -142c26 -29 77 -65 154 -67c59 -1 112 15 152 45c23 16 40 37 53 61
c13 26 21 57 22 92c0 5 3 8 8 8c4 0 8 -3 8 -8c-2 -71 -30 -128 -82 -166c-42 -33 -98 -49 -161 -48c-84 2 -138 41 -166 73c-37 41 -56 97 -55 153s23 108 62 145c44 42 107 64 183 63z" />
    <glyph glyph-name="J_swsh" horiz-adv-x="1097" 
d="M857 -192c48 -65 92 6 92 50v278v64v9c-10 -29 -22 -61 -35 -93c-23 -61 -48 -124 -61 -180c-15 -60 -13 -102 4 -128zM246 407c86 -2 166 -53 241 -91c96 -50 159 -59 198 -53c-31 33 -102 117 -102 234c0 121 72 218 221 218c74 0 205 -45 205 -206v-645
c-2 -97 -120 -144 -173 -70c-21 32 -24 80 -8 148c14 58 39 121 63 183c26 66 50 128 56 172c0 2 1 4 2 6v203c0 96 -47 191 -146 191c-81 0 -185 -56 -185 -193c0 -102 94 -179 105 -210c23 -61 -10 -82 -70 -79c-141 3 -292 173 -407 176c-71 1 -131 -20 -171 -59
c-36 -34 -57 -82 -58 -134s18 -103 51 -142c26 -29 77 -65 154 -67c59 -1 112 15 152 45c23 16 40 37 53 61c13 26 21 57 22 92c0 5 3 8 8 8c4 0 8 -3 8 -8c-2 -71 -30 -128 -82 -166c-42 -33 -98 -49 -161 -48c-84 2 -138 41 -166 73c-37 41 -56 97 -55 153s23 108 62 145
c44 42 107 64 183 63z" />
    <glyph glyph-name="K_swsh" horiz-adv-x="1355" 
d="M906 -88c24 -26 49 -3 49 26v198v4c-7 -23 -15 -46 -23 -67c-23 -69 -46 -139 -26 -161zM251 408c86 -2 166 -53 241 -91c94 -49 157 -59 195 -54c-31 34 -100 119 -100 234c0 121 72 218 221 218c73 0 205 -45 205 -206v-567c-5 -60 -90 -121 -128 -45
c-21 42 -3 106 24 184c20 59 39 118 46 172v253c0 96 -50 191 -148 191c-81 0 -177 -60 -177 -197c0 -102 88 -168 100 -199c18 -49 0 -64 -9 -71c-18 -12 -40 -15 -63 -14c-141 3 -292 173 -407 176c-123 4 -227 -70 -229 -193c-2 -113 73 -206 205 -209
c124 -1 223 72 227 198c0 5 3 8 8 8c4 0 8 -3 8 -8c-4 -137 -111 -216 -243 -214c-143 3 -223 104 -221 226c2 134 112 210 245 208zM1282 34c1 -146 21 -230 130 -230c102 0 129 91 129 128c0 28 -8 4 -16 11c0 10 28 14 28 -9c0 -91 -69 -150 -146 -150
c-148 0 -181 94 -183 220c0 175 -106 180 -179 180c-21 0 -40 22 -6 22c55 0 165 83 165 251c0 88 -20 270 62 270c55 0 53 -30 46 -38c-5 6 3 13 -7 13c-69 0 -45 -114 -45 -243c0 -126 -69 -231 -143 -248c71 -12 165 -35 165 -177z" />
    <glyph glyph-name="L_swsh" horiz-adv-x="1277" 
d="M1090 572v-262c82 34 133 128 137 220c3 56 -11 162 -90 162c-38 0 -47 -80 -47 -120zM1005 -161c30 0 29 28 29 50v67v1c-36 7 -93 -3 -93 -52c0 -42 41 -66 64 -66zM250 505c86 -2 166 -53 241 -91c128 -66 220 -59 235 -33c7 13 36 24 82 8c31 -11 109 -100 211 -100
c5 0 10 0 15 1c0 70 1 150 1 196c0 159 46 233 96 233c95 0 122 -107 117 -190c0 -108 -50 -217 -158 -264v-293c140 -24 263 -119 360 -119c76 0 91 49 80 62c5 10 18 0 18 -24s-9 -83 -108 -83c-98 0 -233 92 -350 134c-7 -77 -31 -123 -71 -123c-84 0 -101 62 -101 83
c0 53 37 79 116 79v265c-8 0 -15 -1 -22 -1c-144 0 -249 100 -276 120c1 -7 1 -14 -1 -19c-13 -28 -46 -34 -78 -33c-141 3 -292 173 -407 176c-71 1 -131 -20 -171 -59c-36 -34 -57 -82 -58 -134s18 -103 51 -142c26 -29 77 -65 154 -67c59 -1 112 15 152 45
c23 16 40 37 53 61c13 26 21 57 22 92c0 5 3 8 8 8c4 0 8 -3 8 -8c-2 -71 -30 -128 -82 -166c-42 -33 -98 -49 -161 -48c-84 2 -138 41 -166 73c-37 41 -56 97 -55 153s23 108 62 145c44 42 107 64 183 63z" />
    <glyph glyph-name="M_swsh" horiz-adv-x="1568" 
d="M1017 737c-14 -15 -6 -111 32 -176l12 97c0 19 -2 125 -44 79zM1199 -31c2 3 4 8 5 21c-4 -10 -5 -18 -6 -23c0 1 1 1 1 2zM1464 748c-17 -50 -26 -116 -28 -196c24 44 45 81 65 132c13 35 15 62 4 74c-12 16 -34 5 -41 -10zM1436 496c10 -65 -17 -692 235 -692
c102 0 140 79 140 116c0 28 -8 4 -16 11c0 10 28 14 28 -9c0 -91 -91 -138 -157 -138c-252 0 -273 383 -285 607c-45 -95 -103 -220 -157 -347c9 -45 9 -73 -2 -90c-6 -8 -15 -17 -34 -17c-39 0 -2 86 8 109c-30 102 -72 199 -118 317l-25 -180c-23 -120 -84 -299 -252 -299
c-120 0 -204 91 -204 196c0 96 40 161 72 200c-148 -10 -304 173 -424 176c-123 4 -227 -70 -229 -193c-2 -113 73 -206 205 -209c123 -2 223 69 227 198c0 5 3 8 8 8c4 0 8 -3 8 -8c-4 -137 -111 -216 -243 -214c-143 3 -223 104 -221 226c2 134 112 210 245 208
c86 -2 166 -53 241 -91c128 -66 218 -77 228 -43l3 10c1 2 2 2 10 -2c11 -7 27 -36 13 -91c-9 -34 -100 -73 -100 -182c0 -108 83 -169 173 -169c99 0 163 122 177 222l51 379c-24 61 -58 127 -58 196c0 52 19 74 61 74c28 0 81 -52 71 -163l-29 -198
c38 -106 93 -204 126 -327l6 14c37 85 111 241 162 352c-4 101 -24 315 94 339c72 14 72 -67 52 -118c-27 -68 -55 -114 -90 -178z" />
    <glyph glyph-name="N_swsh" horiz-adv-x="1533" 
d="M1001 616c6 -17 11 -36 19 -55l4 97s6 80 -30 83c-1 -2 -4 -3 -6 -4c-5 -3 -19 -20 13 -121zM245 472c86 -2 166 -53 241 -91c128 -66 218 -77 228 -43l3 10c1 2 2 2 10 -2c11 -7 26 -36 12 -91c-9 -34 -94 -73 -94 -182c0 -108 80 -171 170 -171c99 0 163 123 172 224
l24 379c-24 61 -51 127 -57 196c-3 41 16 68 61 74c28 2 80 -23 70 -134l-16 -158c58 -138 271 -373 306 -513l3 34c13 161 -67 822 202 822c89 0 104 -60 82 -76c3 15 -11 56 -65 56c-111 0 -158 -54 -158 -617c0 -112 7 -351 -103 -351c-5 0 -12 4 -15 8c-6 12 15 2 26 28
c54 129 -200 406 -286 558c-6 -332 -92 -548 -260 -548c-120 0 -204 91 -204 196c0 96 40 161 72 200c-5 -1 -11 0 -17 0c-141 3 -292 173 -407 176c-123 4 -227 -70 -229 -193c-2 -113 73 -206 205 -209c124 -1 223 72 227 198c0 5 3 8 8 8c4 0 8 -3 8 -8
c-4 -137 -111 -216 -243 -214c-143 3 -223 104 -221 226c2 134 112 210 245 208z" />
    <glyph glyph-name="O_swsh" horiz-adv-x="1290" 
d="M244 560c86 -2 166 -53 241 -91c111 -57 192 -61 227 -50c0 86 75 299 253 299c131 0 240 -189 240 -428c0 -263 -89 -444 -237 -444c-145 0 -229 153 -229 404s103 385 175 385c49 0 51 -85 37 -85c-4 0 9 15 -7 15c-92 0 -154 -153 -154 -336c0 -204 79 -364 185 -364
c111 0 173 203 173 426c0 209 -81 403 -195 403c-126 0 -219 -153 -222 -287c-10 -33 -46 -40 -80 -39c-141 3 -292 173 -407 176c-123 4 -227 -70 -229 -193c-2 -113 73 -206 205 -209c123 -2 223 69 227 198c0 5 3 8 8 8c4 0 8 -3 8 -8c-4 -137 -111 -216 -243 -214
c-143 3 -223 104 -221 226c2 134 112 210 245 208z" />
    <glyph glyph-name="P_swsh" horiz-adv-x="1237" 
d="M826 -153c1 10 1 167 1 256c-2 -5 -4 -9 -6 -13c-17 -45 -39 -100 -53 -151c-15 -57 -15 -96 -2 -116c18 -29 56 -6 60 24zM247 410c152 -4 281 -160 436 -145c-32 33 -86 108 -86 198c0 160 143 254 300 254c174 0 307 -69 307 -258c0 -125 -103 -262 -239 -262
c-27 -1 -56 4 -78 20c0 -79 -1 -339 -2 -356c-2 -76 -98 -113 -139 -52c-19 27 -19 71 -2 136c21 81 65 155 83 238v387c0 28 -2 51 36 51c16 0 33 2 33 -9c0 -3 -7 5 -7 -15l-1 -231c18 16 43 25 70 24c105 -6 74 -87 51 -68c2 1 19 8 5 19c-33 26 -127 25 -127 -70
c7 -23 30 -48 66 -53c119 0 198 122 198 239c0 163 -106 244 -248 244c-104 0 -262 -63 -262 -225c0 -101 73 -151 85 -182c18 -49 0 -55 -9 -62c-18 -12 -40 -15 -63 -14c-141 3 -292 173 -407 176c-123 4 -227 -70 -229 -193c-2 -113 73 -206 205 -209
c113 -1 223 69 227 198c0 5 3 8 8 8c4 0 8 -3 8 -8c-4 -137 -111 -216 -243 -214c-143 3 -223 104 -221 226c2 134 112 210 245 208z" />
    <glyph glyph-name="Q_swsh" horiz-adv-x="1246" 
d="M922 601c-89 0 -196 -127 -196 -315c0 -213 70 -340 160 -417c133 32 194 218 194 399c0 191 -73 333 -158 333zM1224 -18c53 -11 6 -195 -164 -195c-58 0 -132 16 -177 52c-185 -3 -287 191 -287 423c0 161 52 282 118 357c-205 8 -330 164 -466 164
c-123 4 -227 -70 -229 -193c-2 -113 73 -206 205 -209c124 -1 224 78 227 198c0 5 3 8 8 8c4 0 8 -3 8 -8c-4 -137 -111 -216 -243 -214c-143 3 -223 104 -221 226c2 134 112 210 245 208c171 -4 274 -158 488 -158c40 36 62 56 101 56c23 0 36 -12 36 -27
c0 -52 -38 -55 -83 -54c-9 0 -19 1 -30 3c-68 -71 -106 -224 -106 -357c0 -309 159 -397 201 -401c-94 74 -153 255 -153 417c0 196 95 345 221 345c114 0 213 -139 213 -356c0 -205 -105 -394 -227 -416c33 -31 111 -44 152 -44c122 0 148 98 148 155c-1 19 -9 5 -14 10
c-6 7 0 16 29 10z" />
    <glyph glyph-name="R_swsh" horiz-adv-x="1287" 
d="M957 584c-6 9 -26 13 -26 -7l-1 -195c3 12 6 24 10 36c18 68 38 138 17 166zM1162 20v12c0 138 -148 152 -221 152c-4 0 -8 1 -12 2c0 -48 0 -168 -2 -186c0 -48 -25 -78 -66 -69c-14 3 -30 16 -18 28c3 -15 28 -17 28 24c1 13 1 165 1 587c2 57 74 73 106 29
c34 -51 0 -134 -14 -188c-13 -46 -26 -93 -29 -133l-6 -67v-6c2 1 4 1 6 1c54 0 257 85 257 253c0 134 -136 240 -278 240c-147 0 -275 -49 -275 -194c0 -101 87 -181 98 -212c22 -62 -23 -80 -86 -78c-141 3 -292 173 -407 176c-123 4 -227 -70 -229 -193
c-2 -113 73 -206 205 -209c113 -1 223 69 227 198c0 5 3 8 8 8c4 0 8 -3 8 -8c-4 -137 -111 -216 -243 -214c-143 3 -223 104 -221 226c2 134 112 210 245 208c86 -2 166 -53 241 -91c97 -50 160 -60 198 -53c-30 31 -87 116 -87 235c0 116 86 219 312 219
c174 0 338 -84 338 -258c0 -126 -124 -231 -198 -248c71 -12 171 -35 171 -177c3 -150 22 -230 128 -230c102 0 129 102 129 139c0 28 -8 4 -16 11c0 10 28 14 28 -9c0 -91 -56 -161 -146 -161c-138 0 -179 63 -180 236z" />
    <glyph glyph-name="S_swsh" horiz-adv-x="1190" 
d="M246 675c107 -3 221 -86 353 -127c-2 11 -3 24 -3 37c0 120 78 206 212 206c124 0 204 -88 204 -180c0 -73 -31 -112 -86 -115c-24 0 -44 12 -50 22c0 -20 3 -46 -36 -57c-35 -10 -118 7 -133 8c100 -93 425 -127 425 -349c0 -178 -147 -275 -302 -275
c-224 0 -324 116 -324 256c0 67 25 104 66 104c46 0 46 -22 44 -27c-3 -17 -44 29 -44 -87c0 -101 46 -224 263 -224c169 0 236 126 236 245c0 199 -370 195 -456 378c-164 45 -281 166 -369 169c-123 -2 -227 -73 -229 -193c-2 -122 96 -206 205 -209
c124 -1 224 78 227 198c0 5 3 8 8 8c4 0 8 -3 8 -8c-4 -137 -119 -216 -243 -214c-129 3 -223 105 -221 226c2 138 124 208 245 208zM872 574c9 -10 90 -31 90 39s-36 152 -155 152c-68 0 -153 -54 -153 -152c0 -34 4 -61 18 -85c135 -22 195 -8 191 22c-3 23 9 24 9 24z
" />
    <glyph glyph-name="T_swsh" horiz-adv-x="1113" 
d="M868 24c-3 -18 -25 -135 15 -135c21 0 28 19 28 103v189c-20 -58 -35 -111 -43 -157zM245 464c86 -2 166 -53 241 -91c50 -26 90 -41 123 -49c-32 37 -58 92 -58 158c0 161 137 251 405 251c61 0 251 -2 275 -2c41 0 30 26 33 26c8 0 14 -24 14 -41
c0 -40 -31 -39 -75 -39c-19 0 -161 3 -230 3v-703c0 -96 -16 -148 -59 -148h-4c-88 0 -76 132 -65 199c12 64 34 139 66 222v429c-156 -10 -338 -23 -338 -198c0 -111 127 -163 152 -135c8 10 -6 18 5 16c16 -4 12 -68 -27 -82c-15 -7 -33 -9 -51 -8
c-141 3 -292 173 -407 176c-112 0 -227 -65 -229 -193c-2 -113 87 -206 205 -209c113 -1 223 69 227 198c0 5 3 8 8 8c4 0 8 -3 8 -8c-4 -127 -108 -216 -243 -214c-118 3 -223 95 -221 226c2 126 113 210 245 208z" />
    <glyph glyph-name="U_swsh" horiz-adv-x="1393" 
d="M1350 597c17 102 -53 158 -53 23v-209c6 17 11 33 16 50c14 47 30 95 37 136zM1297 316c0 -83 -3 -216 3 -314c11 -106 56 -198 164 -198c102 0 140 79 140 116c0 28 -8 4 -16 11c0 10 28 14 28 -9c0 -91 -91 -138 -157 -138c-154 0 -195 107 -214 216c-1 9 -1 17 -1 27
c-18 -74 -73 -165 -160 -165c-120 0 -171 99 -171 286v381c-1 81 -24 172 -120 176c-74 -1 -163 -50 -163 -177c0 -92 90 -149 100 -178c9 -25 12 -59 -23 -85c-16 -8 -35 -10 -54 -9c-141 3 -292 173 -407 176c-112 0 -227 -65 -229 -193c-2 -113 87 -206 205 -209
c116 -2 223 70 227 198c0 5 3 8 8 8c4 0 8 -3 8 -8c-4 -127 -108 -216 -243 -214c-118 3 -223 95 -221 226c2 126 113 210 245 208c86 -2 166 -53 241 -91c99 -51 162 -60 200 -53c-28 30 -85 109 -85 215c0 112 57 202 195 202c68 -1 174 -41 174 -189v-365
c0 -155 37 -276 123 -276c80 0 129 104 146 196l3 539c0 111 78 129 119 72c34 -46 4 -142 -27 -245c-14 -48 -30 -96 -38 -137z" />
    <glyph glyph-name="V_swsh" horiz-adv-x="1402" 
d="M1307 604c34 94 -46 108 -56 -10c-4 -40 -2 -91 0 -140c1 -17 2 -34 2 -52zM246 447c86 -2 166 -53 241 -91c95 -49 157 -59 195 -53c-29 32 -89 108 -89 211c0 111 66 199 202 199c67 0 145 -28 178 -188c0 0 31 -225 39 -295c17 -137 58 -332 90 -332c7 0 14 3 20 10
c27 42 47 136 54 162c0 0 38 178 52 238c4 42 2 94 0 145c-3 107 -7 206 36 241c55 46 119 -4 100 -83c-31 -105 -108 -426 -157 -578c-16 -51 -54 -174 -123 -174c-73 0 -91 142 -116 326c-23 169 -50 337 -50 337c-18 104 -59 177 -124 177c-74 0 -166 -53 -166 -179
c0 -93 82 -156 92 -184c22 -64 -9 -84 -67 -81c-141 3 -292 173 -407 176c-71 1 -131 -20 -171 -59c-36 -34 -57 -82 -58 -134s18 -103 51 -142c26 -29 77 -65 154 -67c59 -1 112 15 152 45c23 16 40 37 53 61c13 26 21 57 22 92c0 5 3 8 8 8c4 0 8 -3 8 -8
c-2 -71 -30 -128 -82 -166c-42 -33 -98 -49 -161 -48c-84 2 -138 41 -166 73c-37 41 -56 97 -55 153s23 108 62 145c44 42 107 64 183 63z" />
    <glyph glyph-name="W_swsh" horiz-adv-x="1479" 
d="M960 497c11 -67 5 -36 39 -280c17 -131 54 -315 85 -315c44 0 31 133 38 163c0 0 37 169 50 226c3 40 2 89 0 138c-4 100 -8 196 34 229c49 41 108 -18 96 -79c-36 -129 -72 -278 -108 -411c5 -113 62 -230 89 -266c28 184 151 892 488 892c69 0 106 -32 119 -57
c5 -10 -6 -8 -8 -5c-8 11 -31 44 -97 44c-309 0 -424 -724 -449 -896c-7 -45 -63 -30 -74 -2c-30 50 -79 157 -85 234c-8 -32 -17 -61 -24 -82c-16 -48 -20 -165 -87 -165c-69 0 -86 134 -109 309c-39 257 -49 320 -49 320c-18 100 -56 159 -117 159
c-71 0 -157 -41 -157 -161c0 -88 91 -154 100 -181c22 -57 -27 -73 -81 -71c-141 3 -292 173 -407 176c-123 4 -227 -70 -229 -193c-2 -113 73 -206 205 -209c123 -2 223 69 227 198c0 5 3 8 8 8c4 0 8 -3 8 -8c-4 -137 -111 -216 -243 -214c-143 3 -223 104 -221 226
c2 134 112 210 245 208c86 -2 166 -53 241 -91c95 -49 157 -59 195 -54c-28 31 -83 104 -83 200c0 105 62 190 193 190c63 0 138 -28 168 -180zM1193 564c-4 -38 -2 -87 0 -134c1 -16 2 -33 2 -50l52 192c9 12 25 108 -28 70c-13 -12 -22 -38 -26 -78z" />
    <glyph glyph-name="X_swsh" horiz-adv-x="1447" 
d="M246 588c86 -2 166 -53 241 -91c93 -48 155 -58 193 -54c-11 13 -20 34 -20 63c0 94 67 161 170 161c101 0 158 -102 191 -189l61 -166c77 156 195 388 336 388c22 0 30 -11 30 -32c0 -23 -43 -16 -62 -16c-111 0 -196 -254 -273 -410l65 -147c30 -73 125 -213 208 -213
c71 0 83 27 83 69c0 7 -17 6 -5 11c32 16 46 -9 46 -32c0 -22 -31 -71 -138 -69c-124 1 -215 121 -285 284c-74 -143 -158 -256 -285 -256c-15 0 -43 10 -43 53c0 13 -1 -6 16 -6c115 0 212 127 286 280l-95 254c-49 124 -97 180 -149 180c-46 0 -129 -59 -99 -161
c18 -60 16 -96 -65 -93c-141 3 -292 173 -407 176c-112 0 -227 -65 -229 -193c-2 -113 87 -206 205 -209c116 -2 223 70 227 198c0 5 3 8 8 8c4 0 8 -3 8 -8c-4 -127 -108 -216 -243 -214c-118 3 -223 95 -221 226c2 126 113 210 245 208z" />
    <glyph glyph-name="Y_swsh" horiz-adv-x="1341" 
d="M1088 -285c71 0 90 139 90 245c-63 -19 -155 -69 -155 -164c0 -33 15 -81 65 -81zM1272 592c15 94 -49 123 -46 21v-182c4 13 9 29 13 42c13 42 26 84 33 119zM248 489c86 -2 166 -53 241 -91c96 -50 158 -59 197 -53c-28 29 -75 94 -75 180c0 98 57 175 177 175
c58 -1 154 -35 154 -165v-232c0 -133 29 -235 103 -235c62 0 113 77 132 139v416c0 78 70 106 105 57c29 -40 4 -124 -24 -212c-12 -42 -25 -85 -32 -120c0 -115 0 -229 -3 -356c19 4 111 19 87 34c-16 12 24 2 6 -41c-5 -12 -49 -10 -94 -18c-6 -107 -15 -273 -126 -273
c-76 0 -106 52 -106 113c0 97 99 148 188 174c0 55 0 102 -1 183c-17 -64 -65 -126 -140 -126c-105 0 -148 87 -148 249c0 74 1 149 1 246c0 77 -24 154 -102 154c-66 0 -145 -46 -145 -156c0 -81 78 -140 86 -164c17 -54 -22 -72 -74 -70c-141 3 -292 173 -407 176
c-112 0 -227 -65 -229 -193c-2 -113 87 -206 205 -209c113 -1 223 69 227 198c0 5 3 8 8 8c4 0 8 -3 8 -8c-4 -127 -108 -216 -243 -214c-118 3 -223 95 -221 226c2 126 113 210 245 208z" />
    <glyph glyph-name="Z_swsh" horiz-adv-x="722" 
d="M686 695c-20 0 -78 -60 -93 -83c70 17 129 83 93 83zM84 -94c44 0 117 45 142 79c-37 30 -99 52 -130 52c-130 0 -128 -131 -12 -131zM-418 717c86 -2 166 -53 241 -91c93 -48 156 -59 194 -54c-10 10 -12 24 -14 42c-8 72 42 142 163 142c149 0 325 -131 364 -139
c53 77 187 182 187 74c0 -46 -61 -88 -138 -102c-105 -111 -181 -450 -294 -592c89 -47 171 -190 283 -190c75 0 125 17 125 66c0 63 -63 57 -80 47c-13 -10 -2 -14 -6 -14c-8 -2 -7 20 -7 37c0 47 115 33 115 -59c0 -55 -48 -121 -148 -121c-144 0 -228 141 -315 197
c-46 -42 -106 -77 -167 -77c-59 0 -111 26 -111 90c0 57 56 93 125 93c45 0 106 -22 154 -45c92 117 153 432 253 568c-85 11 -230 147 -329 147c-191 0 -91 -146 -120 -184c-14 -26 -37 -28 -68 -27c-141 3 -292 173 -407 176c-71 1 -131 -20 -171 -59
c-36 -34 -57 -82 -58 -134s18 -103 51 -142c26 -29 77 -65 154 -67c59 -1 112 15 152 45c23 16 40 37 53 61c13 26 21 57 22 92c0 5 3 8 8 8c4 0 8 -3 8 -8c-2 -71 -30 -128 -82 -166c-42 -33 -98 -49 -161 -48c-84 2 -138 41 -166 73c-37 41 -56 97 -55 153s23 108 62 145
c44 42 107 64 183 63z" />
    <glyph glyph-name="space" unicode=" " horiz-adv-x="250" 
 />
    <glyph glyph-name="v_x" horiz-adv-x="625" 
d="M324 315c13 -57 -14 -130 -80 -130c-9 0 -18 1 -26 3c-5 1 -10 3 -15 5c-14 -89 -46 -191 -117 -191c-75 0 -73 133 -78 183c-4 37 -5 75 -9 110c-4 31 -19 52 -30 52c-13 0 -4 33 23 33c41 0 59 -36 64 -70c7 -49 9 -107 13 -158c6 -65 16 -117 48 -117
c28 0 57 74 72 165c-10 7 -18 14 -25 24c-15 21 -27 54 -27 88c0 61 19 94 42 94c14 0 22 -16 26 -25c6 -18 9 -38 9 -64c0 -15 -2 -58 -8 -107c5 -3 10 -5 15 -6c84 -24 103 75 77 139l-6 2s-10 33 34 33s74 -71 103 -149c32 78 69 149 133 149c4 0 8 -3 8 -8
c0 -4 -4 -8 -8 -8c-28 0 -53 -15 -75 -52c-13 -21 -27 -68 -44 -118c29 -82 60 -159 105 -159c12 0 26 6 38 17c10 9 20 22 29 39c22 39 35 92 37 145c1 4 4 8 9 7c4 0 7 -3 7 -8c-2 -55 -16 -110 -39 -151c-8 -15 -17 -28 -27 -39c-24 -26 -50 -44 -78 -44
c-48 0 -84 49 -113 109c-24 -54 -54 -96 -93 -96c-27 0 -33 33 -14 36c29 -13 62 38 90 98c-28 66 -47 133 -70 169zM157 315c0 -40 12 -75 35 -95c4 30 6 61 6 92v1c0 31 -7 63 -21 63c-6 0 -20 -13 -20 -61z" />
    <glyph glyph-name="A" unicode="A" horiz-adv-x="872" 
d="M462 764c73 13 108 -57 112 -65c1 -1 1 -2 1 -2l150 -500l51 1c43 0 40 -37 34 -47c-8 -12 0 6 -6 6h-69c66 -266 144 -348 255 -348c145 0 171 150 143 159c38 20 28 -175 -150 -175c-98 0 -212 51 -262 179c-20 52 -55 185 -55 185h-251l-45 -129
c-25 -66 -62 -155 -166 -155c-70 0 -118 42 -118 110c0 156 148 214 298 214l132 371c6 17 12 30 19 40c0 0 -44 177 -97 130c-15 -11 -22 19 24 26zM333 50l34 106c-133 0 -262 -74 -262 -176c0 -62 62 -94 99 -94c63 0 111 117 129 164zM432 197h219l-96 355z" />
    <glyph glyph-name="B" unicode="B" horiz-adv-x="714" 
d="M467 205c71 -11 170 -34 170 -176c0 -116 -94 -200 -263 -200c-96 0 -206 36 -206 170c0 54 48 120 93 127c1 12 0 18 0 30l-1 355c0 105 77 122 108 83c30 -42 9 -127 -14 -217c-12 -47 -34 -98 -34 -136c0 -29 3 -43 1 -89v-11h5c113 0 91 -120 62 -95c2 1 22 27 0 33
c-55 13 -187 28 -187 -102c0 -102 84 -130 177 -130c119 0 201 74 201 179c0 139 -112 153 -184 153c-21 0 -41 21 -6 21c54 0 224 107 224 274c0 291 -576 320 -576 40c0 -102 102 -189 113 -220c18 -49 -7 -61 -17 -67c-17 -12 0 0 -20 20c-18 18 -113 118 -113 253
c0 313 665 299 665 -30c0 -126 -124 -248 -198 -265zM347 579c-6 8 -24 13 -24 -11l-1 -217c2 10 5 21 8 32c19 77 41 164 17 196z" />
    <glyph glyph-name="C" unicode="C" horiz-adv-x="566" 
d="M460 37c20 16 80 -24 39 -89c-19 -31 -78 -115 -220 -115c-152 0 -279 145 -279 371c0 228 148 511 381 511c84 0 148 -53 148 -155c0 -144 -180 -256 -310 -256c-28 0 -51 -1 -51 38c0 16 5 37 13 37s-13 -18 20 -18c87 0 293 93 293 203c0 97 -64 134 -117 134
c-159 0 -315 -279 -315 -494c0 -168 91 -353 226 -353c127 0 185 109 185 177c0 16 -19 4 -13 9z" />
    <glyph glyph-name="D" unicode="D" horiz-adv-x="792" 
d="M0 497c0 305 729 351 729 -116c0 -336 -221 -542 -388 -542c-66 0 -152 35 -152 138c0 56 46 101 92 121c1 27 1 62 1 72v361c0 96 58 135 105 75c30 -41 8 -125 -14 -215c-12 -47 -24 -96 -27 -135c-1 -15 -2 -26 -3 -36v-1l-1 -54c0 -12 0 -36 -1 -55
c116 -10 96 -119 68 -94c3 0 17 10 -1 24c-44 36 -181 20 -181 -78c0 -51 52 -106 120 -106c78 0 324 138 324 523c0 449 -633 394 -633 125c0 -102 93 -167 105 -198c18 -49 0 -69 -9 -76c-17 -12 0 0 -21 21c-18 18 -113 111 -113 246zM371 594c-6 8 -27 12 -27 -21
c0 -1 0 33 -1 -220c3 14 7 29 11 43c10 41 21 84 25 120c5 38 2 63 -8 78z" />
    <glyph glyph-name="E" unicode="E" horiz-adv-x="476" 
d="M206 -174c-113 0 -206 70 -206 192c0 85 50 147 106 176c-51 32 -101 89 -101 191c0 155 140 330 311 330c107 0 166 -69 166 -155c0 -121 -94 -187 -176 -190c-29 -1 -64 -7 -64 35c0 16 4 42 12 42c9 0 -5 -22 29 -22c77 0 159 37 159 136c0 64 -35 130 -126 130
c-140 0 -253 -151 -253 -300c0 -88 52 -183 153 -183c4 0 7 2 11 2c14 0 20 -13 20 -29c0 -25 -14 -16 -28 -17c-49 -6 -168 -31 -168 -156c0 -97 92 -162 157 -162c119 0 207 117 207 173c0 15 -18 -3 -12 6c12 20 54 -10 54 -36c0 -61 -102 -163 -251 -163z" />
    <glyph glyph-name="F" unicode="F" horiz-adv-x="642" 
d="M764 747c8 0 14 -27 14 -44c0 -42 -33 -39 -80 -39c-21 0 -172 2 -245 4v-446s114 -6 104 10c-11 19 9 16 8 -4c-1 -21 13 -61 -70 -61h-42v-244c0 -105 -10 -160 -55 -160s-70 65 -78 103c-6 32 -8 71 -4 111c7 69 29 140 59 190h-43c-25 0 -44 25 -44 50c0 13 7 5 19 5
h87v443c-167 -11 -370 -24 -370 -210c0 -119 137 -181 162 -152c9 11 -6 20 6 18c19 -4 4 -77 -53 -77c-51 0 -139 83 -139 212c0 171 147 265 433 265c65 0 270 -2 295 -2c44 0 32 28 36 28zM341 -25c-10 -103 37 -249 53 -37v213c-27 -48 -46 -112 -53 -176z" />
    <glyph glyph-name="G" unicode="G" horiz-adv-x="604" 
d="M450 -66c-86 1 -212 -54 -212 -171c0 -48 42 -86 81 -86c92 0 131 146 131 257zM399 715c88 0 155 -47 155 -123c0 -108 -148 -200 -255 -200c-51 0 -48 83 -39 83c7 0 0 -23 13 -21h5c64 0 248 45 248 133c0 74 -57 107 -136 107c-179 0 -314 -268 -314 -417
c0 -183 86 -286 164 -286c150 0 222 243 222 330c0 18 -23 -2 -22 5c2 17 80 12 80 -36c0 -135 -6 -190 -6 -323c24 3 110 -6 69 14c-22 11 37 24 2 -49c-8 -14 -17 3 -73 5c-5 -110 -29 -280 -171 -280c-82 0 -135 51 -135 116c0 102 132 189 247 189v10c0 42 1 190 7 213
c-35 -131 -148 -217 -223 -217c-151 0 -227 123 -227 308c0 209 173 439 389 439z" />
    <glyph glyph-name="H" unicode="H" horiz-adv-x="833" 
d="M726 614v-249c16 33 31 74 42 114c19 75 21 138 4 171c-26 54 -46 19 -46 -36zM133 225c-1 9 -11 21 -27 39c-32 35 -99 119 -99 232c0 122 72 219 221 219c73 -1 205 -45 205 -206v-332c121 0 235 75 235 107v286c1 85 -4 136 53 136c33 0 59 -15 73 -44
c27 -54 10 -142 -2 -189c-16 -60 -41 -121 -66 -160v-259c0 -126 41 -250 166 -250c102 0 140 79 140 116c0 28 -8 4 -16 11c0 10 28 14 28 -9c0 -91 -91 -138 -157 -138c-179 0 -209 120 -218 254l-1 195s-81 -78 -235 -95l-2 -232c0 -47 -28 -61 -69 -57
c-14 2 -30 8 -18 14c3 -8 28 -8 28 11c1 6 1 78 1 85v176c-58 2 -86 8 -119 22c-23 11 -22 41 -9 68c6 12 0 -2 10 -8c0 0 59 -32 118 -37v326c0 96 -48 193 -146 193c-81 0 -185 -58 -185 -196c0 -101 101 -178 115 -208c20 -42 -8 -63 -17 -70c-3 -2 -23 -17 -7 0z" />
    <glyph glyph-name="I" unicode="I" horiz-adv-x="458" 
d="M187 715c114 -2 170 -87 175 -206v-314v-56v-201c-4 -98 -125 -124 -131 -19c-1 50 24 122 48 195c8 25 16 50 23 73v13v306c0 96 -18 189 -116 189v0c-80 0 -138 -44 -138 -169c0 -102 86 -172 98 -203c18 -49 -3 -72 -12 -78c-17 -12 0 0 -21 20
c-18 18 -113 114 -113 249c0 122 70 201 187 201zM254 -79c12 -76 48 -20 48 31v168c-22 -66 -55 -154 -48 -199z" />
    <glyph glyph-name="J" unicode="J" horiz-adv-x="514" 
d="M221 715c74 0 205 -45 205 -206v-314v-56v-275c-2 -97 -117 -144 -170 -70c-21 32 -24 80 -8 148c14 58 39 121 63 183c26 66 50 128 56 172c0 2 1 4 2 6c0 89 -3 203 -3 203c0 96 -47 190 -146 190v0c-81 0 -180 -55 -180 -192c0 -102 95 -165 106 -196
c18 -49 -2 -71 -12 -78c-17 -12 0 0 -20 21c-18 18 -114 111 -114 246c0 121 72 218 221 218v0zM277 -192c48 -65 92 6 92 50v278v64v9c-10 -29 -22 -61 -35 -93c-23 -61 -48 -124 -61 -180c-15 -60 -13 -102 4 -128z" />
    <glyph glyph-name="K" unicode="K" horiz-adv-x="781" 
d="M222 715c73 0 205 -45 205 -206v-314v-56v-197c-5 -60 -73 -109 -130 -45c-31 35 -3 106 24 184c19 56 39 113 43 165c1 3 1 5 3 7v253c0 96 -48 190 -146 190c-81 0 -177 -55 -177 -192c0 -102 94 -166 106 -197c18 -49 -6 -70 -15 -77c-17 -12 0 0 -21 21
c-18 18 -113 111 -113 246c0 121 72 218 221 218zM318 -88c24 -26 49 -3 49 26v198v4c-7 -23 -15 -46 -23 -67c-23 -69 -46 -139 -26 -161zM652 7c0 133 -85 177 -193 177c-21 0 -40 22 -6 22c55 0 165 86 165 254c0 88 -51 257 62 267c56 6 53 -30 46 -38c-5 6 3 13 -7 13
c-69 0 -45 -114 -45 -243c0 -126 -69 -231 -143 -248c70 -12 171 -35 171 -172c0 -131 16 -235 136 -235c102 0 129 91 129 128c0 28 -8 4 -16 11c0 10 28 14 28 -9c0 -91 -69 -150 -146 -150c-149 0 -181 95 -181 223z" />
    <glyph glyph-name="L" unicode="L" horiz-adv-x="542" 
d="M795 -85c5 10 18 0 18 -24s-4 -69 -103 -69c-98 0 -238 73 -355 115c-7 -77 -35 -118 -75 -118c-84 0 -101 62 -101 83c0 53 37 79 104 79h12v220v45c-8 0 -15 -1 -22 -1c-135 0 -228 96 -246 114c-21 20 -33 3 -21 20c7 10 35 12 84 -6c31 -11 88 -91 190 -91
c5 0 10 0 15 1c0 70 1 157 1 203c0 159 50 233 100 233c93 0 121 -105 117 -190c0 -108 -50 -217 -158 -264v-69v-224c140 -24 336 -103 398 -103c32 0 53 33 42 46zM355 572v-276c71 29 139 126 139 234c0 56 -16 162 -92 162c-38 0 -47 -80 -47 -120zM266 -161
c30 0 29 28 29 50v67v1c-10 2 -20 2 -29 2c-42 0 -64 -25 -64 -54c0 -42 41 -66 64 -66z" />
    <glyph glyph-name="M" unicode="M" horiz-adv-x="1007" 
d="M320 -112c4 -5 10 -10 19 -13c38 0 32 55 31 84v177c-7 -22 -15 -67 -23 -88c-24 -68 -47 -132 -27 -160zM637 -16c0 -61 21 -63 21 -1c0 16 3 83 0 95c-5 -13 -21 -56 -21 -94zM917 650l-3 -67c53 82 3 148 3 67zM917 546l1 -492c0 -126 41 -250 166 -250
c102 0 140 79 140 116c0 28 -8 4 -16 11c0 10 28 14 28 -9c0 -91 -91 -138 -157 -138c-197 0 -219 145 -221 295v166c0 19 1 175 1 205c-30 -57 -127 -238 -172 -309c24 -154 23 -229 -30 -229c-27 0 -46 29 -46 69c0 57 28 107 36 129c-30 86 -99 568 -139 569
c-60 1 -79 -335 -79 -507v-230c-1 -65 -28 -95 -61 -95c-34 0 -56 9 -69 27c-26 38 -3 105 25 182c20 56 40 115 45 167c0 2 0 3 1 4v279c0 96 -48 193 -146 193c-81 0 -184 -58 -184 -195c0 -102 90 -182 109 -209c24 -34 -2 -58 -11 -65c-17 -12 0 0 -21 21
c-18 18 -113 111 -113 246c0 121 72 218 221 218c72 0 202 -39 202 -179c9 75 31 163 93 163c79 0 128 -377 158 -527c41 73 158 282 180 343v93c1 41 0 114 55 111c81 -4 57 -101 4 -173z" />
    <glyph glyph-name="N" unicode="N" horiz-adv-x="778" 
d="M316 -88c6 -7 15 -14 26 -14c28 0 25 84 25 84v154v9c-7 -25 -16 -49 -24 -72c-24 -69 -46 -134 -27 -161zM702 54c0 -126 41 -250 166 -250c102 0 140 79 140 116c0 28 -8 4 -16 11c0 10 28 14 28 -9c0 -91 -91 -138 -157 -138c-197 0 -218 145 -220 295v264
c0 82 15 335 -70 335c-70 0 -126 -136 -146 -242v-470c0 -60 -26 -96 -62 -96c-33 0 -56 9 -69 27c-27 38 -4 106 24 184c20 60 39 119 47 174v251c0 96 -48 190 -146 190c-81 0 -188 -55 -188 -192c0 -102 100 -169 111 -200c18 -49 0 -67 -9 -74c-17 -12 0 0 -21 21
c-18 18 -113 111 -113 246c0 121 72 218 221 218c69 0 191 -40 204 -180c27 84 78 172 167 172c101 0 109 -80 109 -235v-418z" />
    <glyph glyph-name="O" unicode="O" horiz-adv-x="595" 
d="M238 718c166 0 271 -189 271 -428c0 -263 -89 -444 -237 -444c-145 0 -239 153 -239 404s113 365 185 365c49 0 47 -63 33 -63c-4 0 9 15 -7 15c-92 0 -149 -155 -149 -338c0 -204 78 -365 184 -365c111 0 173 204 173 427c0 209 -92 403 -206 403
c-126 0 -219 -153 -222 -287c0 0 -4 -9 -15 -8c-9 0 -8 12 -8 38c0 81 76 281 237 281z" />
    <glyph glyph-name="P" unicode="P" horiz-adv-x="698" 
d="M665 459c0 -129 -98 -246 -217 -260v0c-7 -1 -15 -2 -22 -2c-27 -1 -56 4 -78 20v-60c0 -19 -1 -279 -2 -296c-2 -76 -98 -113 -139 -52c-19 27 -19 71 -2 136c22 81 65 155 83 238v387c0 28 -2 51 36 51c16 0 33 2 33 -9c0 -3 -7 5 -7 -15l-1 -216c18 16 43 25 70 24
c105 -6 74 -102 51 -83c2 1 19 8 5 19c-33 26 -113 21 -126 -41l-1 -29c7 -23 19 -58 74 -58c119 0 186 127 186 244c0 134 -133 239 -275 239c-148 0 -291 -46 -291 -191c0 -101 91 -166 103 -197c18 -49 -2 -69 -11 -76c-17 -12 0 0 -21 21c-18 17 -113 110 -113 245
c0 125 100 219 327 219c174 0 338 -69 338 -258zM287 -153c1 10 1 167 1 256c-2 -5 -4 -9 -6 -13c-17 -45 -39 -100 -53 -151c-15 -57 -15 -96 -2 -116c18 -29 56 -6 60 24z" />
    <glyph glyph-name="Q" unicode="Q" horiz-adv-x="676" 
d="M629 -18c25 -5 39 -13 39 -34c0 -44 -23 -166 -177 -166c-58 0 -128 21 -173 57c-184 -16 -318 150 -318 423c0 277 151 444 267 444c23 0 36 -11 36 -26c0 -16 -3 -31 -3 -31c-7 0 4 16 -22 13c-123 -15 -222 -218 -222 -400c0 -352 192 -397 234 -401
c-94 74 -143 255 -143 417c0 196 80 345 206 345c114 0 213 -139 213 -356c0 -205 -99 -364 -223 -416c33 -31 107 -47 148 -47c105 0 131 99 131 156c-1 19 -17 7 -22 12c-6 7 0 16 29 10zM352 596c-89 0 -182 -122 -182 -310c0 -213 59 -340 149 -417
c112 35 193 218 193 399c0 191 -75 328 -160 328z" />
    <glyph glyph-name="R" unicode="R" horiz-adv-x="709" 
d="M379 584c-6 9 -26 13 -26 -7l-1 -195c3 12 6 24 10 36c18 68 38 138 17 166zM634 -8c4 -108 15 -188 121 -188c102 0 129 102 129 139c0 28 -8 4 -16 11c0 10 28 14 28 -9c0 -91 -56 -161 -146 -161c-141 0 -167 64 -167 246c0 124 -147 158 -220 158c-4 0 -8 -3 -12 -2
v-29c0 -19 0 -139 -2 -157c0 -48 -25 -78 -66 -69c-14 3 -30 16 -18 28c3 -15 28 -17 28 24c1 13 1 165 1 179v408c2 57 74 73 106 29c12 -18 16 -44 10 -82c-4 -32 -14 -68 -24 -106c-13 -46 -26 -93 -29 -133l-6 -67v-6c2 1 4 1 6 1c54 0 259 85 259 253
c0 165 -138 237 -280 237c-147 0 -293 -46 -293 -191c0 -101 96 -168 107 -199c18 -49 -3 -67 -13 -74c-17 -12 0 0 -21 21c-18 17 -113 110 -113 245c0 125 101 219 327 219c174 0 338 -69 338 -258c0 -126 -124 -231 -198 -248c71 -12 164 -60 164 -219z" />
    <glyph glyph-name="S" unicode="S" horiz-adv-x="463" 
d="M125 -109c-4 32 36 75 48 62c3 -4 -18 -1 -9 -16c3 -4 36 -58 89 -58c98 0 149 67 149 117c0 139 -403 145 -403 382c0 154 139 317 298 317c91 0 147 -59 147 -150c0 -129 -151 -252 -222 -252c-41 0 -80 63 -68 70c13 7 0 -10 19 -10c63 0 249 41 249 199
c0 80 -67 110 -114 110c-120 0 -247 -157 -247 -284c0 -180 366 -184 366 -378c0 -95 -76 -173 -174 -173c-99 0 -127 53 -128 64z" />
    <glyph glyph-name="T" unicode="T" horiz-adv-x="562" 
d="M713 760c8 0 14 -24 14 -41c0 -40 -31 -39 -75 -39c-19 0 -161 3 -230 3v-415v-62v-229c0 -96 -8 -148 -51 -148h-3h-1c-22 0 -41 9 -54 29c-21 32 -25 89 -11 170c12 64 34 139 66 222v18v414c-156 -10 -350 -26 -350 -201c0 -111 131 -163 156 -135c8 10 -6 18 5 16
c18 -4 4 -84 -49 -84c-47 0 -130 83 -130 204c0 161 137 254 405 254c61 0 251 -2 275 -2c41 0 30 26 33 26zM325 24c-3 -18 -25 -135 15 -135c21 0 28 19 28 103v189c-20 -58 -35 -111 -43 -157z" />
    <glyph glyph-name="U" unicode="U" horiz-adv-x="800" 
d="M757 597c17 102 -53 158 -53 23v-209c6 17 11 33 16 50c14 47 30 95 37 136zM704 316v-299c8 -112 52 -213 165 -213c102 0 140 79 140 116c0 28 -8 4 -16 11c0 10 28 14 28 -9c0 -91 -91 -138 -157 -138c-161 0 -211 120 -211 232c-20 -69 -81 -154 -162 -154
c-120 0 -171 99 -171 286v381c-1 81 -21 171 -117 175c-74 -1 -167 -51 -167 -178c0 -92 86 -152 96 -181c17 -45 -1 -70 -10 -76c-12 -8 -13 -2 -11 -1c6 3 6 14 -6 26c-16 16 -105 102 -105 225c0 112 66 202 204 202c68 -1 170 -41 170 -189v-365c0 -155 5 -276 127 -276
c80 0 134 104 151 196v539c0 111 76 129 117 72c34 -46 4 -142 -27 -245c-14 -48 -30 -96 -38 -137z" />
    <glyph glyph-name="V" unicode="V" horiz-adv-x="809" 
d="M671 694c55 46 119 -4 100 -83c0 0 -50 -189 -67 -251c-4 -17 -7 -27 -13 -49c-14 -56 -55 -210 -77 -278c-16 -51 -54 -174 -123 -174c-73 0 -91 142 -116 326c-23 169 -50 337 -50 337c-18 104 -59 176 -124 176v0c-74 0 -164 -60 -164 -186c0 -93 80 -144 90 -172
c16 -45 4 -64 -4 -71c-16 -11 0 0 -20 20c-16 16 -103 101 -103 225c0 111 66 199 202 199v0c67 0 144 -28 177 -188c0 0 31 -225 39 -295c17 -137 29 -332 91 -332c7 0 14 3 20 10c27 42 29 86 36 112c0 0 56 228 70 288c4 42 2 94 0 145c-3 107 -7 206 36 241zM714 604
c34 94 -46 108 -56 -10c-4 -40 -2 -91 0 -140c1 -17 2 -34 2 -52z" />
    <glyph glyph-name="W" unicode="W" horiz-adv-x="881" 
d="M1173 794c69 0 106 -32 119 -57c5 -10 -6 -8 -8 -5c-8 11 -31 44 -97 44c-309 0 -424 -724 -449 -896c-7 -45 -49 -32 -60 -4c-32 71 -93 159 -99 236c-8 -32 -17 -61 -24 -82c-16 -48 -20 -165 -87 -165c-69 0 -86 134 -109 309c-23 160 -48 320 -48 320
c-18 100 -56 164 -117 164v0c-71 0 -160 -52 -160 -172c0 -88 79 -142 88 -169c16 -42 5 -57 -3 -62c-15 -11 0 0 -19 18c-16 15 -98 97 -98 214c0 105 62 190 193 190v0c63 0 142 -28 172 -180c0 0 30 -213 38 -280c17 -131 35 -315 81 -315c44 0 29 133 36 163
c0 0 37 169 50 226c3 40 2 89 0 138c-4 100 -8 196 34 229c49 41 110 -18 98 -79c-36 -129 -75 -303 -111 -436c5 -113 71 -179 94 -245c28 184 112 896 486 896zM593 564c-4 -38 -2 -87 0 -134c1 -16 2 -33 2 -50l52 192c9 12 25 108 -28 70c-13 -12 -22 -38 -26 -78z" />
    <glyph glyph-name="X" unicode="X" horiz-adv-x="787" 
d="M804 -38c32 16 46 -9 46 -32c0 -22 -31 -71 -138 -69c-124 1 -200 135 -250 260l-16 51c-74 -143 -177 -283 -304 -283c-15 0 -43 10 -43 53c0 13 -1 -6 16 -6c162 0 230 137 304 290l-97 244c-49 124 -113 180 -165 180c-46 0 -101 -55 -101 -161c0 -53 18 -37 18 -37
s9 -13 -45 -13c-16 0 -29 14 -29 67c0 94 67 161 170 161c101 0 172 -102 205 -189l65 -161c77 156 177 383 318 383c22 0 30 -11 30 -32c0 -23 -43 -16 -62 -16c-111 0 -185 -221 -262 -377l67 -180c30 -73 112 -213 195 -213c71 0 83 27 83 69c0 7 -17 6 -5 11z" />
    <glyph glyph-name="Y" unicode="Y" horiz-adv-x="730" 
d="M700 8c-16 12 29 21 2 -50c-5 -12 -46 17 -91 9c-6 -107 -15 -273 -126 -273c-68 0 -106 39 -106 103c0 97 95 158 184 184c0 55 0 102 -1 183c-17 -64 -61 -126 -136 -126c-105 0 -148 87 -148 249c0 74 1 149 1 246c0 77 -24 150 -102 150v0c-66 0 -141 -42 -141 -152
c0 -81 73 -135 81 -159c14 -41 -1 -54 -10 -60c-12 -9 0 0 -16 18c-16 12 -91 87 -91 195c0 98 57 175 177 175v0c58 -1 158 -35 158 -165v-101v-131c0 -133 23 -233 97 -233c62 0 111 75 130 137v416c0 78 74 106 109 57c29 -40 4 -124 -24 -212c-12 -42 -25 -85 -32 -120
c0 -115 0 -229 -3 -356c19 4 112 1 88 16zM473 -287c85 0 90 141 90 247c-63 -19 -162 -82 -162 -166c0 -53 41 -81 72 -81zM661 592c15 94 -49 123 -46 21v-182c4 13 9 29 13 42c13 42 26 84 33 119z" />
    <glyph glyph-name="Z" unicode="Z" horiz-adv-x="722" 
d="M635 -33c37 0 80 -13 80 -87c0 -55 -48 -110 -148 -110c-144 0 -222 137 -309 193c-46 -42 -112 -84 -173 -84c-59 0 -111 26 -111 90c0 57 56 93 125 93c45 0 101 -16 149 -39c92 117 163 406 263 542c-85 11 -235 148 -334 148c-150 0 -140 -143 -117 -158
c10 -7 15 0 15 0s11 -24 -27 -24c-19 0 -47 20 -51 59c-8 72 48 142 169 142c149 0 330 -131 369 -139c53 77 182 182 182 74c0 -46 -61 -88 -138 -102c-105 -111 -181 -430 -294 -572c89 -47 171 -178 283 -178c75 0 128 25 128 74c0 34 -66 37 -83 27
c-13 -10 -2 -14 -6 -14c-8 -2 -7 22 -7 39c0 11 6 26 35 26zM686 671c-20 0 -78 -60 -93 -83c70 17 129 83 93 83zM80 -105c44 0 122 59 147 93c-37 30 -103 54 -134 54c-130 0 -129 -147 -13 -147z" />
    <glyph glyph-name="a_ss1" horiz-adv-x="756" 
d="M799 234c-2 -55 -16 -110 -39 -151c-8 -15 -17 -28 -27 -39v0c-24 -26 -50 -44 -78 -44c-52 0 -49 84 -49 99c-6 -35 -40 -99 -90 -99c-42 0 -70 28 -85 69c-6 -18 -14 -34 -23 -50c-29 -49 -69 -86 -115 -105c-24 -10 -63 -18 -88 -18c-277 0 -258 397 -33 397
c40 0 58 -38 31 -58c-2 4 -7 16 -29 16c-174 0 -193 -339 30 -339c22 0 60 7 83 16c43 19 80 53 107 99c12 21 22 45 30 70c-22 113 32 282 141 282c26 0 43 -21 51 -44c18 4 50 4 50 -56c0 -46 -10 -150 -6 -206c2 -24 8 -39 19 -39c12 0 25 6 38 17c10 9 20 22 29 39
c21 39 35 92 37 145c0 4 4 8 8 7c5 0 8 -3 8 -8zM603 171c0 36 8 98 2 158c-6 14 -18 25 -39 25c-95 0 -120 -305 -40 -305c39 0 77 71 77 122z" />
    <glyph glyph-name="a_ss2" horiz-adv-x="1062" 
d="M1105 234c-2 -55 -16 -110 -39 -151c-8 -15 -17 -28 -27 -39v0c-24 -26 -50 -44 -78 -44c-52 0 -49 84 -49 99c-6 -35 -40 -99 -90 -99c-42 0 -70 28 -85 69c-6 -18 -14 -34 -23 -50c-29 -49 -69 -86 -115 -105c-24 -10 -63 -18 -88 -18c-277 0 -258 397 -33 397
c15 0 28 -6 35 -14v3c0 38 -18 76 -49 104c-38 34 -96 31 -166 31c-123 0 -741 -184 -741 -15c0 46 9 65 26 63c4 0 3 -7 -6 -10c-21 -8 -16 -64 119 -64c85 0 515 63 603 63c74 0 135 -19 176 -56c35 -31 54 -73 54 -116c0 -26 -8 -50 -22 -68c-15 -19 -38 -29 -63 -29
c-5 0 -7 3 -7 7c0 5 4 8 8 8c31 0 50 18 60 41c-4 5 -11 10 -25 10c-174 0 -193 -339 30 -339c22 0 60 7 83 16c43 19 80 53 107 99c12 21 22 45 30 70c-22 113 32 282 141 282c26 0 43 -21 51 -44c18 4 50 4 50 -56c0 -46 -10 -150 -6 -206c2 -24 8 -39 19 -39
c12 0 25 6 38 17c10 9 20 22 29 39c21 39 35 92 37 145c0 4 4 8 8 7c5 0 8 -3 8 -8zM909 171c0 36 8 98 2 158c-6 14 -18 25 -39 25c-95 0 -120 -305 -40 -305c39 0 77 71 77 122z" />
    <glyph glyph-name="a_ss3" horiz-adv-x="614" 
d="M657 234c-2 -55 -16 -110 -39 -151c-8 -15 -17 -28 -27 -39v0c-24 -26 -50 -44 -78 -44c-52 0 -49 84 -49 99c-6 -35 -40 -99 -90 -99c-55 0 -86 48 -94 110c-20 -4 -41 -6 -63 -6c-11 0 -23 1 -35 2c-97 9 -196 54 -270 122c-40 37 -71 79 -93 125
c-23 50 -35 104 -35 159c0 82 17 149 52 199c30 44 90 107 232 107c77 0 159 -36 188 -77c25 -37 4 -60 -18 -64c-4 -1 8 7 2 16c-22 36 -63 67 -114 85c-54 18 -110 21 -161 7c-48 -14 -88 -42 -116 -83c-33 -48 -49 -111 -49 -190c0 -53 11 -104 34 -152
c21 -44 51 -85 89 -120c72 -66 167 -109 261 -118c33 -3 65 -2 94 4c-9 110 45 253 145 253c26 0 43 -21 51 -44c18 4 50 4 50 -56c0 -46 -10 -150 -6 -206c2 -24 8 -39 19 -39c12 0 25 6 38 17c10 9 20 22 29 39c21 39 35 92 37 145c0 4 4 8 8 7c5 0 8 -3 8 -8zM424 354
c-60 0 -92 -120 -88 -210c11 5 20 10 30 16c26 17 48 39 65 65c15 24 27 51 34 82c-1 7 -1 15 -2 22c-6 14 -18 25 -39 25zM461 171c0 21 3 52 4 86c-6 -15 -13 -28 -21 -41c-18 -28 -42 -51 -70 -69c-11 -7 -24 -14 -36 -19c4 -46 19 -79 46 -79c39 0 77 71 77 122z" />
    <glyph glyph-name="a_ss4" horiz-adv-x="339" 
d="M474 511c12 0 17 -24 12 -36c-12 -29 -45 -34 -76 -34c-142 0 -297 166 -411 166c-72 0 -131 -21 -171 -61c-35 -35 -54 -83 -54 -136c0 -52 19 -103 53 -140c27 -29 78 -64 157 -64h22c15 89 64 173 141 173c26 0 43 -21 51 -44c18 4 50 4 50 -56
c0 -46 -10 -150 -6 -206c2 -24 8 -39 19 -39c30 0 54 31 67 56c21 39 35 92 37 145c0 4 4 8 8 7c5 0 8 -3 8 -8c-2 -55 -16 -110 -39 -151c-19 -36 -58 -83 -105 -83c-52 0 -49 84 -49 99c-6 -35 -40 -99 -90 -99c-78 0 -106 95 -95 190h-19c-85 0 -140 37 -168 69
c-37 40 -58 95 -58 151c0 57 21 109 59 147c43 43 106 66 182 66c85 0 167 -49 242 -85c130 -64 198 -57 229 -39c8 5 0 12 4 12zM185 171c0 28 5 72 4 119c-12 -19 -27 -36 -45 -50c-24 -18 -51 -32 -82 -40c-8 -76 6 -151 46 -151c39 0 77 71 77 122zM148 354
c-45 0 -73 -66 -84 -137c26 8 50 20 70 36c22 17 39 38 51 63c1 1 2 3 3 5c0 3 -1 6 -1 8c-6 14 -18 25 -39 25z" />
    <glyph glyph-name="a_ss5" horiz-adv-x="380" 
d="M359 18c14 -18 22 -42 22 -68c0 -43 -20 -85 -54 -116c-42 -37 -102 -56 -176 -56c-88 0 -518 63 -603 63c-136 0 -140 -56 -119 -64c9 -3 10 -10 5 -10c-16 -2 -25 17 -25 63c0 170 618 -14 741 -14c69 0 128 -4 166 30c31 28 49 66 49 104c0 36 -22 81 -57 81
c-27 0 -39 -31 -72 -31c-52 0 -49 84 -49 99c-6 -35 -40 -99 -90 -99c-155 0 -114 379 49 379c26 0 43 -21 51 -44c18 4 50 4 50 -56c0 -46 -10 -150 -6 -206c2 -24 8 -39 19 -39c12 0 22 13 43 13c22 0 42 -12 56 -29zM184 171c0 36 8 98 2 158c-6 14 -18 25 -39 25
c-95 0 -120 -305 -40 -305c39 0 77 71 77 122z" />
    <glyph glyph-name="a_ss6" horiz-adv-x="431" 
d="M480 163c224 -24 205 -400 -71 -371c-24 3 -64 13 -87 25c-45 24 -87 62 -111 112c-22 46 -27 99 -24 159v11c-6 -35 -40 -99 -90 -99c-155 0 -114 379 49 379c26 0 43 -21 51 -44c18 4 50 4 50 -56c0 -97 -30 -245 -1 -340c14 -48 44 -86 85 -107c22 -12 59 -22 81 -25
c250 -30 252 312 62 315c-22 1 -28 -7 -30 -11c-26 21 -4 56 36 52zM184 171c0 36 8 98 2 158c-6 14 -18 25 -39 25c-95 0 -120 -305 -40 -305c39 0 77 71 77 122z" />
    <glyph glyph-name="a_ss7" horiz-adv-x="986" 
d="M1337 463c17 2 25 -17 25 -63c0 -169 -618 15 -740 15c-70 0 -128 3 -167 -31c-31 -28 -49 -66 -49 -104c0 -21 7 -44 20 -60c1 22 18 48 53 48c248 0 245 -475 -51 -475c-24 0 -84 12 -107 24c-45 24 -87 62 -111 112c-22 46 -27 99 -24 159v11c-6 -35 -40 -99 -90 -99
c-155 0 -114 379 49 379c26 0 43 -21 51 -44c18 4 50 4 50 -56c0 -95 -28 -251 -1 -340c14 -48 44 -86 85 -107c22 -12 78 -24 101 -24c271 0 253 420 42 420c-15 0 -29 -11 -31 -21c9 -5 20 -9 32 -9c5 0 8 -3 8 -8c0 -4 -2 -7 -6 -7c-25 0 -48 10 -64 29
c-14 18 -22 42 -22 68c0 43 20 85 55 116c41 37 102 56 175 56c88 0 518 -63 604 -63c135 0 140 56 118 64c-8 3 -9 10 -5 10zM183 171c0 36 8 98 2 158c-6 14 -18 25 -39 25c-95 0 -120 -305 -40 -305c39 0 77 71 77 122z" />
    <glyph glyph-name="a_ss8" horiz-adv-x="725" 
d="M595 678c155 0 288 -105 288 -306c0 -32 -2 -67 -7 -104c-10 -69 -31 -133 -62 -191c-29 -53 -65 -100 -109 -139c-40 -35 -86 -64 -132 -82c-39 -15 -91 -22 -133 -22c-201 0 -250 143 -253 219v0c-2 16 0 40 0 46c-6 -35 -40 -99 -90 -99c-154 0 -114 379 49 379
c26 0 43 -21 51 -44c18 4 51 4 51 -56c0 -43 -13 -163 -10 -221c5 -94 71 -208 203 -208c82 0 177 31 254 100c42 38 77 83 105 134c30 57 51 119 60 186c5 36 7 70 7 101c0 86 -47 258 -257 258c-135 0 -196 -85 -218 -130c-9 -18 2 -18 -2 -17c-36 8 -38 43 -35 56
c17 79 124 140 240 140zM184 171c0 36 9 98 2 158c-6 14 -18 25 -39 25c-95 0 -120 -305 -40 -305c39 0 77 71 77 122z" />
    <glyph glyph-name="a_ss9" horiz-adv-x="322" 
d="M184 170c0 37 9 98 2 159c-6 13 -18 24 -39 24c-95 0 -120 -305 -40 -305c39 0 77 71 77 122zM248 278c0 -157 -73 -473 166 -473c76 0 110 43 109 60c4 0 6 -3 6 -6c0 -21 -47 -71 -126 -71c-214 0 -225 162 -216 310c-6 -35 -40 -99 -90 -99c-154 0 -114 379 49 379
c26 0 43 -21 51 -44c18 5 51 5 51 -56z" />
    <glyph glyph-name="b_ss1" horiz-adv-x="742" 
d="M778 244c4 0 7 -4 7 -9c-2 -64 -21 -127 -50 -169c0 0 -1 -1 -1 -2c-13 -19 -47 -70 -108 -70c-19 0 -36 9 -50 22c-15 -9 -33 -15 -52 -15c-25 0 -43 22 -51 45c-13 -4 -33 -4 -43 18c-7 -16 -14 -31 -22 -45c-28 -49 -68 -86 -115 -105c-24 -10 -63 -18 -87 -18
c-278 0 -259 397 -34 397c40 0 59 -38 31 -58c-2 4 -7 16 -29 16c-174 0 -193 -339 30 -339c23 0 60 7 83 16c43 19 80 53 107 99c12 20 22 43 29 67v8c0 32 5 94 7 148c-19 81 -60 168 -60 263c0 45 0 122 58 122c70 0 63 -237 61 -332c13 35 44 77 85 77
c131 0 121 -273 16 -355c11 -9 23 -15 36 -15c52 0 82 44 95 63c0 1 1 2 1 2c27 40 45 100 47 161c0 4 4 8 9 8zM430 304c-1 24 -3 55 -3 124c0 93 27 191 -1 191c-31 0 -41 -47 -41 -116c0 -50 25 -132 45 -199zM524 27c11 0 21 4 30 11c-2 3 -4 5 -6 7
c-15 18 -30 34 -44 34c-13 0 -20 -12 -20 -23v-3v-2c6 -13 18 -24 40 -24zM565 50c59 70 65 282 -2 282c-39 0 -77 -71 -77 -122c0 -29 -5 -75 -4 -123c6 5 14 8 22 8c21 0 38 -19 56 -39c2 -2 3 -4 5 -6z" />
    <glyph glyph-name="b_ss2" horiz-adv-x="1047" 
d="M1083 244c4 0 7 -4 7 -9c-2 -64 -21 -127 -50 -169c0 0 -1 -1 -1 -2c-13 -19 -47 -70 -108 -70c-19 0 -36 9 -50 22c-15 -9 -33 -15 -52 -15c-25 0 -43 22 -51 45c-12 -3 -32 -4 -42 15c-6 -14 -13 -29 -21 -42c-28 -49 -68 -86 -115 -105c-24 -10 -63 -18 -88 -18
c-277 0 -258 397 -33 397c13 0 24 -4 31 -10c-1 37 -18 74 -49 101c-38 34 -96 31 -166 31c-123 0 -741 -184 -741 -15c0 46 9 65 26 63c4 0 3 -7 -6 -10c-21 -8 -16 -64 119 -64c85 0 515 63 603 63c74 0 135 -19 176 -56c35 -31 54 -73 54 -116c0 -26 -8 -50 -22 -68
c-15 -19 -38 -29 -63 -29c-5 0 -7 3 -7 7c0 5 4 8 8 8c32 0 52 20 62 46c-4 3 -11 7 -23 7c-174 0 -193 -339 30 -339c23 0 60 7 83 16c43 19 80 53 107 99c11 19 20 40 27 62v13c0 32 5 94 7 148c-19 81 -60 168 -60 263c0 45 0 122 58 122c70 0 63 -237 61 -332
c13 35 44 77 85 77c131 0 121 -273 16 -355c11 -9 23 -15 36 -15c52 0 82 44 95 63c0 1 1 2 1 2c27 40 45 100 47 161c0 4 4 8 9 8zM735 304c-1 24 -3 55 -3 124c0 93 27 191 -1 191c-31 0 -41 -47 -41 -116c0 -50 25 -132 45 -199zM829 27c11 0 21 4 30 11c-2 3 -4 5 -6 7
c-15 18 -30 34 -44 34c-13 0 -20 -12 -20 -23v-3v-2c6 -13 18 -24 40 -24zM870 50c59 70 65 282 -2 282c-39 0 -77 -71 -77 -122c0 -29 -5 -75 -4 -123c6 5 14 8 22 8c21 0 38 -19 56 -39c2 -2 3 -4 5 -6z" />
    <glyph glyph-name="b_ss3" horiz-adv-x="767" 
d="M803 244c4 0 7 -4 7 -9c-2 -64 -21 -127 -50 -169c0 0 -1 -1 -1 -2c-13 -19 -47 -70 -108 -70c-19 0 -36 9 -50 22c-15 -9 -33 -15 -52 -15c-25 0 -43 22 -51 45c-18 -5 -50 -5 -50 56c0 10 0 24 1 40c-1 -3 -3 -5 -4 -8c-48 -74 -136 -112 -227 -112
c-216 0 -434 180 -434 408c0 172 94 306 285 306c77 0 159 -36 187 -77c26 -37 5 -60 -17 -64c-4 -1 7 7 2 16c-22 36 -64 67 -115 85c-195 66 -326 -73 -326 -266c0 -199 178 -372 384 -390c113 -11 216 34 268 142c1 22 2 46 3 68c-19 81 -60 168 -60 263
c0 45 0 122 58 122c70 0 63 -237 61 -332c13 35 44 77 85 77c131 0 121 -273 16 -355c11 -9 23 -15 36 -15c52 0 82 44 95 63c0 1 1 2 1 2c27 40 45 100 47 161c0 4 4 8 9 8zM455 304c-1 24 -3 55 -3 124c0 93 27 191 -1 191c-31 0 -41 -47 -41 -116c0 -50 25 -132 45 -199z
M549 27c11 0 21 4 30 11c-2 3 -4 5 -6 7c-15 18 -30 34 -44 34c-13 0 -20 -12 -20 -23v-3v-2c6 -13 18 -24 40 -24zM590 50c59 70 65 282 -2 282c-39 0 -77 -71 -77 -122c0 -29 -5 -75 -4 -123c6 5 14 8 22 8c21 0 38 -19 56 -39c2 -2 3 -4 5 -6z" />
    <glyph glyph-name="b_ss4" horiz-adv-x="315" 
d="M351 244c4 0 7 -4 7 -9c-2 -64 -21 -127 -50 -169c0 0 -1 -1 -1 -2c-13 -19 -47 -70 -108 -70c-19 0 -36 9 -50 22c-15 -9 -33 -15 -52 -15c-25 0 -43 22 -51 45c-18 -5 -50 -5 -50 56c0 32 7 253 7 313v59c0 17 0 34 1 50c-11 6 -21 14 -30 25c-18 20 -30 49 -33 80
c-6 52 15 77 35 82c75 14 83 -144 86 -186c2 -1 6 -1 10 -1c43 3 63 44 63 82s-18 75 -49 103c-39 35 -97 31 -167 31c-122 0 -740 -184 -740 -15c0 46 8 65 25 64c4 -1 3 -7 -5 -11c-22 -8 -17 -63 118 -63c86 0 516 63 604 63c73 0 134 -20 175 -57c35 -31 55 -73 55 -115
c0 -27 -8 -51 -22 -69c-14 -17 -35 -27 -57 -28h-9c4 -77 1 -158 0 -205c13 34 43 76 84 76c131 0 121 -273 16 -355c11 -9 23 -15 36 -15c52 0 82 44 95 63c0 1 1 2 1 2c27 40 45 100 47 161c0 4 4 8 9 8zM-14 559c6 -7 12 -12 20 -17c-4 24 32 166 -26 153
c-15 -4 -28 -25 -23 -64c3 -28 13 -54 29 -72zM97 27c11 0 21 4 30 11c-2 3 -4 5 -6 7c-15 18 -30 34 -44 34c-13 0 -20 -12 -20 -23v-3v-2c6 -13 18 -24 40 -24zM138 50c59 70 65 282 -2 282c-39 0 -77 -71 -77 -122c0 -29 -5 -75 -4 -123c6 5 14 8 22 8
c21 0 38 -19 56 -39c2 -2 3 -4 5 -6z" />
    <glyph glyph-name="b_ss5" horiz-adv-x="324" 
d="M360 244c4 0 7 -4 7 -9c-2 -64 -21 -127 -50 -169c0 0 -1 -1 -1 -2c-13 -19 -47 -70 -108 -70c-19 0 -36 9 -50 22c-15 -9 -33 -15 -52 -15c-25 0 -43 22 -51 45c-18 -5 -50 -5 -50 56c0 49 5 99 7 202c-1 22 0 50 0 105v60l-3 3c-30 31 -50 69 -59 109
c-19 -6 -37 -12 -56 -19c-123 -44 -251 -89 -392 -89c-64 0 -122 24 -164 68c-38 40 -61 94 -61 146c0 50 20 95 56 127c40 36 101 55 174 55c157 0 251 -145 277 -146c5 0 4 6 6 2c3 -9 -19 -50 -72 -22c-35 18 -106 150 -211 150c-69 0 -126 -18 -164 -51
c-32 -29 -50 -70 -50 -115c0 -48 21 -97 56 -135c19 -19 41 -34 66 -45c27 -12 56 -18 87 -18c138 0 264 45 387 88c19 7 39 14 58 20c-2 10 -2 20 -2 29c0 29 6 52 16 68c10 15 24 23 39 23c12 0 23 -5 31 -14c16 -16 20 -49 23 -72c63 17 125 28 190 28
c33 0 61 -10 80 -29c17 -18 26 -42 26 -70c0 -37 -17 -76 -46 -105c-24 -24 -66 -52 -132 -52c-36 0 -70 8 -100 23c1 -47 0 -92 -1 -123c13 35 44 77 85 77c131 0 121 -273 16 -355c11 -9 23 -15 36 -15c52 0 82 44 95 63c0 1 1 2 1 2c27 40 45 100 47 161c0 4 4 8 9 8z
M244 643c-64 0 -125 -11 -187 -28c7 -49 11 -111 12 -169c31 -18 66 -27 103 -27c61 0 99 26 121 47c26 26 41 61 41 94c0 40 -24 83 -90 83zM-39 626c0 -8 0 -16 1 -23c21 6 41 13 62 19c2 20 12 79 -24 79c-9 0 -18 -5 -25 -16c-7 -9 -14 -27 -14 -59zM-35 587
c7 -35 23 -67 47 -95c1 42 6 81 10 113zM106 27c11 0 21 4 30 11c-2 3 -4 5 -6 7c-15 18 -30 34 -44 34c-13 0 -20 -12 -20 -23v-3v-2c6 -13 18 -24 40 -24zM147 50c59 70 65 282 -2 282c-39 0 -77 -71 -77 -122c0 -29 -5 -75 -4 -123c6 5 14 8 22 8c21 0 38 -19 56 -39
c2 -2 3 -4 5 -6z" />
    <glyph glyph-name="b_ss6" horiz-adv-x="316" 
d="M352 244c4 0 7 -4 7 -9c-2 -64 -21 -127 -50 -169c0 0 -1 -1 -1 -2c-13 -19 -47 -70 -108 -70c-19 0 -36 9 -50 22c-15 -9 -33 -15 -52 -15c-25 0 -43 22 -51 45c-18 -5 -50 -5 -50 56c0 95 7 200 7 307v60l-3 3c-30 31 -50 69 -59 109c-18 -6 -237 -108 -378 -108
c-221 0 -222 219 -133 219c23 0 43 -8 43 -23c0 -6 -11 11 -15 6c-45 -50 -19 -186 105 -186c138 0 356 102 375 108c-1 10 -2 20 -2 29c0 29 6 52 17 68c10 15 24 23 38 23c42 0 50 -53 54 -86c63 17 125 28 190 28c34 0 61 -10 80 -29c17 -18 26 -42 26 -70
c0 -37 -16 -76 -46 -105c-23 -24 -65 -52 -132 -52c-35 0 -70 8 -100 23c1 -47 0 -92 -1 -123c13 35 44 77 85 77c131 0 121 -273 16 -355c11 -9 23 -15 36 -15c52 0 82 44 95 63c0 1 1 2 1 2c27 40 45 100 47 161c0 4 4 8 9 8zM236 643c-64 0 -125 -11 -187 -28
c7 -49 11 -111 12 -169c31 -17 66 -27 103 -27c61 0 99 26 121 47c26 26 41 61 41 94c0 40 -23 83 -90 83zM-47 626c0 -8 1 -16 2 -23c20 6 40 13 61 19c1 18 12 79 -24 79c-9 0 -18 -5 -25 -16c-6 -9 -14 -27 -14 -59zM-43 587c7 -35 24 -67 47 -95c1 42 6 81 10 113z
M98 27c11 0 21 4 30 11c-2 3 -4 5 -6 7c-15 18 -30 34 -44 34c-13 0 -20 -12 -20 -23v-3v-2c6 -13 18 -24 40 -24zM139 50c59 70 65 282 -2 282c-39 0 -77 -71 -77 -122c0 -29 -5 -75 -4 -123c6 5 14 8 22 8c21 0 38 -19 56 -39c2 -2 3 -4 5 -6z" />
    <glyph glyph-name="b_ss7" horiz-adv-x="322" 
d="M177 423c-34 0 -72 5 -110 15v-19c1 -43 0 -83 -1 -112v-4c13 35 44 77 85 77c131 0 121 -273 16 -355c11 -9 23 -15 36 -15c52 0 82 44 95 63c0 1 1 2 1 2c27 40 45 100 47 161c0 4 4 8 9 8c4 0 7 -4 7 -9c-2 -64 -21 -127 -50 -169c0 0 -1 -1 -1 -2
c-13 -19 -47 -70 -108 -70c-19 0 -36 9 -50 22c-15 -9 -33 -15 -52 -15c-25 0 -43 22 -51 45c-18 -5 -50 -5 -50 56c0 123 7 201 7 307v52c-60 30 -106 80 -106 154c0 36 13 60 24 74c14 18 32 30 52 30c96 0 88 -188 90 -264c35 -10 73 -16 110 -16c273 0 341 154 341 227
c0 90 -93 144 -148 144c-177 0 -213 -154 -213 -180c0 -4 9 -10 -5 -6c-34 12 -46 28 -46 49c0 54 89 152 243 152c120 0 185 -81 185 -158c0 -75 -65 -244 -357 -244zM101 27c11 0 21 4 30 11c-2 3 -4 5 -6 7c-15 18 -30 34 -44 34c-13 0 -20 -12 -20 -23v-3v-2
c6 -13 18 -24 40 -24zM140 332c-39 0 -77 -71 -77 -122c0 -29 -5 -75 -4 -123c6 5 14 8 22 8c21 0 38 -19 56 -39c2 -2 3 -4 5 -6c59 70 65 282 -2 282zM-57 533c15 -21 37 -39 64 -54c-13 69 56 224 -29 224c-15 0 -30 -10 -41 -24c-9 -12 -20 -32 -20 -64
c0 -31 9 -58 26 -82z" />
    <glyph glyph-name="b_ss8" horiz-adv-x="317" 
d="M353 244c4 0 7 -4 7 -9c-2 -64 -21 -127 -50 -169c0 0 -1 -1 -1 -2c-13 -19 -47 -70 -108 -70c-19 0 -36 9 -50 22c-15 -9 -33 -15 -52 -15c-25 0 -43 22 -51 45c-18 -5 -50 -5 -50 56c0 96 7 192 7 307v62v9c-60 -30 -124 -59 -189 -59c-76 0 -139 23 -182 66
c-38 38 -59 90 -59 147c0 56 21 111 58 151c29 32 84 70 168 70c62 0 117 -18 160 -51c71 -54 94 -166 100 -255c55 30 112 55 166 55c32 0 64 -6 76 -35c5 -12 0 -35 -12 -35c-4 0 4 7 -4 11c-30 18 -97 25 -224 -36c1 -26 2 -56 2 -90c1 -43 0 -83 -1 -112v-4
c13 35 44 77 85 77c131 0 121 -273 16 -355c11 -9 23 -15 36 -15c52 0 82 44 95 63c0 1 1 2 1 2c27 40 45 100 47 161c0 4 4 8 9 8zM-184 437c56 0 121 40 190 81c5 70 27 141 -3 211c-12 24 -30 45 -52 62c-40 31 -91 48 -150 48c-79 0 -130 -35 -156 -64
c-34 -38 -54 -89 -54 -141s19 -100 54 -135c40 -40 99 -62 171 -62zM99 27c11 0 21 4 30 11c-2 3 -4 5 -6 7c-15 18 -30 34 -44 34c-13 0 -20 -12 -20 -23v-3v-2c6 -13 18 -24 40 -24zM140 50c59 70 65 282 -2 282c-39 0 -77 -71 -77 -122c0 -29 -5 -75 -4 -123
c6 5 14 8 22 8c21 0 38 -19 56 -39c2 -2 3 -4 5 -6z" />
    <glyph glyph-name="b_ss9" horiz-adv-x="319" 
d="M592 882c127 0 203 -94 203 -182c0 -53 -22 -106 -60 -146c-43 -44 -101 -68 -164 -68c-141 0 -269 45 -393 89c-18 6 -37 13 -55 19c-9 -38 -28 -75 -55 -105v-70c1 -43 0 -83 -1 -112v-4c13 35 44 77 85 77c131 0 121 -273 16 -355c11 -9 23 -15 36 -15
c52 0 82 44 95 63c0 1 1 2 1 2c27 40 45 100 47 161c0 4 4 8 9 8c4 0 7 -4 7 -9c-2 -64 -21 -127 -50 -169c0 0 -1 -1 -1 -2c-13 -19 -47 -70 -108 -70c-19 0 -36 9 -50 22c-15 -9 -33 -15 -52 -15c-25 0 -43 22 -51 45c-18 -5 -50 -5 -50 56c0 123 7 201 7 307v34
c-33 -18 -69 -27 -107 -27c-67 0 -109 28 -132 51c-30 30 -47 68 -47 106c0 44 33 113 128 113c67 0 121 -19 179 -41c5 31 -18 85 37 85c15 0 35 -8 45 -23c11 -16 17 -40 17 -68c0 -10 -1 -19 -2 -29c19 -7 38 -13 58 -20c122 -43 249 -88 387 -88c31 0 60 6 86 17
c25 11 47 27 66 46c36 37 56 86 56 135c0 81 -73 166 -187 166c-105 0 -186 -150 -274 -165c-40 -7 -64 28 -61 37c2 4 1 -2 6 -2c58 0 153 146 329 146zM-99 432c38 0 75 10 107 29v10c0 62 12 117 19 158c-58 22 -112 41 -177 41c-67 0 -112 -42 -112 -97
c0 -33 16 -68 42 -94c21 -22 60 -47 121 -47zM102 27c11 0 21 4 30 11c-2 3 -4 5 -6 7c-15 18 -30 34 -44 34c-13 0 -20 -12 -20 -23v-3v-2c6 -13 18 -24 40 -24zM141 332c-39 0 -77 -71 -77 -122c0 -29 -5 -75 -4 -123c6 5 14 8 22 8c21 0 38 -19 56 -39c2 -2 3 -4 5 -6
c59 70 65 282 -2 282zM68 514c19 25 33 55 39 85c-15 5 -30 11 -44 16c3 -27 4 -60 5 -101zM110 615c1 8 2 16 2 24c0 32 -8 50 -14 59c-7 10 -22 16 -32 16c-39 0 -10 -60 -6 -81c16 -6 33 -12 50 -18z" />
    <glyph glyph-name="b_ss10" horiz-adv-x="318" 
d="M914 639c76 0 104 -35 104 -76c0 -38 -20 -49 -24 -49c-15 0 -12 10 0 14c24 7 35 71 -97 48c-145 -25 -456 -133 -770 -133c-20 0 -41 2 -61 6c0 -6 0 -12 1 -17v0c1 -50 0 -97 -1 -129c13 35 44 77 85 77c131 0 121 -273 16 -355c11 -9 23 -15 36 -15c52 0 82 44 95 63
c0 1 1 2 1 2c27 40 45 100 47 161c0 4 4 8 9 8c4 0 7 -4 7 -9c-2 -64 -21 -127 -50 -169c0 0 -1 -1 -1 -2c-13 -19 -47 -70 -108 -70c-19 0 -36 9 -50 22c-15 -9 -33 -15 -52 -15c-25 0 -43 22 -51 45c-18 -5 -50 -5 -50 56c0 100 13 200 7 313v0v52
c-76 29 -145 97 -145 194c0 47 21 115 81 121c21 2 45 -2 62 -16c66 -55 58 -211 61 -300c20 -4 41 -7 61 -7c248 0 594 180 787 180zM101 27c11 0 21 4 30 11c-2 3 -4 5 -6 7c-15 18 -30 34 -44 34c-13 0 -20 -12 -20 -23v-3v-2c6 -13 18 -24 40 -24zM140 332
c-39 0 -77 -71 -77 -122c0 -29 -5 -75 -4 -123c6 5 14 8 22 8c21 0 38 -19 56 -39c2 -2 3 -4 5 -6c59 70 65 282 -2 282zM-120 660c0 -78 52 -144 127 -176v19c0 94 57 274 -62 263c-32 -3 -65 -32 -65 -106z" />
    <glyph glyph-name="b_ss11" horiz-adv-x="311" 
d="M289 47c49 0 78 -30 78 -76c0 -76 -77 -140 -230 -140h-604c-135 0 -140 -56 -118 -64c8 -3 9 -10 5 -10c-17 -2 -25 17 -25 63c0 170 498 57 740 57c125 0 216 16 216 94c0 30 -16 58 -60 61c-25 0 -46 -38 -89 -38c-19 0 -36 9 -50 22c-15 -9 -33 -15 -52 -15
c-25 0 -43 22 -51 45c-18 -5 -50 -5 -50 56c0 24 4 114 6 166c-21 75 -56 156 -56 243c0 45 1 122 58 122c68 0 64 -219 62 -321c15 33 43 68 81 68c131 0 121 -273 16 -355c11 -9 23 -15 36 -15c34 0 47 37 87 37zM5 617c-31 0 -41 -47 -41 -116c0 -46 22 -122 42 -186
c-1 21 0 50 0 100v0v11c0 93 28 191 -1 191zM100 27c11 0 21 4 30 11c-2 3 -4 5 -6 7c-15 18 -30 34 -44 34c-13 0 -20 -12 -20 -23v-3v-2c6 -13 18 -24 40 -24zM141 50c59 70 65 282 -2 282c-30 0 -61 -44 -72 -88c-1 -6 -2 -12 -4 -16c-1 -6 -1 -12 -1 -18
c0 -29 -5 -75 -4 -123c6 5 14 8 22 8c21 0 38 -19 56 -39c2 -2 3 -4 5 -6z" />
    <glyph glyph-name="b_ss12" horiz-adv-x="616" 
d="M533 730c156 0 289 -105 289 -306c0 -32 -2 -67 -8 -104c-9 -69 -30 -133 -61 -191c-29 -53 -66 -100 -109 -139c-40 -35 -86 -64 -133 -82c-39 -15 -91 -22 -133 -22c-133 0 -200 62 -232 127c-14 -7 -29 -12 -47 -12c-25 0 -43 22 -51 45c-18 -5 -50 -5 -50 56
c0 24 4 114 6 166c-21 75 -56 156 -56 243c0 45 1 122 58 122c68 0 64 -219 62 -321c15 33 43 68 81 68c131 0 119 -273 14 -356v0c1 -1 1 -1 1 -2c35 -71 113 -120 215 -120c82 0 177 31 254 100c42 38 78 83 105 134c31 57 51 119 61 186c5 36 7 70 7 101
c0 86 -47 258 -257 258c-135 0 -197 -85 -218 -130c-2 -4 7 -9 2 -8c-36 8 -43 34 -40 47c17 79 124 140 240 140zM4 617c-31 0 -41 -47 -41 -116c0 -46 22 -122 42 -186c-1 21 0 50 0 100v0v11c0 93 28 191 -1 191zM61 210c0 -29 -5 -75 -4 -123c6 5 14 8 22 8
c21 0 42 -10 65 -44c59 70 61 281 -6 281c-30 0 -61 -44 -72 -88c-1 -6 -2 -12 -4 -16c-1 -6 -1 -12 -1 -18zM99 27c11 0 21 4 30 11c-10 24 -36 41 -50 41c-13 0 -20 -12 -20 -23v-3v-2c6 -13 18 -24 40 -24z" />
    <glyph glyph-name="b_ss13" horiz-adv-x="472" 
d="M444 268c247 0 244 -475 -51 -475c-25 0 -85 12 -108 24c-44 24 -87 62 -110 112c-13 26 -24 58 -32 81c-13 -5 -27 -9 -42 -9c-25 0 -43 22 -51 45c-18 -5 -50 -5 -50 56c0 24 4 114 6 166c-21 75 -56 156 -56 243c0 45 1 122 58 122c68 0 64 -219 62 -321
c15 33 43 68 81 68c131 0 121 -273 16 -355c-3 -3 -6 -5 -9 -7c18 -59 66 -210 238 -210c270 0 252 420 42 420c-23 0 -44 -24 -26 -36c-35 0 -29 76 32 76zM6 617c-31 0 -41 -47 -41 -116c0 -46 22 -122 42 -186c-1 21 0 50 0 100v0v11c0 93 28 191 -1 191zM63 210
c0 -29 -5 -75 -4 -123c6 5 14 8 22 8c21 0 51 -10 65 -46c59 70 61 283 -6 283c-30 0 -61 -44 -72 -88c-1 -6 -2 -12 -4 -16c-1 -6 -1 -12 -1 -18zM101 27c11 0 21 4 30 11c-7 26 -36 41 -50 41c-13 0 -20 -12 -20 -23v-3v-2c6 -13 18 -24 40 -24z" />
    <glyph glyph-name="b_ss14" horiz-adv-x="914" 
d="M1297 463c17 2 26 -17 26 -63c0 -169 -618 15 -741 15c-70 0 -128 3 -166 -31c-32 -28 -49 -66 -49 -104c0 -22 7 -46 22 -62c-1 22 16 50 53 50c247 0 244 -475 -51 -475c-25 0 -85 12 -108 24c-44 24 -87 62 -110 112c-13 26 -24 58 -32 81c-13 -5 -27 -9 -42 -9
c-25 0 -43 22 -51 45c-18 -5 -50 -5 -50 56c0 24 4 114 6 166c-21 75 -56 156 -56 243c0 45 1 122 58 122c68 0 64 -219 62 -321c15 33 43 68 81 68c131 0 121 -273 16 -355c-3 -3 -6 -5 -9 -7c18 -59 66 -210 238 -210c270 0 252 420 42 420c-16 0 -30 -11 -32 -22
c8 -5 19 -8 31 -8c4 0 8 -3 8 -8c0 -4 -2 -7 -7 -7c-25 0 -48 10 -63 29c-15 18 -22 42 -22 68c0 43 19 85 54 116c41 37 102 56 176 56c88 0 518 -63 603 -63c135 0 140 56 119 64c-9 3 -10 10 -6 10zM5 426c0 93 28 191 -1 191c-31 0 -41 -47 -41 -116
c0 -46 22 -122 42 -186c-1 21 0 50 0 100v0v11zM99 27c11 0 21 4 30 11c-7 26 -36 41 -50 41c-13 0 -20 -12 -20 -23v-3v-2c6 -13 18 -24 40 -24zM79 95c21 0 51 -10 65 -46c59 70 61 283 -6 283c-30 0 -61 -44 -72 -88c-1 -6 -2 -12 -4 -16c-1 -6 -1 -12 -1 -18
c0 -29 -5 -75 -4 -123c6 5 14 8 22 8z" />
    <glyph glyph-name="b_ss15" horiz-adv-x="308" 
d="M-39 633c0 -43 15 -88 45 -126c-2 60 55 201 -6 201c-9 0 -18 -6 -25 -16c-6 -9 -14 -27 -14 -59zM99 27c11 0 21 4 30 11l-6 7c-15 18 -30 34 -44 34c-13 0 -20 -12 -20 -23v-3v-2c6 -13 18 -24 40 -24zM140 50c59 70 65 282 -2 282c-39 0 -77 -71 -77 -122
c0 -29 -5 -75 -4 -123c6 5 14 8 22 8c21 0 38 -19 56 -39zM5 484c-38 38 -60 93 -60 149c0 28 6 52 17 68c9 15 24 23 38 23c85 0 59 -192 65 -263c34 -18 75 -28 119 -28c79 0 130 35 157 64c34 38 53 89 53 141s-19 100 -54 135c-40 40 -99 62 -171 62
c-114 0 -269 -167 -411 -167c-31 0 -64 6 -76 35c-5 12 0 35 12 35c4 0 -4 -7 4 -11c31 -18 99 -25 229 38c75 37 157 86 242 86c76 0 139 -23 182 -66c38 -38 59 -91 59 -147s-21 -111 -58 -151c-28 -32 -84 -70 -168 -70c-44 0 -84 9 -119 26c1 -67 0 -107 -1 -136v-4
c13 35 44 77 85 77c131 0 121 -273 16 -355c11 -9 23 -15 36 -15c52 0 82 44 95 63c0 1 1 2 1 2c27 40 45 100 47 161c0 4 4 8 9 8c4 0 7 -4 7 -9c-2 -64 -21 -127 -50 -169c0 0 -1 -1 -1 -2c-13 -19 -47 -70 -108 -70c-19 0 -36 9 -50 22c-15 -9 -33 -15 -52 -15
c-25 0 -43 22 -51 45c-18 -5 -50 -5 -50 56c0 96 7 192 7 307v75z" />
    <glyph glyph-name="c_ss1" horiz-adv-x="578" 
d="M613 242c5 0 8 -4 8 -8c-2 -55 -17 -111 -39 -152c-8 -15 -44 -82 -111 -82c-22 0 -45 2 -66 14c-28 -47 -67 -82 -112 -100c-24 -10 -63 -18 -87 -18c-278 0 -259 397 -34 397c40 0 59 -38 32 -58c-2 4 -7 16 -30 16c-174 0 -193 -339 30 -339c23 0 61 7 83 16
c42 18 78 50 105 94c-8 6 -15 14 -22 23c-20 27 -30 63 -32 102v13c0 87 46 220 140 220c33 0 36 -33 36 -57c0 -26 -10 -56 -28 -84c-6 -9 -18 -14 -28 -14c-2 -60 -12 -120 -32 -169c12 -13 28 -22 50 -22c26 0 69 13 92 56c21 39 35 92 37 145c0 4 4 7 8 7zM399 178v-20
c0 -18 2 -56 17 -85c16 47 25 104 26 161c-1 2 -2 4 -2 6c0 27 24 43 48 35c6 16 9 31 9 45c0 19 -7 34 -20 34c-46 0 -77 -82 -78 -176z" />
    <glyph glyph-name="c_ss2" horiz-adv-x="879" 
d="M914 242c5 0 8 -4 8 -8c-2 -55 -17 -111 -39 -152c-8 -15 -44 -82 -111 -82c-23 0 -46 3 -67 14c-42 -69 -116 -118 -200 -118c-277 0 -258 397 -33 397c19 0 34 -9 40 -21c1 3 1 6 1 8c0 38 -18 76 -49 104c-39 34 -97 31 -167 31c-122 0 -740 -184 -740 -15
c0 46 8 65 25 63c4 0 4 -7 -5 -10c-22 -8 -17 -64 118 -64c86 0 516 63 604 63c73 0 134 -19 176 -56c34 -31 54 -73 54 -116c0 -26 -8 -50 -22 -68c-15 -19 -39 -29 -64 -29c-4 0 -6 3 -6 7c0 5 3 8 8 8c28 0 47 16 58 38c-2 4 -8 15 -29 15c-174 0 -193 -339 30 -339
c79 0 143 43 188 111c-8 6 -15 13 -21 22c-20 27 -30 63 -32 102v13c0 87 46 220 140 220c33 0 36 -33 36 -57c0 -26 -10 -56 -28 -84c-6 -10 -19 -15 -30 -14c-1 -60 -11 -119 -31 -167c12 -15 28 -24 51 -24c26 0 69 13 92 56c21 39 35 92 37 145c0 4 4 7 8 7zM700 178
v-20c0 -18 2 -54 16 -83c19 52 25 109 25 165c0 27 24 43 48 35c6 16 9 31 9 45c0 19 -7 34 -20 34c-46 0 -77 -82 -78 -176z" />
    <glyph glyph-name="c_ss3" horiz-adv-x="607" 
d="M642 242c5 0 8 -4 8 -8c-2 -55 -17 -111 -39 -152c-8 -15 -44 -82 -111 -82c-36 0 -73 6 -101 45c-6 8 -11 17 -15 26l-9 -6c-44 -28 -97 -43 -157 -43c-11 0 -23 1 -35 2c-97 9 -196 53 -270 122c-40 37 -71 79 -93 125c-24 50 -36 104 -36 159c0 82 18 149 53 199
c30 44 89 107 232 107c77 0 159 -36 187 -77c26 -37 5 -60 -17 -64c-4 -1 7 7 2 16c-22 36 -64 67 -115 85c-53 18 -110 20 -160 6c-48 -13 -88 -42 -116 -82c-33 -48 -50 -112 -50 -190c0 -53 12 -104 34 -152c21 -44 51 -85 89 -120c72 -66 167 -110 262 -118
c68 -7 135 7 193 46c-7 19 -10 39 -11 61c0 75 34 233 140 233c33 0 36 -33 36 -57c0 -26 -10 -56 -28 -84c-6 -11 -22 -15 -33 -13c-7 -34 -20 -65 -37 -92c-4 -6 -9 -12 -13 -18c6 -38 24 -82 73 -82c26 0 69 13 92 56c21 39 35 92 37 145c0 4 4 7 8 7zM506 354
c-64 0 -78 -133 -78 -196c0 -5 0 -12 1 -19c1 1 2 3 2 4c19 28 31 61 38 99v0c2 26 25 41 48 33c6 16 9 31 9 45c0 19 -7 34 -20 34z" />
    <glyph glyph-name="c_ss4" horiz-adv-x="240" 
d="M460 527c11 0 17 -23 12 -35c-12 -29 -45 -35 -77 -35c-141 0 -296 167 -411 167c-71 0 -130 -21 -170 -62c-35 -35 -55 -83 -55 -135s20 -103 54 -141c27 -29 78 -64 156 -64c13 0 26 1 38 3c16 76 60 155 133 155c33 0 36 -33 36 -57c0 -26 -10 -56 -28 -84
c-11 -18 -44 -19 -46 0c-12 -7 -25 -13 -38 -17c-2 -14 -3 -29 -3 -44v-20c0 -32 6 -124 77 -124c26 0 69 13 92 56c21 39 35 92 37 145c0 4 4 7 8 7c5 0 8 -4 8 -8c-2 -55 -17 -111 -39 -152c-8 -15 -44 -82 -111 -82c-36 0 -73 6 -101 45c-20 27 -30 63 -32 102v13
c0 15 1 32 4 48c-11 -1 -23 -2 -35 -2c-84 0 -139 38 -168 70c-37 40 -58 95 -58 151c0 57 21 109 59 147c43 43 106 66 182 66c86 0 167 -49 243 -86c129 -63 198 -56 229 -38c7 4 -1 11 4 11zM139 354c-35 0 -62 -49 -73 -114c15 6 29 13 43 22c8 13 25 19 41 13
c6 16 9 31 9 45c0 19 -7 34 -20 34z" />
    <glyph glyph-name="c_ss5" horiz-adv-x="240" 
d="M849 550c4 0 24 -11 24 -49c0 -41 -28 -81 -104 -81c-193 0 -324 107 -513 107c-56 0 -116 -17 -161 -46c-26 -17 -47 -38 -62 -62c-16 -27 -24 -58 -24 -93c0 -25 3 -44 10 -60c21 61 61 114 121 114c33 0 36 -33 36 -57c0 -16 -4 -33 -11 -50c-2 -7 -5 -13 -8 -18
c-3 -6 -5 -11 -9 -16c-2 -3 -5 -6 -9 -9c-3 -3 -6 -5 -9 -8c-17 -13 -37 -20 -58 -18c-3 0 -7 1 -10 2c-1 -9 -1 -19 -1 -28v-20c0 -32 6 -124 77 -124c26 0 69 13 92 56c21 39 35 92 37 145c0 4 4 7 8 7c5 0 8 -4 8 -8c-2 -55 -17 -111 -39 -152c-8 -15 -44 -82 -111 -82
c-36 0 -73 6 -101 45c-20 27 -30 63 -32 102v13c0 26 4 55 12 84c-13 21 -19 49 -19 82c0 71 32 129 94 168c47 31 110 49 169 49c226 0 355 -54 497 -61c133 -5 120 47 96 54c-12 4 -15 14 0 14zM139 354c-39 0 -67 -58 -75 -132c3 -1 6 -2 10 -2c14 -1 27 1 38 7
c-6 2 -10 6 -10 13c0 27 24 43 47 35c1 1 1 2 1 2c1 3 2 8 4 11c3 11 5 22 5 32c0 19 -7 34 -20 34z" />
    <glyph glyph-name="c_ss6" horiz-adv-x="251" 
d="M364 66c5 -42 -9 -86 -39 -121c-36 -42 -94 -70 -167 -79c-87 -12 -522 -6 -606 -17c-134 -17 -132 -73 -109 -78c9 -3 11 -9 6 -10c-16 -4 -27 14 -33 59c-22 168 614 67 736 83c69 9 127 13 161 52c27 32 40 71 35 109c-5 36 -27 74 -66 73c-19 -1 -29 -39 -37 -55
c-8 -15 -44 -82 -111 -82c-36 0 -73 6 -101 45c-20 27 -30 63 -32 102v13c0 87 46 220 140 220c33 0 36 -33 36 -57c0 -26 -10 -56 -28 -84c-11 -18 -46 -19 -46 1c0 27 24 43 48 35c6 16 9 31 9 45c0 19 -7 34 -20 34c-46 0 -77 -82 -78 -176v-20c0 -32 6 -124 77 -124
c26 0 69 13 92 56c9 17 20 62 49 62c22 0 38 -7 53 -21c17 -15 27 -39 31 -65z" />
    <glyph glyph-name="c_ss7" horiz-adv-x="568" 
d="M516 280c247 0 244 -475 -51 -475c-188 0 -246 165 -258 227c-18 -17 -42 -32 -74 -32c-36 0 -73 6 -101 45c-20 27 -30 63 -32 102v13c0 87 46 220 140 220c33 0 36 -33 36 -57c0 -26 -10 -56 -28 -84c-11 -18 -46 -19 -46 1c0 27 24 43 48 35c6 16 9 31 9 45
c0 19 -7 34 -20 34c-46 0 -77 -82 -78 -176v-20c0 -32 6 -124 77 -124c17 0 43 6 64 23c-2 21 -2 40 -2 60c0 28 3 57 11 79c10 32 24 39 34 39c68 0 4 -170 -25 -189c8 -65 61 -226 248 -226c270 0 252 420 42 420c-23 0 -44 -25 -26 -36c-35 0 -29 76 32 76zM216 117
c0 -16 0 -30 1 -46c5 6 9 12 13 19c9 17 16 35 22 55c13 49 4 66 1 70c-2 3 -5 4 -8 4c-5 0 -12 -7 -19 -28c-7 -20 -11 -49 -10 -74z" />
    <glyph glyph-name="c_ss8" horiz-adv-x="1013" 
d="M1393 463c17 2 25 -17 25 -63c0 -169 -618 15 -741 15c-69 0 -128 3 -166 -31c-31 -28 -49 -66 -49 -104c0 -10 2 -21 5 -32c7 17 23 32 50 32c247 0 244 -475 -51 -475c-188 0 -246 165 -258 227c-18 -17 -42 -32 -74 -32c-36 0 -73 6 -101 45c-20 27 -30 63 -32 102v13
c0 87 46 220 140 220c33 0 36 -33 36 -57c0 -26 -10 -56 -28 -84c-11 -18 -46 -19 -46 1c0 27 24 43 48 35c6 16 9 31 9 45c0 19 -7 34 -20 34c-64 0 -78 -133 -78 -196c0 -32 6 -124 77 -124c17 0 43 6 64 23c-6 31 -11 178 43 178c60 0 17 -123 -1 -153
c-4 -6 -11 -20 -24 -36c8 -65 61 -226 248 -226c270 0 252 420 42 420c-14 0 -26 -9 -31 -18c11 -14 28 -24 50 -24c4 0 8 -3 8 -8c0 -4 -2 -7 -6 -7c-25 0 -49 10 -64 29c-14 18 -22 42 -22 68c0 43 20 85 54 116c42 37 103 56 176 56c88 0 518 -63 603 -63
c136 0 140 56 119 64c-9 3 -10 10 -5 10zM217 124c0 -17 0 -35 1 -53c5 6 9 12 13 19c9 17 16 35 22 55c13 49 4 66 1 70c-2 3 -5 4 -8 4c-21 0 -29 -79 -29 -95z" />
    <glyph glyph-name="c_ss9" horiz-adv-x="778" 
d="M611 692c156 0 289 -105 289 -306c0 -32 -2 -67 -8 -104c-9 -68 -30 -133 -61 -191c-29 -53 -66 -100 -109 -138c-40 -36 -86 -65 -133 -83c-39 -15 -86 -22 -128 -22c-171 0 -238 105 -255 183c-18 -17 -42 -31 -73 -31c-36 0 -73 6 -101 45c-20 27 -30 63 -32 102v13
c0 87 46 220 140 220c33 0 36 -33 36 -57c0 -26 -10 -56 -28 -84c-11 -18 -46 -19 -46 1c0 27 24 43 48 35c6 16 9 31 9 45c0 19 -7 34 -20 34c-46 0 -77 -82 -78 -176v-20c0 -32 6 -124 77 -124c17 0 42 6 64 23c-3 34 -7 94 9 139c10 32 24 39 34 39c46 0 28 -76 21 -101
v0c-6 -19 -14 -36 -22 -52c-4 -6 -11 -20 -24 -36c14 -101 107 -183 237 -183c82 0 177 33 254 102c42 37 78 82 105 134c31 56 51 119 61 186c5 36 7 69 7 100c0 86 -47 258 -257 258c-135 0 -196 -85 -218 -130c-4 -8 10 -4 4 -9c-4 -3 -49 16 -42 49
c17 78 124 139 240 139zM218 73c4 5 8 11 12 17c9 17 16 35 22 55c13 49 4 66 1 70c-2 3 -5 4 -8 4c-5 0 -12 -7 -19 -28c-6 -18 -13 -77 -8 -118z" />
    <glyph glyph-name="d_ss1" horiz-adv-x="766" 
d="M809 235c-2 -55 -16 -110 -39 -151c-8 -15 -17 -28 -27 -38v0c-24 -27 -50 -44 -78 -44c-52 0 -49 84 -49 98c-6 -35 -40 -99 -90 -99c-46 0 -75 34 -88 82c-8 -24 -17 -45 -28 -64c-28 -49 -68 -86 -115 -105c-24 -10 -63 -18 -87 -18c-278 0 -259 397 -34 397
c40 0 59 -38 31 -58c-2 4 -7 16 -29 16c-174 0 -193 -339 30 -339c23 0 60 7 83 16c43 19 80 53 107 99c15 26 27 58 35 93c-13 111 41 260 144 260h4c-12 43 -22 87 -22 133c0 45 0 122 58 122c75 0 62 -272 62 -351v-4c0 -46 -11 -149 -7 -206c2 -23 8 -39 19 -39
c12 0 25 6 38 17c10 10 20 22 29 40c22 39 35 91 37 144c0 4 4 8 8 8c5 0 8 -4 8 -9zM613 172c0 20 3 48 4 79c-8 33 -19 68 -30 103c-3 1 -7 1 -11 1c-95 0 -120 -305 -40 -305c39 0 77 71 77 122zM605 345c4 -14 8 -27 12 -40c0 9 -1 17 -2 26c-2 5 -5 10 -10 14zM614 428
c0 93 28 191 -1 191c-31 0 -41 -47 -41 -116c0 -33 11 -81 25 -128c7 -4 13 -10 18 -17c0 18 -1 40 -1 70z" />
    <glyph glyph-name="d_ss2" horiz-adv-x="1039" 
d="M1082 235c-2 -55 -16 -110 -39 -151c-8 -15 -17 -28 -27 -38v0c-24 -27 -50 -44 -78 -44c-52 0 -49 84 -49 98c-6 -35 -40 -99 -90 -99c-46 0 -75 34 -88 82c-8 -24 -17 -45 -28 -64c-28 -49 -68 -86 -115 -105c-24 -10 -63 -18 -87 -18c-278 0 -259 397 -34 397
c9 0 17 -2 24 -5c-8 24 -23 47 -43 66c-39 34 -97 31 -167 31c-122 0 -740 -184 -740 -15c0 46 8 65 25 63c4 0 3 -7 -5 -10c-22 -8 -17 -64 118 -64c86 0 516 63 604 63c73 0 134 -19 175 -56c35 -31 55 -73 55 -116c0 -26 -8 -50 -22 -68c-16 -19 -39 -29 -64 -29
c-4 0 -6 3 -6 7c0 5 3 8 8 8c42 0 63 35 67 71c-3 5 -10 12 -27 12c-174 0 -193 -339 30 -339c23 0 60 7 83 16c43 19 80 53 107 99c15 26 27 58 35 93c-13 111 41 260 144 260h4c-12 43 -22 87 -22 133c0 45 0 122 58 122c75 0 62 -272 62 -351v-4c0 -46 -11 -149 -7 -206
c2 -23 8 -39 19 -39c12 0 25 6 38 17c10 10 20 22 29 40c22 39 35 91 37 144c0 4 4 8 8 8c5 0 8 -4 8 -9zM886 172c0 20 3 48 4 79c-8 33 -19 68 -30 103c-3 1 -7 1 -11 1c-95 0 -120 -305 -40 -305c39 0 77 71 77 122zM878 345c4 -14 8 -27 12 -40c0 9 -1 17 -2 26
c-2 5 -5 10 -10 14zM887 428c0 93 28 191 -1 191c-31 0 -41 -47 -41 -116c0 -33 11 -81 25 -128c7 -4 13 -10 18 -17c0 18 -1 40 -1 70z" />
    <glyph glyph-name="d_ss3" horiz-adv-x="781" 
d="M824 235c-2 -55 -16 -110 -39 -151c-8 -15 -17 -28 -27 -38v0c-24 -27 -50 -44 -78 -44c-52 0 -49 84 -49 98c-6 -35 -40 -99 -90 -99c-62 0 -92 60 -97 133c-48 -74 -135 -112 -226 -112c-216 0 -434 179 -434 408c0 172 90 306 285 306c77 0 159 -36 187 -77
c26 -37 5 -60 -17 -64c-4 -1 7 7 2 16c-22 36 -64 67 -115 85c-95 32 -213 14 -276 -76c-33 -48 -50 -112 -50 -190c0 -202 181 -373 385 -390c91 -9 191 19 246 103c5 7 9 15 13 22c5 103 57 215 146 215h4c-12 43 -22 87 -22 133c0 45 0 122 58 122c75 0 62 -272 62 -351
v-4c0 -46 -11 -149 -7 -206c2 -23 8 -39 19 -39c12 0 25 6 38 17c10 10 20 22 29 40c22 39 35 91 37 144c0 4 4 8 8 8c5 0 8 -4 8 -9zM628 172c0 20 3 48 4 79c-8 33 -19 68 -30 103c-3 1 -7 1 -11 1c-95 0 -120 -305 -40 -305c39 0 77 71 77 122zM620 345
c4 -14 8 -27 12 -40c0 9 -1 17 -2 26c-2 5 -5 10 -10 14zM629 428c0 93 28 191 -1 191c-31 0 -41 -47 -41 -116c0 -33 11 -81 25 -128c7 -4 13 -10 18 -17c0 18 -1 40 -1 70z" />
    <glyph glyph-name="d_ss4" horiz-adv-x="338" 
d="M381 235c-2 -55 -16 -110 -39 -151c-8 -15 -17 -28 -27 -38v0c-24 -27 -50 -44 -78 -44c-52 0 -49 84 -49 98c-6 -35 -40 -99 -90 -99c-154 0 -114 379 49 379c20 0 36 -13 45 -30c-1 44 -1 94 -1 121c0 23 2 45 4 66c-8 5 -15 12 -21 19c-18 21 -30 49 -33 81
c-6 52 15 76 35 81c11 3 22 0 32 -7c8 -6 14 -13 19 -23c1 0 1 -1 1 -1l3 -6c0 -2 1 -3 2 -5v-1c13 -36 17 -77 18 -142c6 -1 8 -2 21 -2c43 4 63 44 63 82s-18 76 -49 104c-39 34 -97 30 -167 30c-122 0 -740 -184 -740 -14c0 46 8 65 25 63c4 0 3 -7 -5 -10
c-22 -8 -17 -64 118 -64c86 0 516 63 604 63c73 0 134 -19 175 -57c35 -30 55 -72 55 -115c0 -26 -8 -51 -22 -68c-14 -18 -36 -29 -65 -29c-5 0 -9 0 -13 1v-102c0 -43 -2 -119 -2 -139c0 -12 -1 -21 -2 -29c-2 -52 -8 -128 -5 -173c2 -23 8 -39 19 -39c12 0 25 6 38 17
c10 10 20 22 29 40c22 39 35 91 37 144c0 4 4 8 8 8c5 0 8 -4 8 -9zM186 567c4 -5 8 -9 12 -12c8 55 20 100 15 124v3c-9 15 -22 23 -33 20c-15 -3 -28 -24 -23 -64c3 -28 13 -53 29 -71zM185 172c0 37 9 98 2 159c-6 13 -18 24 -39 24c-95 0 -120 -305 -40 -305
c39 0 77 71 77 122z" />
    <glyph glyph-name="d_ss5" horiz-adv-x="337" 
d="M248 276c0 -66 -11 -132 -6 -202c2 -23 8 -39 19 -39c12 0 25 6 38 17c10 10 20 22 29 40c22 39 35 91 37 144c0 4 4 8 8 8c5 0 8 -4 8 -9c-2 -55 -16 -110 -39 -151c-8 -15 -17 -28 -27 -38v0c-24 -27 -50 -44 -78 -44c-52 0 -49 84 -49 98c-6 -35 -40 -99 -90 -99
c-154 0 -114 379 49 379c20 0 36 -13 45 -30c-1 44 -1 94 -1 121v4c-25 29 -43 64 -51 101c-18 -7 -37 -13 -56 -20c-123 -43 -251 -88 -392 -88c-64 0 -122 24 -164 68c-38 40 -60 93 -60 146c0 49 19 94 55 126c40 36 101 56 175 56c157 0 250 -146 276 -147c5 0 4 7 6 3
c3 -10 -19 -51 -72 -23c-35 19 -105 151 -210 151c-70 0 -127 -18 -164 -52c-33 -29 -50 -69 -50 -114c0 -49 20 -98 56 -135c18 -20 40 -35 65 -46c27 -11 56 -17 87 -17c138 0 265 44 387 87c20 7 39 14 58 21c-1 9 -2 19 -2 29c0 28 6 52 17 68c9 14 24 23 38 23
c12 0 23 -5 31 -15c2 -2 5 -6 6 -9c1 0 1 -1 1 -1c8 -18 13 -38 17 -62c62 17 124 29 189 29c33 0 61 -11 80 -30c17 -17 26 -42 26 -69c0 -38 -17 -77 -46 -106c-24 -23 -66 -51 -132 -51c-40 0 -77 10 -111 28v-11c0 -43 -3 -119 -3 -139zM434 638
c-64 0 -125 -12 -187 -29c4 -40 4 -91 4 -164c33 -20 71 -31 111 -31c61 0 99 25 121 46c26 26 41 62 41 95c0 40 -23 83 -90 83zM151 621c0 -8 0 -16 1 -24c19 6 37 12 56 18c5 27 8 49 5 64v3c-6 9 -14 14 -23 14s-18 -6 -25 -16c-6 -10 -14 -28 -14 -59zM155 581
c6 -29 19 -57 37 -81c2 35 8 68 13 97c-17 -5 -33 -11 -50 -16zM185 172c0 37 9 98 2 159c-6 13 -18 24 -39 24c-95 0 -120 -305 -40 -305c39 0 77 71 77 122z" />
    <glyph glyph-name="d_ss6" horiz-adv-x="338" 
d="M537 785c38 -38 59 -91 59 -147s-21 -111 -58 -151c-28 -32 -84 -70 -168 -70c-44 0 -84 9 -119 26v-28c0 -43 -2 -119 -2 -139c0 -66 -12 -132 -7 -202c2 -23 8 -39 19 -39c12 0 25 6 38 17c10 10 20 22 29 40c22 39 35 91 37 144c0 4 4 8 8 8c5 0 8 -4 8 -9
c-2 -55 -16 -110 -39 -151c-8 -15 -17 -28 -27 -38v0c-24 -27 -50 -44 -78 -44c-52 0 -49 84 -49 98c-6 -35 -40 -99 -90 -99c-154 0 -114 379 49 379c20 0 36 -13 45 -30c-1 44 -1 94 -1 121v13c-38 38 -60 93 -60 149c0 28 6 52 17 68c9 15 24 23 38 23
c85 0 59 -192 65 -263c34 -18 75 -28 119 -28c79 0 130 35 157 64c34 38 53 89 53 141s-19 100 -54 135c-40 40 -99 62 -171 62c-114 0 -269 -167 -411 -167c-31 0 -64 6 -76 35c-5 12 0 35 12 35c4 0 -4 -7 4 -11c31 -18 99 -25 229 38c75 37 157 86 242 86
c76 0 139 -23 182 -66zM147 633c0 -43 15 -88 45 -126c-2 60 55 201 -6 201c-9 0 -18 -6 -25 -16c-6 -9 -14 -27 -14 -59zM108 50c100 0 79 209 79 281c-6 13 -18 24 -39 24c-95 0 -120 -305 -40 -305z" />
    <glyph glyph-name="d_ss7" horiz-adv-x="338" 
d="M185 172c0 37 9 98 2 159c-6 13 -18 24 -39 24c-95 0 -120 -305 -40 -305c39 0 77 71 77 122zM251 426v-11c0 -43 -3 -119 -3 -139c0 -66 -9 -132 -4 -202c2 -23 6 -39 17 -39c12 0 25 6 38 17c10 10 20 22 29 40c22 39 35 91 37 144c0 4 4 8 8 8c5 0 8 -4 8 -9
c-2 -55 -16 -110 -39 -151c-8 -15 -17 -28 -27 -38c-24 -27 -50 -44 -78 -44c-52 0 -49 84 -49 98c-6 -35 -40 -99 -90 -99c-154 0 -114 379 49 379c20 0 36 -13 45 -30c-1 11 -1 22 -1 33v86l-3 3c-30 31 -50 69 -59 109c-18 -6 -237 -108 -378 -108
c-221 0 -222 219 -133 219c23 0 43 -8 43 -23c0 -6 -11 11 -15 6c-45 -50 -19 -186 105 -186c138 0 356 102 375 108c-1 10 -2 20 -2 29c0 29 6 52 17 68c10 15 24 23 38 23c42 0 50 -53 54 -86c63 17 125 28 190 28c34 0 61 -10 80 -29c17 -18 26 -42 26 -70
c0 -37 -16 -76 -46 -105c-23 -24 -65 -52 -132 -52c-35 0 -70 8 -100 23zM423 643c-64 0 -125 -11 -187 -28c7 -49 11 -111 12 -169c31 -17 66 -27 103 -27c61 0 99 26 121 47c26 26 41 61 41 94c0 40 -23 83 -90 83zM140 626c0 -8 1 -16 2 -23c20 6 40 13 61 19
c1 18 12 79 -24 79c-9 0 -18 -5 -25 -16c-6 -9 -14 -27 -14 -59zM144 587c7 -35 24 -67 47 -95c1 42 6 81 10 113z" />
    <glyph glyph-name="d_ss8" horiz-adv-x="336" 
d="M726 669c0 -75 -64 -244 -356 -244c-36 0 -79 5 -119 18c0 -120 -14 -241 -6 -369c2 -23 5 -39 16 -39c12 0 25 6 38 17c10 10 20 22 29 40c22 39 35 91 37 144c0 4 4 8 8 8c5 0 8 -4 8 -9c-2 -55 -16 -110 -39 -151c-8 -15 -17 -28 -27 -38v0c-24 -27 -50 -44 -78 -44
c-52 0 -49 84 -49 98c-6 -35 -40 -99 -90 -99c-154 0 -114 379 49 379c20 0 36 -13 45 -30c0 43 -1 91 -1 118c-55 30 -97 78 -97 149c0 36 13 60 23 74c14 18 33 30 52 30c36 0 58 -24 68 -57c13 -45 14 -102 14 -204c37 -12 79 -19 119 -19c272 0 341 154 341 227
c0 90 -94 144 -148 144c-178 0 -213 -154 -213 -180c0 -3 9 -10 -6 -6c-34 12 -46 28 -46 49c0 54 89 152 243 152c121 0 185 -81 185 -158zM185 172c0 37 9 98 2 159c-6 13 -18 24 -39 24c-95 0 -120 -305 -40 -305c39 0 77 71 77 122zM136 535c13 -19 32 -35 55 -49
c-9 69 68 219 -21 219c-14 0 -29 -9 -40 -24c-9 -12 -20 -32 -20 -64c0 -31 9 -58 26 -82z" />
    <glyph glyph-name="d_ss9" horiz-adv-x="338" 
d="M495 586c5 -12 0 -36 -12 -36c-5 0 4 7 -4 11c-31 18 -99 25 -228 -38v-108c0 -108 -16 -234 -9 -341c2 -23 8 -39 19 -39c12 0 25 6 38 17c10 10 20 22 29 40c22 39 35 91 37 144c0 4 4 8 8 8c5 0 8 -4 8 -9c-2 -55 -16 -110 -39 -151c-8 -15 -17 -28 -27 -38v0
c-24 -27 -50 -44 -78 -44c-52 0 -49 84 -49 98c-6 -35 -40 -99 -90 -99c-154 0 -114 379 49 379c20 0 36 -13 45 -30c-1 44 -1 94 -1 121c0 7 0 15 1 23c-59 -29 -121 -57 -185 -57c-76 0 -138 23 -182 67c-38 38 -58 90 -58 146s21 111 57 152c29 31 84 69 169 69
c62 0 117 -18 160 -51c82 -62 84 -157 97 -256c56 30 113 56 168 56c32 0 65 -6 77 -34zM185 172c0 37 9 98 2 159c-6 13 -18 24 -39 24c-95 0 -120 -305 -40 -305c39 0 77 71 77 122zM7 454c56 0 120 38 188 78c8 71 34 141 -1 213c-12 24 -29 46 -51 63
c-40 30 -91 47 -150 47c-79 0 -130 -35 -157 -64c-34 -37 -53 -89 -53 -141s19 -100 54 -135c40 -40 99 -61 170 -61z" />
    <glyph glyph-name="d_ss10" horiz-adv-x="338" 
d="M775 881c127 0 203 -94 203 -182c0 -53 -22 -106 -60 -146c-42 -44 -100 -68 -164 -68c-141 0 -269 45 -392 89c-19 6 -37 13 -56 19c-8 -38 -27 -75 -55 -105v-73c0 -43 -3 -119 -3 -139c0 -151 -7 -132 -2 -202c2 -23 4 -39 15 -39c12 0 25 6 38 17c10 10 20 22 29 40
c22 39 35 91 37 144c0 4 4 8 8 8c5 0 8 -4 8 -9c-2 -55 -16 -110 -39 -151c-8 -15 -17 -28 -27 -38v0c-24 -27 -50 -44 -78 -44c-52 0 -49 84 -49 98c-6 -35 -40 -99 -90 -99c-154 0 -114 379 49 379c20 0 36 -13 45 -30c0 31 -1 65 -1 92c-32 -18 -69 -27 -107 -27
c-66 0 -108 28 -132 51c-29 30 -46 68 -46 106c0 44 32 113 127 113c67 0 121 -19 179 -41c5 31 -17 85 38 85c15 0 35 -8 45 -23c10 -16 16 -40 16 -68c0 -10 -1 -19 -2 -29c19 -7 39 -13 58 -20c122 -43 249 -88 387 -88c31 0 60 6 87 18c25 10 47 26 65 45
c36 37 56 86 56 135c0 81 -73 166 -187 166c-105 0 -186 -150 -274 -165c-39 -7 -64 28 -60 37c1 4 1 -2 5 -2c58 0 153 146 329 146zM185 172c0 37 9 98 2 159c-6 13 -18 24 -39 24c-95 0 -120 -305 -40 -305c39 0 77 71 77 122zM84 431c39 0 75 10 107 29v11
c0 61 13 116 19 157c-58 22 -111 41 -177 41s-111 -42 -111 -97c0 -33 15 -68 41 -94c22 -21 60 -47 121 -47zM251 513c20 25 34 55 40 85c-16 6 -30 11 -45 16c3 -27 5 -60 5 -101zM294 614c1 8 1 16 1 24c0 32 -7 50 -14 59c-7 11 -22 16 -31 16c-14 0 -25 -7 -20 -31
c6 -15 11 -31 14 -50c16 -6 32 -12 50 -18z" />
    <glyph glyph-name="d_ss11" horiz-adv-x="338" 
d="M1115 572c76 0 103 -39 103 -81c0 -38 -19 -49 -23 -49c-15 0 -12 10 0 14c24 7 37 59 -97 54c-141 -6 -548 -104 -775 -104c-23 0 -48 3 -72 9c0 -55 -4 -55 -4 -168c-2 -52 -8 -128 -5 -173c2 -23 8 -39 19 -39c12 0 25 6 38 17c10 10 20 22 29 40c22 39 35 91 37 144
c0 4 4 8 8 8c5 0 8 -4 8 -9c-2 -55 -16 -110 -39 -151c-8 -15 -17 -28 -27 -38v0c-24 -27 -50 -44 -78 -44c-52 0 -49 84 -49 98c-6 -35 -40 -99 -90 -99c-154 0 -114 379 49 379c20 0 36 -13 45 -30c0 29 -1 60 -1 85c-13 6 -25 12 -37 20c-61 39 -94 97 -94 168
c0 37 8 67 24 89c14 19 34 31 56 33c20 2 41 -5 58 -18c17 -14 33 -38 38 -61c15 -50 15 -113 15 -235c24 -6 49 -9 72 -9c190 0 659 150 792 150zM185 172c0 37 9 98 2 159c-6 13 -18 24 -39 24c-95 0 -120 -305 -40 -305c39 0 77 71 77 122zM163 468c9 -5 18 -11 28 -15
v18c0 85 24 159 23 198c-2 27 -32 64 -73 60c-31 -3 -65 -32 -65 -106c0 -35 9 -66 25 -93c15 -24 35 -45 62 -62z" />
    <glyph glyph-name="d_ss12" horiz-adv-x="495" 
d="M467 67c6 -42 -8 -86 -38 -121c-37 -43 -94 -70 -167 -80c-88 -11 -522 -5 -607 -16c-134 -18 -131 -73 -109 -79c9 -2 11 -8 7 -9c-17 -4 -28 14 -34 59c-22 168 615 67 736 83c69 9 128 13 161 52c28 32 40 71 35 109c-5 37 -29 75 -72 73c-24 0 -27 -35 -37 -54
c-8 -15 -17 -28 -27 -38v0c-24 -27 -50 -44 -78 -44c-52 0 -49 84 -49 98c-6 -35 -40 -99 -90 -99c-154 0 -114 379 49 379h3c-12 42 -21 86 -21 131s0 122 58 122c76 0 62 -241 62 -355c0 -67 -8 -134 -3 -204c2 -23 10 -37 21 -37c12 0 19 4 32 15c10 10 20 22 29 40
c10 17 18 61 46 61v0c23 2 46 -5 62 -21c17 -16 28 -39 31 -65zM188 325c0 2 -1 4 -1 6c-2 5 -6 11 -11 15c4 -15 9 -29 13 -43c0 6 -1 14 -1 22zM144 501c0 -32 10 -79 23 -126c8 -3 14 -9 20 -16c-1 17 -1 39 -1 67c0 93 27 191 -1 191c-31 0 -41 -47 -41 -116zM185 172
c0 19 3 46 4 76c-8 34 -20 70 -31 106c-3 1 -7 1 -10 1c-95 0 -120 -305 -40 -305c39 0 77 71 77 122z" />
    <glyph glyph-name="d_ss13" horiz-adv-x="524" 
d="M502 268c248 0 245 -475 -51 -475c-202 0 -245 130 -254 202c-2 17 -8 100 -8 105c-6 -35 -40 -99 -90 -99c-154 0 -114 379 49 379h3c-12 42 -21 86 -21 131s0 122 58 122c76 0 62 -200 62 -355c0 -207 -47 -470 204 -470c271 0 253 420 42 420c-22 0 -44 -24 -25 -36
c-36 0 -29 76 31 76zM189 325c0 2 -1 4 -1 6c-2 5 -6 11 -11 15c4 -15 9 -29 13 -43c0 6 -1 14 -1 22zM145 501c0 -32 10 -79 23 -126c8 -3 14 -9 20 -16c-1 17 -1 39 -1 67c0 93 27 191 -1 191c-31 0 -41 -47 -41 -116zM186 172c0 19 3 46 4 76c-8 34 -20 70 -31 106
c-3 1 -7 1 -10 1c-95 0 -120 -305 -40 -305c39 0 77 71 77 122z" />
    <glyph glyph-name="d_ss14" horiz-adv-x="982" 
d="M1369 453c17 1 25 -18 25 -64c0 -169 -618 15 -740 15c-70 0 -128 4 -167 -31c-31 -27 -49 -65 -49 -103c0 -16 4 -32 10 -46c3 21 20 44 53 44c248 0 245 -475 -51 -475c-202 0 -245 130 -254 202c-2 17 -8 100 -8 105c-6 -35 -40 -99 -90 -99c-154 0 -114 379 49 379h3
c-12 42 -21 86 -21 131s0 122 58 122c76 0 62 -241 62 -355c0 -108 -18 -218 3 -332c27 -66 82 -138 201 -138c271 0 253 420 42 420c-16 0 -31 -12 -32 -23c11 -11 25 -17 43 -17c5 0 8 -4 8 -8c0 -5 -2 -8 -6 -8c-25 0 -49 10 -64 29c-14 18 -22 42 -22 69
c0 42 20 84 54 115c42 37 103 57 176 57c88 0 518 -63 603 -63c136 0 141 55 119 63c-9 4 -10 10 -5 11zM185 172c0 19 3 46 4 76c-8 34 -20 70 -31 106c-3 1 -7 1 -10 1c-95 0 -120 -305 -40 -305c39 0 77 71 77 122zM176 346c4 -15 9 -29 13 -43c0 6 -1 14 -1 22
c0 2 -1 4 -1 6c-2 5 -6 11 -11 15zM186 426c0 93 27 191 -1 191c-31 0 -41 -47 -41 -116c0 -32 10 -79 23 -126c8 -3 14 -9 20 -16c-1 17 -1 39 -1 67z" />
    <glyph glyph-name="d_ss15" horiz-adv-x="671" 
d="M611 692c155 0 288 -105 288 -306c0 -32 -2 -67 -7 -104c-10 -68 -31 -133 -62 -191c-29 -53 -65 -100 -109 -138c-40 -36 -140 -120 -261 -120c-162 0 -244 89 -266 185v0c-8 39 -6 78 -6 82c-6 -35 -40 -99 -90 -99c-154 0 -114 379 49 379h3c-12 42 -21 86 -21 131
s0 122 58 122c76 0 62 -241 62 -355c0 -79 -6 -157 0 -249v0c7 -97 84 -181 207 -181c83 0 177 48 254 117c43 37 78 82 106 134c30 56 50 119 60 186c5 36 7 69 7 100c0 86 -47 258 -257 258c-135 0 -196 -85 -218 -130v-7c-3 -3 -43 24 -37 47c17 78 124 139 240 139z
M188 325c0 2 -1 4 -1 6c-2 5 -6 11 -11 15c4 -15 9 -29 13 -43c0 6 -1 14 -1 22zM144 501c0 -32 10 -79 23 -126c8 -3 14 -9 20 -16c-1 17 -1 39 -1 67c0 93 27 191 -1 191c-31 0 -41 -47 -41 -116zM185 172c0 19 3 46 4 76c-8 34 -20 70 -31 106c-3 1 -7 1 -10 1
c-95 0 -120 -305 -40 -305c39 0 77 71 77 122z" />
    <glyph glyph-name="e_ss1" horiz-adv-x="663" 
d="M697 242c5 0 8 -4 8 -9c-2 -55 -17 -110 -39 -151c-8 -15 -44 -82 -111 -82c-36 0 -73 6 -101 45c-8 11 -15 23 -20 37c-7 -23 -16 -44 -27 -63c-29 -49 -68 -86 -115 -105c-24 -10 -63 -18 -88 -18c-277 0 -258 397 -33 397c40 0 58 -38 31 -58c-2 4 -7 16 -29 16
c-174 0 -193 -339 30 -339c23 0 60 7 83 16c43 19 80 53 107 99c14 24 25 53 33 85c-2 11 -3 22 -4 34v14c0 87 37 220 131 220c29 0 45 -26 45 -50c0 -41 -46 -86 -115 -119c0 -33 -13 -178 77 -178c26 0 69 14 92 57c21 39 35 91 37 144c0 4 4 8 8 8zM552 354
c-46 0 -61 -68 -69 -124c64 31 98 77 98 98c0 18 -16 26 -29 26z" />
    <glyph glyph-name="e_ss2" horiz-adv-x="959" 
d="M994 242c5 0 8 -4 8 -9c-2 -55 -17 -110 -39 -151c-8 -15 -44 -82 -111 -82c-36 0 -73 6 -101 45c-8 11 -15 23 -20 37c-7 -23 -16 -44 -27 -63c-29 -49 -68 -86 -115 -105c-24 -10 -63 -18 -88 -18c-277 0 -258 397 -33 397c8 0 16 -1 22 -4c-7 24 -22 47 -42 65
c-39 34 -97 31 -167 31c-123 0 -741 -184 -741 -15c0 46 9 65 26 63c4 0 3 -7 -6 -10c-21 -8 -16 -64 119 -64c85 0 515 63 603 63c74 0 135 -19 176 -56c29 -25 54 -66 54 -116c0 -48 -30 -97 -85 -97c-5 0 -7 3 -7 7c0 5 4 8 8 8c43 0 65 36 68 73c-4 4 -11 10 -26 10
c-174 0 -193 -339 30 -339c23 0 60 7 83 16c43 19 80 53 107 99c14 24 25 53 33 85c-14 77 16 268 127 268c29 0 45 -26 45 -50c0 -41 -46 -86 -115 -119c0 -33 -13 -178 77 -178c26 0 69 14 92 57c21 39 35 91 37 144c0 4 4 8 8 8zM849 354c-46 0 -61 -68 -69 -124
c64 31 98 77 98 98c0 18 -16 26 -29 26z" />
    <glyph glyph-name="e_ss3" horiz-adv-x="684" 
d="M719 242c5 0 8 -4 8 -9c-2 -55 -17 -110 -39 -151c-8 -15 -44 -82 -111 -82c-36 0 -73 6 -101 45c-18 24 -28 55 -31 89c-18 -28 -42 -51 -70 -69c-44 -28 -97 -43 -157 -43c-11 0 -23 1 -35 2c-97 9 -196 53 -270 122c-40 37 -71 79 -93 125c-24 50 -36 104 -36 159
c0 82 18 149 53 199c30 44 89 107 232 107c77 0 159 -36 187 -77c26 -37 5 -60 -17 -64c-4 -1 7 7 2 16c-22 36 -64 67 -115 85c-53 18 -110 20 -160 6c-48 -13 -88 -42 -116 -82c-33 -48 -50 -112 -50 -190c0 -53 12 -104 34 -152c21 -44 51 -85 89 -120
c72 -66 167 -110 262 -118c69 -7 132 7 181 38c27 17 48 39 65 65c5 7 9 14 13 22c1 87 39 215 131 215c29 0 45 -26 45 -50c0 -41 -46 -86 -115 -119c0 -33 -13 -178 77 -178c26 0 69 14 92 57c21 39 35 91 37 144c0 4 4 8 8 8zM574 354c-46 0 -61 -68 -69 -124
c64 31 98 77 98 98c0 18 -16 26 -29 26z" />
    <glyph glyph-name="e_ss4" horiz-adv-x="240" 
d="M436 509c12 0 17 -23 12 -35c-12 -29 -45 -35 -76 -35c-142 0 -297 167 -411 167c-72 0 -131 -22 -171 -62c-35 -35 -54 -83 -54 -135s19 -103 53 -141c27 -29 78 -64 157 -64c20 0 39 2 58 6c11 80 50 170 127 170c29 0 45 -26 45 -50c0 -41 -46 -86 -115 -119
c0 -33 -13 -178 77 -178c26 0 69 14 92 57c21 39 35 91 37 144c0 4 4 8 8 8c5 0 8 -4 8 -9c-2 -55 -17 -110 -39 -151c-8 -15 -44 -82 -111 -82c-36 0 -73 6 -101 45c-20 27 -30 63 -32 101v14c0 10 1 22 2 33c-18 -3 -37 -5 -56 -5c-84 0 -140 38 -168 70
c-37 40 -58 95 -58 151c0 57 21 109 59 147c43 43 106 66 182 66c85 0 167 -49 242 -86c130 -63 198 -56 229 -38c8 4 0 11 4 11zM130 354c-46 0 -61 -68 -69 -124c64 31 98 77 98 98c0 18 -16 26 -29 26z" />
    <glyph glyph-name="e_ss5" horiz-adv-x="391" 
d="M370 67c5 -42 -9 -86 -39 -121c-36 -43 -94 -70 -167 -80c-87 -11 -521 -5 -606 -16c-134 -18 -131 -73 -109 -79c9 -2 11 -8 6 -9c-16 -4 -27 14 -33 59c-22 168 615 67 736 83c69 9 128 13 161 52c27 32 40 71 35 109c-5 37 -30 75 -72 73c-11 0 -15 -5 -19 -12
c-5 -16 -12 -31 -19 -44c-8 -15 -44 -82 -111 -82c-36 0 -73 6 -101 45c-20 27 -30 63 -32 101v14c0 87 37 220 131 220c29 0 45 -26 45 -50c0 -41 -46 -86 -115 -119c0 -33 -13 -178 77 -178c26 0 69 14 92 57c6 11 12 23 16 37c5 12 14 26 31 26v0c23 2 46 -5 62 -21
c17 -16 27 -39 31 -65zM130 354c-46 0 -61 -68 -69 -124c64 31 98 77 98 98c0 18 -16 26 -29 26z" />
    <glyph glyph-name="e_ss6" horiz-adv-x="566" 
d="M515 280c247 0 244 -475 -52 -475c-186 0 -244 162 -257 225c-18 -16 -42 -30 -73 -30c-36 0 -73 6 -101 45c-20 27 -30 63 -32 101v14c0 87 37 220 131 220c29 0 45 -26 45 -50c0 -41 -46 -86 -115 -119c0 -33 -13 -178 77 -178c17 0 42 6 63 22c-2 21 -2 41 -2 69
c0 26 4 52 11 72c10 32 24 39 34 39c8 0 15 -4 21 -11c25 -31 -3 -109 -21 -142c-3 -7 -12 -22 -25 -38c9 -64 61 -224 247 -224c271 0 253 420 42 420c-22 0 -43 -25 -25 -36c-35 0 -29 76 32 76zM130 354c-46 0 -61 -68 -69 -124c64 31 98 77 98 98c0 18 -16 26 -29 26z
M215 124c0 -18 0 -36 1 -55c5 6 10 13 14 21c14 25 42 98 22 125c-2 3 -5 4 -8 4c-5 0 -12 -7 -19 -28c-6 -18 -10 -43 -10 -67z" />
    <glyph glyph-name="e_ss7" horiz-adv-x="1005" 
d="M1383 463c17 2 25 -17 25 -63c0 -169 -618 15 -740 15c-70 0 -128 3 -167 -31c-31 -28 -48 -66 -48 -104c0 -15 3 -30 9 -43c3 20 20 43 53 43c247 0 244 -475 -52 -475c-186 0 -244 162 -257 225c-18 -16 -42 -30 -73 -30c-36 0 -73 6 -101 45c-20 27 -30 63 -32 101v14
c0 87 37 220 131 220c29 0 45 -26 45 -50c0 -41 -46 -86 -115 -119c0 -33 -13 -178 77 -178c17 0 42 6 63 22c-2 21 -2 41 -2 69c0 26 4 52 11 72c10 32 24 39 34 39c8 0 15 -4 21 -11c25 -31 -3 -109 -21 -142c-3 -7 -12 -22 -25 -38c9 -64 61 -224 247 -224
c271 0 253 420 42 420c-16 0 -31 -13 -32 -24c11 -11 26 -18 44 -18c5 0 8 -3 8 -8c0 -4 -2 -7 -6 -7c-25 0 -48 10 -64 29c-14 18 -21 42 -21 68c0 43 19 85 54 116c41 37 102 56 175 56c88 0 519 -63 604 -63c135 0 140 56 118 64c-8 3 -9 10 -5 10zM130 354
c-46 0 -61 -68 -69 -124c64 31 98 77 98 98c0 18 -16 26 -29 26zM215 124c0 -18 0 -36 1 -55c5 6 10 13 14 21c14 25 42 98 22 125c-2 3 -5 4 -8 4c-5 0 -12 -7 -19 -28c-6 -18 -10 -43 -10 -67z" />
    <glyph glyph-name="e_ss8" horiz-adv-x="695" 
d="M612 692c144 0 296 -105 296 -306c0 -32 -2 -67 -8 -104c-9 -68 -37 -133 -68 -191c-29 -53 -66 -100 -109 -138c-40 -36 -86 -65 -133 -83c-39 -15 -86 -22 -128 -22c-171 0 -237 104 -255 182c-18 -16 -42 -30 -73 -30c-36 0 -73 6 -101 45c-20 27 -30 63 -32 101v14
c0 87 37 220 131 220c29 0 45 -26 45 -50c0 -41 -46 -86 -115 -119c0 -33 -13 -178 77 -178c13 0 32 3 49 13c5 3 10 7 14 11c-4 44 -6 93 10 139c10 32 24 39 34 39c8 0 15 -4 21 -11c28 -37 -3 -105 -22 -142c-3 -6 -11 -21 -24 -36c14 -102 107 -183 237 -183
c82 0 177 33 254 102c42 37 78 82 105 134c31 56 58 119 68 186c5 36 7 69 7 100c0 86 -71 258 -264 258c-135 0 -196 -85 -218 -130v-7c-4 -3 -43 24 -38 47c18 78 124 139 240 139zM131 354c-46 0 -61 -68 -69 -124c64 31 98 77 98 98c0 18 -16 26 -29 26zM219 73
c21 25 58 111 35 142c-2 3 -5 4 -8 4c-5 0 -12 -7 -19 -28c-6 -18 -12 -48 -8 -118z" />
    <glyph glyph-name="f_ss1" horiz-adv-x="606" 
d="M649 235c-2 -55 -16 -110 -39 -151c-9 -16 -19 -30 -30 -41c1 -16 1 -29 1 -41c0 -118 -24 -265 -70 -265h-1h-4c-52 0 -82 119 -82 213c0 21 1 53 2 90c-4 -7 -7 -14 -11 -21c-29 -49 -69 -86 -115 -105c-24 -10 -63 -18 -88 -18c-278 0 -259 397 -34 397
c41 0 59 -38 32 -58c-2 4 -7 16 -30 16c-173 0 -192 -339 30 -339c23 0 61 7 83 16c44 19 81 53 108 99c5 9 9 18 14 28c-18 24 -22 53 -22 74c0 40 8 70 23 90c3 4 6 7 10 11v1c0 5 -1 10 -1 16c-18 81 -60 169 -60 264c0 45 0 122 58 122c67 0 62 -237 62 -354v-36
c61 -16 85 -106 93 -179c6 8 12 17 18 28c21 39 35 91 37 144c0 4 4 8 8 8c5 0 8 -4 8 -9zM485 225c-1 -54 -3 -130 -4 -194c9 -2 20 -3 32 -3c11 0 26 3 41 13c-5 65 -23 163 -69 184zM422 426c0 93 27 191 -1 191c-31 0 -41 -47 -41 -116c0 -49 24 -128 44 -194
c-1 33 -2 73 -2 119zM409 129c0 -16 2 -37 13 -56c1 4 3 9 4 14c1 40 2 83 2 122c-12 -17 -19 -45 -19 -80zM509 -247c25 0 46 94 46 249v21c-13 -7 -26 -11 -40 -11h-1h-2v0h-1c-11 0 -21 1 -31 3c-1 -45 -1 -81 -1 -97c0 -41 -26 -161 30 -165z" />
    <glyph glyph-name="f_ss2" horiz-adv-x="900" 
d="M943 235c-2 -55 -16 -110 -39 -151c-9 -16 -19 -30 -30 -41c1 -16 1 -29 1 -41c0 -118 -24 -265 -70 -265h-1h-4c-52 0 -82 119 -82 213c0 21 1 53 2 90c-4 -7 -7 -14 -11 -21c-29 -49 -69 -86 -115 -105c-24 -10 -63 -18 -88 -18c-278 0 -259 397 -34 397
c10 0 19 -2 26 -6c-30 95 -109 98 -210 98c-123 0 -741 -184 -741 -15c0 46 9 65 26 63c4 0 3 -7 -6 -10c-21 -8 -16 -64 119 -64c85 0 515 63 603 63c100 0 230 -49 230 -172c0 -48 -30 -97 -85 -97c-5 0 -7 3 -7 7c0 5 4 8 8 8c42 0 63 34 68 70c-3 5 -10 13 -29 13
c-173 0 -192 -339 30 -339c23 0 61 7 83 16c44 19 81 53 108 99c5 9 9 18 14 28c-18 24 -22 53 -22 74c0 40 8 70 23 90c3 4 6 7 10 11v1c0 5 -1 10 -1 16c-18 81 -60 169 -60 264c0 45 0 122 58 122c67 0 62 -237 62 -354v-36c61 -16 85 -106 93 -179c6 8 12 17 18 28
c21 39 35 91 37 144c0 4 4 8 8 8c5 0 8 -4 8 -9zM720 87c1 40 2 83 2 122c-12 -17 -19 -45 -19 -80c0 -16 2 -37 13 -56c1 4 3 9 4 14zM716 426c0 93 27 191 -1 191c-31 0 -41 -47 -41 -116c0 -49 24 -128 44 -194c-1 33 -2 73 -2 119zM779 225c-1 -54 -3 -130 -4 -194
c9 -2 20 -3 32 -3c11 0 26 3 41 13c-5 65 -23 163 -69 184zM803 -247c25 0 46 94 46 249v21c-13 -7 -26 -11 -40 -11h-1h-2v0h-1c-11 0 -21 1 -31 3c-1 -45 -1 -81 -1 -97c0 -41 -26 -161 30 -165z" />
    <glyph glyph-name="f_ss3" horiz-adv-x="641" 
d="M684 235c-2 -55 -16 -110 -39 -151c-9 -16 -19 -30 -30 -41c1 -16 1 -29 1 -41c0 -118 -24 -265 -70 -265h-1h-4c-52 0 -82 119 -82 213c0 22 1 55 2 92c-10 10 -19 22 -24 36c-50 -66 -132 -100 -219 -100c-157 0 -324 95 -398 249c-24 50 -36 103 -36 159
c0 171 90 306 285 306c77 0 159 -36 187 -77c26 -37 5 -60 -17 -64c-4 -1 7 7 2 15c-22 36 -64 68 -115 85c-186 67 -326 -70 -326 -265c0 -53 12 -105 34 -152c60 -129 201 -225 350 -238c92 -9 190 19 247 102c-2 11 -3 22 -3 31c0 40 8 70 23 90c3 4 6 7 10 11v1
c0 5 -1 10 -1 16c-18 81 -60 169 -60 264c0 45 0 122 58 122c63 0 63 -209 62 -354v-36c61 -16 85 -106 93 -179c6 8 12 17 18 28c21 39 35 91 37 144c0 4 4 8 8 8c5 0 8 -4 8 -9zM520 225c-1 -54 -3 -130 -4 -194c24 -5 49 -5 73 10c-5 65 -23 163 -69 184zM457 426
c0 93 27 191 -1 191c-31 0 -41 -47 -41 -116c0 -49 24 -128 44 -194c-1 33 -2 73 -2 119zM463 209c-16 -23 -19 -53 -19 -88c8 15 14 31 19 49v39zM448 95c3 -10 7 -20 13 -29c0 18 1 37 1 55c-4 -9 -9 -17 -14 -26zM544 -247c25 0 46 94 46 249v21c-23 -11 -47 -13 -75 -8
c-1 -45 -1 -81 -1 -97c0 -41 -26 -161 30 -165z" />
    <glyph glyph-name="f_ss4" horiz-adv-x="202" 
d="M245 235c-2 -55 -16 -110 -39 -151c-9 -16 -19 -30 -30 -41c1 -16 1 -29 1 -41c0 -118 -24 -265 -70 -265h-1h-4c-52 0 -82 119 -82 213c0 22 1 55 2 92c-3 3 -6 6 -8 9c-21 25 -25 56 -25 78c0 40 8 70 23 90c3 4 6 7 9 10c0 46 1 218 1 242c0 21 2 41 4 61
c-5 4 -10 9 -15 14c-17 21 -29 49 -33 81c-6 52 16 76 35 81c77 22 71 -145 69 -184c50 -14 90 25 90 79c0 38 -17 76 -48 103c-39 35 -97 31 -167 31c-123 0 -741 -184 -741 -14c0 46 9 65 26 63c4 0 3 -7 -6 -10c-21 -8 -16 -64 119 -64c85 0 515 63 603 63
c74 0 135 -20 176 -57c35 -30 54 -72 54 -115c0 -26 -7 -51 -22 -68c-20 -26 -52 -32 -84 -27c1 -27 1 -58 1 -93c0 -24 -1 -123 -2 -173c61 -15 85 -105 93 -178c6 8 12 17 18 28c21 39 35 91 37 144c0 4 4 8 8 8c5 0 8 -4 8 -9zM24 557c1 -2 3 -4 5 -6
c8 17 37 157 -12 141c-14 -3 -27 -24 -23 -64c4 -28 14 -53 30 -71zM150 41c-5 65 -23 163 -69 184v-4v0c-1 -54 -3 -128 -4 -190c9 -2 20 -3 32 -3c11 0 26 3 41 13zM22 66c1 46 2 97 2 143c-12 -17 -19 -45 -19 -80c0 -18 3 -42 17 -63zM105 -247c25 0 46 94 46 249v21
c-13 -7 -26 -11 -40 -11h-1h-2v0h-1c-11 0 -21 1 -31 3c-1 -45 -1 -81 -1 -97c0 -41 -26 -161 30 -165z" />
    <glyph glyph-name="f_ss5" horiz-adv-x="206" 
d="M371 782c38 -38 59 -90 59 -146s-21 -112 -58 -152c-29 -31 -84 -69 -168 -69c-49 0 -88 9 -119 24v-24c0 -24 -1 -123 -2 -173c61 -15 85 -105 93 -178c6 8 12 17 18 28c21 39 35 91 37 144c0 4 4 8 8 8c5 0 8 -4 8 -9c-2 -55 -16 -110 -39 -151c-9 -16 -19 -30 -30 -41
c1 -16 1 -29 1 -41c0 -118 -24 -265 -70 -265h-1h-4c-52 0 -82 119 -82 213c0 22 1 55 2 92c-3 3 -6 6 -8 9c-21 25 -25 56 -25 78c0 40 8 70 23 90c3 4 6 7 9 10c0 46 1 218 1 242v11c-47 50 -59 116 -59 149c0 28 6 51 16 68c10 14 24 23 39 23c84 0 59 -208 65 -264
c30 -17 70 -27 119 -27c78 0 130 35 156 64c34 37 54 89 54 141s-19 100 -54 135c-40 40 -99 61 -171 61c-114 0 -269 -166 -411 -166c-32 0 -64 6 -76 34c-6 12 0 36 12 36c4 0 -4 -7 4 -11c31 -18 99 -25 228 38c76 37 158 85 243 85c76 0 139 -22 182 -66zM-19 631
c0 -35 12 -84 45 -125c-2 70 54 200 -6 200c-9 0 -18 -6 -25 -16s-14 -28 -14 -59zM24 66c1 46 2 97 2 143c-12 -17 -19 -45 -19 -80c0 -18 3 -42 17 -63zM153 2v21c-13 -7 -26 -11 -40 -11h-1h-2v0h-1c-11 0 -21 1 -31 3c-1 -45 -1 -81 -1 -97c0 -41 -26 -161 30 -165
c25 0 46 94 46 249zM152 41c-5 65 -23 163 -69 184v-4v0c-1 -54 -3 -128 -4 -190c9 -2 20 -3 32 -3c11 0 26 3 41 13z" />
    <glyph glyph-name="f_ss6" horiz-adv-x="183" 
d="M63 429v-14c0 -24 -1 -123 -2 -173c61 -15 85 -105 93 -178c6 8 12 17 18 28c21 39 35 91 37 144c0 4 4 8 8 8c5 0 8 -4 8 -9c-2 -55 -16 -110 -39 -151c-9 -16 -19 -30 -30 -41c1 -16 1 -29 1 -41c0 -118 -24 -265 -70 -265h-1h-4c-52 0 -82 119 -82 213c0 22 1 55 2 92
c-3 3 -6 6 -8 9c-21 25 -25 56 -25 78c0 40 8 70 23 90c3 4 6 7 9 10c0 46 1 218 1 242v6c-25 29 -43 65 -51 101c-18 -6 -37 -13 -55 -19c-124 -44 -252 -89 -393 -89c-64 0 -122 24 -164 68c-38 40 -60 93 -60 146c0 50 19 95 55 127c41 36 101 55 175 55
c157 0 250 -146 277 -146c4 0 4 6 5 2c3 -9 -19 -50 -72 -23c-35 19 -105 151 -210 151c-70 0 -127 -18 -164 -51c-32 -29 -50 -70 -50 -115c0 -48 20 -98 56 -135c19 -19 41 -35 65 -45c27 -12 56 -18 87 -18c138 0 265 45 387 88c20 7 39 14 58 20c-1 10 -2 19 -2 29
c0 29 6 52 17 68c10 15 24 23 38 23c12 0 23 -5 31 -14c16 -19 20 -48 24 -72c62 17 124 28 189 28c34 0 61 -10 80 -29c17 -18 26 -42 26 -70c0 -38 -16 -76 -46 -105c-23 -24 -65 -52 -132 -52c-39 0 -77 10 -110 29zM245 640c-64 0 -125 -11 -187 -28c4 -40 5 -91 5 -165
c32 -20 70 -31 110 -31c61 0 99 26 121 47c26 26 41 61 41 94c0 40 -23 83 -90 83zM-38 623c0 -8 1 -16 2 -24c18 7 37 13 56 18c3 21 20 81 -19 81c-9 0 -18 -5 -25 -16c-6 -9 -14 -27 -14 -59zM-34 583c6 -29 19 -57 37 -81c3 36 8 69 13 98c-16 -5 -33 -11 -50 -17zM2 66
c1 46 2 97 2 143c-12 -17 -19 -45 -19 -80c0 -18 3 -42 17 -63zM131 2v21c-13 -7 -26 -11 -40 -11h-1h-2v0h-1c-11 0 -21 1 -31 3c-1 -45 -1 -81 -1 -97c0 -41 -26 -161 30 -165c25 0 46 94 46 249zM130 41c-5 65 -23 163 -69 184v-4v0c-1 -54 -3 -128 -4 -190
c9 -2 20 -3 32 -3c11 0 26 3 41 13z" />
    <glyph glyph-name="f_ss7" horiz-adv-x="206" 
d="M335 624c17 -18 26 -42 26 -70c0 -37 -16 -76 -46 -105c-23 -24 -65 -52 -132 -52c-35 0 -70 8 -100 23v-178c61 -15 85 -105 93 -178c6 8 12 17 18 28c21 39 35 91 37 144c0 4 4 8 8 8c5 0 8 -4 8 -9c-2 -55 -16 -110 -39 -151c-9 -16 -19 -30 -30 -41
c1 -16 1 -29 1 -41c0 -118 -24 -265 -70 -265h-1h-4c-52 0 -82 119 -82 213c0 22 1 55 2 92c-3 3 -6 6 -8 9c-21 25 -25 56 -25 78c0 40 8 70 23 90c3 4 6 7 9 10v234l-3 3c-30 31 -50 69 -59 109c-18 -6 -237 -108 -378 -108c-221 0 -222 219 -133 219c23 0 43 -8 43 -23
c0 -6 -11 11 -15 6c-45 -50 -19 -186 105 -186c138 0 356 102 375 108c-1 10 -2 20 -2 29c0 29 6 52 17 68c10 15 30 23 44 23c42 0 50 -53 54 -86c63 17 119 28 184 28c34 0 61 -10 80 -29zM-28 620c0 -8 1 -16 2 -23c20 6 46 13 67 19c1 18 12 79 -24 79
c-9 0 -24 -5 -31 -16c-6 -9 -14 -27 -14 -59zM-24 581c7 -35 24 -67 47 -95c1 42 12 81 16 113zM24 66c1 46 2 97 2 143c-12 -17 -19 -45 -19 -80c0 -18 3 -42 17 -63zM153 2v21c-13 -7 -26 -11 -40 -11h-1h-2v0h-1c-11 0 -21 1 -31 3c-1 -45 -1 -81 -1 -97
c0 -41 -26 -161 30 -165c25 0 46 94 46 249zM152 41c-5 64 -23 162 -69 184c0 -7 -1 -14 -1 -22v0c-1 -51 -2 -116 -3 -172c9 -2 20 -3 32 -3c11 0 26 3 41 13zM304 460c26 26 41 61 41 94c0 40 -23 83 -90 83c-64 0 -119 -11 -181 -28c7 -49 5 -111 6 -169
c31 -17 66 -27 103 -27c61 0 99 26 121 47z" />
    <glyph glyph-name="f_ss8" horiz-adv-x="206" 
d="M329 581c5 -12 0 -35 -12 -35c-4 0 4 7 -4 11c-31 18 -99 25 -229 -38l-1 -1c1 -29 1 -63 1 -103c0 -22 -1 -111 -2 -162h1v-10c61 -16 85 -106 93 -179c6 8 12 17 18 28c21 39 35 91 37 144c0 4 4 8 8 8c5 0 8 -4 8 -9c-2 -55 -16 -110 -39 -151c-9 -16 -19 -30 -30 -41
c1 -16 1 -29 1 -41c0 -118 -24 -265 -70 -265h-1h-4c-52 0 -82 119 -82 213c0 22 1 55 2 92c-3 3 -6 6 -8 9c-21 25 -25 56 -25 78c0 40 8 70 23 90c2 3 5 7 8 9c0 45 1 219 1 243c0 6 0 12 1 18c-58 -29 -119 -56 -182 -56c-76 0 -139 23 -183 66c-37 39 -58 91 -58 147
s21 111 57 152c29 31 84 69 169 69c62 0 117 -18 160 -51c73 -57 90 -162 95 -257c57 31 115 57 170 57c32 0 65 -6 77 -35zM24 66c1 46 2 97 2 143c-12 -17 -19 -45 -19 -80c0 -18 3 -42 17 -63zM153 2v21c-13 -7 -26 -11 -40 -11h-1h-2v0h-1c-11 0 -21 1 -31 3
c-1 -45 -1 -81 -1 -97c0 -41 -26 -161 30 -165c25 0 46 94 46 249zM152 41c-5 65 -23 163 -69 184c-1 -54 -3 -130 -4 -194c9 -2 20 -3 32 -3c11 0 26 3 41 13zM-158 449c54 0 118 38 184 77c8 69 38 146 2 215c-12 24 -29 45 -51 62c-40 31 -91 48 -150 48
c-79 0 -130 -35 -157 -64c-34 -38 -53 -89 -53 -141s19 -100 54 -135c40 -40 99 -62 171 -62z" />
    <glyph glyph-name="f_ss9" horiz-adv-x="206" 
d="M558 676c0 -74 -64 -244 -356 -244c-36 0 -77 5 -116 17v-34c0 -22 -1 -111 -2 -162h1v-10c61 -16 85 -106 93 -179c6 8 12 17 18 28c21 39 35 91 37 144c0 4 4 8 8 8c5 0 8 -4 8 -9c-2 -55 -16 -110 -39 -151c-9 -16 -19 -30 -30 -41c1 -16 1 -29 1 -41
c0 -118 -24 -265 -70 -265h-1h-4c-52 0 -82 119 -82 213c0 22 1 55 2 92c-3 3 -6 6 -8 9c-21 25 -25 56 -25 78c0 40 8 70 23 90c2 3 5 7 8 9c0 45 1 219 1 243v3c-56 30 -99 78 -99 150c0 37 13 60 23 74c14 18 33 30 52 30c101 0 84 -190 85 -262c36 -11 77 -18 116 -18
c272 0 341 154 341 227c0 91 -93 144 -148 144c-177 0 -213 -154 -213 -180c0 -3 9 -10 -6 -5c-34 11 -45 27 -45 48c0 54 88 152 243 152c120 0 184 -81 184 -158zM26 66c1 46 2 97 2 143c-12 -17 -19 -45 -19 -80c0 -18 3 -42 17 -63zM155 2v21c-13 -7 -26 -11 -40 -11h-1
h-2v0h-1c-11 0 -21 1 -31 3c-1 -45 -1 -81 -1 -97c0 -41 -26 -161 30 -165c25 0 46 94 46 249zM154 41c-5 65 -23 163 -69 184c-1 -54 -3 -130 -4 -194c9 -2 20 -3 32 -3c11 0 26 3 41 13zM-32 542c14 -19 33 -36 58 -50c3 63 17 119 21 157c0 25 -10 63 -45 63
c-14 0 -29 -9 -40 -24c-9 -11 -20 -32 -20 -64c0 -30 9 -58 26 -82z" />
    <glyph glyph-name="f_ss10" horiz-adv-x="206" 
d="M670 572c76 0 103 -40 103 -81c0 -38 -19 -49 -23 -49c-15 0 -12 10 0 14c24 7 37 59 -97 53c-141 -6 -270 -103 -497 -103c-23 0 -48 3 -71 8c0 -23 -1 -110 -2 -161h1v-10c61 -16 85 -106 93 -179c6 8 12 17 18 28c21 39 35 91 37 144c0 4 4 8 8 8c5 0 8 -4 8 -9
c-2 -55 -16 -110 -39 -151c-9 -16 -19 -30 -30 -41c1 -16 1 -29 1 -41c0 -118 -24 -265 -70 -265h-1h-4c-52 0 -82 119 -82 213c0 22 1 55 2 92c-3 3 -6 6 -8 9c-21 25 -25 56 -25 78c0 40 8 70 23 90c2 3 5 7 8 9c0 35 1 147 1 207c-13 5 -25 12 -37 20
c-61 39 -94 97 -94 167c0 38 8 68 24 90c14 19 34 31 56 33c20 2 41 -5 58 -18c67 -59 54 -180 54 -296c23 -6 48 -9 71 -9c190 0 321 150 514 150zM25 66c1 46 2 97 2 143c-12 -17 -19 -45 -19 -80c0 -18 3 -42 17 -63zM154 2v21c-13 -7 -26 -11 -40 -11h-1h-2v0h-1
c-11 0 -21 1 -31 3c-1 -45 -1 -81 -1 -97c0 -41 -26 -161 30 -165c25 0 46 94 46 249zM153 41c-5 65 -23 163 -69 184c-1 -54 -3 -130 -4 -194c9 -2 20 -3 32 -3c11 0 26 3 41 13zM-4 468c9 -6 18 -11 28 -16v19c0 92 72 258 -50 258c-31 0 -65 -32 -65 -107
c0 -34 9 -65 25 -92c14 -24 35 -45 62 -62z" />
    <glyph glyph-name="f_ss11" horiz-adv-x="206" 
d="M610 866c127 0 203 -94 203 -182c0 -53 -22 -106 -60 -146c-42 -44 -100 -68 -164 -68c-141 0 -269 45 -392 89c-19 6 -37 13 -56 19c-8 -39 -28 -75 -55 -106v-57c0 -22 -1 -111 -2 -162h1v-10c61 -16 85 -106 93 -179c6 8 12 17 18 28c21 39 35 91 37 144c0 4 4 8 8 8
c5 0 8 -4 8 -9c-2 -55 -16 -110 -39 -151c-9 -16 -19 -30 -30 -41c1 -16 1 -29 1 -41c0 -118 -24 -265 -70 -265h-1h-4c-52 0 -82 119 -82 213c0 22 1 55 2 92c-3 3 -6 6 -8 9c-21 25 -25 56 -25 78c0 40 8 70 23 90c2 3 5 7 8 9c0 33 1 137 1 198c-32 -17 -68 -26 -106 -26
c-66 0 -108 28 -132 52c-29 29 -46 67 -46 105c0 44 32 113 127 113c66 0 120 -18 177 -40c5 31 -13 84 40 84c15 0 35 -8 45 -23c10 -16 16 -39 16 -68c0 -10 0 -19 -2 -29c19 -6 39 -13 58 -20c123 -43 249 -88 387 -88c31 0 60 6 87 18c25 10 47 26 66 45
c35 37 55 87 55 135c0 81 -73 166 -187 166c-104 0 -186 -150 -274 -165c-39 -7 -64 28 -60 37c1 4 1 -2 5 -2c58 0 153 146 329 146zM-81 416c38 0 74 10 106 28v27c0 54 10 104 17 143c-56 22 -109 40 -174 40c-66 0 -111 -42 -111 -97c0 -33 15 -68 41 -94
c22 -21 60 -47 121 -47zM26 66c1 46 2 97 2 143c-12 -17 -19 -45 -19 -80c0 -18 3 -42 17 -63zM155 2v21c-13 -7 -26 -11 -40 -11h-1h-2v0h-1c-11 0 -21 1 -31 3c-1 -45 -1 -81 -1 -97c0 -41 -26 -161 30 -165c25 0 46 94 46 249zM154 41c-5 65 -23 163 -69 184
c-1 -54 -3 -130 -4 -194c9 -2 20 -3 32 -3c11 0 26 3 41 13zM85 497c21 26 34 55 41 86c-15 6 -30 11 -44 16c2 -27 3 -60 3 -102zM129 599c1 8 2 16 2 24c0 32 -8 50 -15 59c-7 11 -22 16 -31 16c-38 0 -8 -56 -5 -81c16 -6 32 -12 49 -18z" />
    <glyph glyph-name="f_ss12" horiz-adv-x="629" 
d="M540 211c-3 -5 -15 5 -19 22c-5 21 20 47 54 47c248 0 245 -475 -51 -475c-174 0 -244 129 -260 252c-12 -7 -24 -14 -38 -20c-15 -6 -29 -11 -43 -15v-20c0 -118 -24 -265 -70 -265h-1h-4c-52 0 -82 119 -82 213c0 22 1 55 2 92l-8 9c-21 25 -25 56 -25 78
c0 40 8 70 23 90l10 11v1c0 3 0 13 -1 16c-18 81 -60 169 -60 264c0 45 0 122 58 122c63 0 62 -213 62 -222v-158v-10c61 -16 95 -153 95 -200v-5c25 8 55 19 80 37c-2 14 -2 28 -2 42v7c0 26 4 52 10 72c11 32 25 39 35 39c8 0 15 -4 20 -11c25 -31 1 -126 -47 -157
c14 -121 81 -247 249 -247c271 0 253 420 42 420c-17 0 -33 -14 -32 -26c2 -2 1 -2 3 -3zM28 66c1 46 2 97 2 143c-12 -17 -19 -45 -19 -80c0 -18 3 -42 17 -63zM24 426c0 93 28 191 -1 191c-31 0 -41 -47 -41 -116c0 -49 24 -128 44 -194c-1 33 -2 73 -2 119zM157 2v14
c-16 -3 -29 -4 -44 -4c-11 0 -21 1 -31 3c-1 -45 -1 -81 -1 -97c0 -41 -26 -161 30 -165c25 0 46 94 46 249zM157 33c1 65 -24 171 -70 192l-4 -194c9 -2 20 -3 32 -3c13 0 26 1 42 5zM276 117c0 -10 0 -19 1 -29c14 13 25 29 33 48c15 53 6 75 3 79c-3 3 -5 4 -8 4
c-5 0 -13 -7 -19 -28c-7 -18 -10 -58 -10 -74z" />
    <glyph glyph-name="f_ss13" horiz-adv-x="1087" 
d="M1477 463c17 2 25 -17 25 -63c0 -169 -618 15 -740 15c-70 0 -128 3 -167 -31c-31 -28 -48 -66 -48 -104c0 -15 3 -32 10 -45c2 21 19 45 53 45c248 0 245 -475 -51 -475c-174 0 -244 129 -260 252c-12 -7 -24 -14 -38 -20c-15 -6 -29 -11 -43 -15v-20
c0 -118 -24 -265 -70 -265h-1h-4c-52 0 -82 119 -82 213c0 22 1 55 2 92l-8 9c-21 25 -25 56 -25 78c0 40 8 70 23 90l10 11v1c0 3 0 13 -1 16c-18 81 -60 169 -60 264c0 45 0 122 58 122c63 0 62 -213 62 -222v-168c61 -16 95 -153 95 -205c25 8 55 19 80 37
c-5 38 -3 81 8 121c11 32 25 39 35 39c8 0 15 -4 20 -11c25 -31 1 -126 -47 -157c14 -121 81 -247 249 -247c271 0 253 420 42 420c-17 0 -33 -14 -32 -26c11 -10 25 -16 42 -16c5 0 8 -3 8 -8c0 -4 -2 -7 -6 -7c-25 0 -48 10 -64 29c-14 18 -21 42 -21 68
c0 43 19 85 54 116c41 37 102 56 175 56c88 0 518 -63 604 -63c135 0 140 56 118 64c-8 3 -9 10 -5 10zM63 66c1 46 2 97 2 143c-12 -17 -19 -45 -19 -80c0 -18 3 -42 17 -63zM59 426c0 93 28 191 -1 191c-31 0 -41 -47 -41 -116c0 -49 24 -128 44 -194c-1 33 -2 73 -2 119z
M192 2v14c-16 -3 -29 -4 -44 -4c-11 0 -21 1 -31 3c-1 -45 -1 -81 -1 -97c0 -41 -26 -161 30 -165c25 0 46 94 46 249zM192 33c1 65 -24 171 -70 192l-4 -194c9 -2 20 -3 32 -3c13 0 26 1 42 5zM311 117c0 -10 0 -19 1 -29c14 13 25 29 33 48c15 53 6 75 3 79
c-3 3 -5 4 -8 4c-5 0 -13 -7 -19 -28c-7 -18 -10 -58 -10 -74z" />
    <glyph glyph-name="f_ss14" horiz-adv-x="746" 
d="M719 692c155 0 288 -105 288 -306c0 -32 -2 -67 -7 -104c-10 -68 -31 -133 -62 -191c-29 -53 -65 -100 -109 -138c-40 -36 -86 -65 -132 -83c-39 -15 -86 -22 -129 -22c-171 0 -240 114 -258 192c-23 -14 -46 -21 -70 -26c-19 -3 -38 -6 -57 -6h-4v-8
c0 -118 -24 -263 -70 -263h-1h-4c-52 0 -82 119 -82 213c0 22 1 55 2 92c-3 3 -6 6 -8 9c-21 25 -25 56 -25 78c0 40 8 70 23 90c3 4 6 7 10 11v1c0 3 0 13 -1 16c-18 81 -60 169 -60 264c0 45 0 122 58 122c63 0 62 -213 62 -222v-158v-10c61 -16 85 -106 93 -179
c1 -13 3 -25 3 -41c46 3 88 7 130 36c-6 42 -5 92 7 137c9 32 25 39 34 39s18 -4 23 -11c28 -45 -14 -143 -46 -173c14 -101 107 -188 237 -188c83 0 177 33 254 102c43 37 78 82 106 134c30 56 50 119 60 186c5 36 7 69 7 100c0 86 -47 258 -257 258
c-135 0 -196 -85 -218 -130v-7c-3 -3 -43 24 -37 47c17 78 124 139 240 139zM24 66c1 46 2 97 2 143c-12 -17 -19 -45 -19 -80c0 -18 3 -42 17 -63zM20 426c0 93 28 191 -1 191c-31 0 -41 -47 -41 -116c0 -49 24 -128 44 -194c-1 33 -2 73 -2 119zM83 225
c-1 -54 -3 -130 -4 -194c23 -6 46 -9 75 -8c-1 64 -25 181 -71 202zM154 2v6c-28 0 -48 1 -76 7c-1 -45 -1 -81 -1 -97c0 -41 -26 -161 30 -165c25 0 47 94 47 249zM353 219c-31 0 -32 -127 -29 -144c0 -4 2 -1 2 -2c4 5 8 11 11 17c9 17 16 35 22 55c3 10 17 71 -6 74z" />
    <glyph glyph-name="g_ss1" horiz-adv-x="746" 
d="M781 244c4 0 8 -4 8 -9c-2 -45 -13 -93 -30 -133c-20 -45 -55 -77 -92 -106c-1 -17 -1 -33 -1 -46c0 -94 -29 -213 -81 -213c-44 0 -75 32 -75 78c0 37 13 71 39 102c17 21 40 40 63 58v105v20c-6 -35 -40 -99 -90 -99c-45 0 -73 32 -87 77c-7 -22 -15 -42 -25 -59
c-29 -49 -69 -86 -116 -105c-24 -10 -63 -18 -87 -18c-278 0 -259 397 -34 397c41 0 59 -38 32 -58c-2 4 -7 16 -30 16c-173 0 -192 -339 30 -339c23 0 61 7 83 16c44 19 81 53 108 99c13 24 24 52 32 83c-17 112 37 270 143 270c26 0 43 -21 51 -44c18 5 51 5 51 -56
c0 -14 -2 -35 -3 -58c-1 -60 -2 -140 -3 -205c32 26 61 54 77 91c17 39 27 84 29 128c0 4 4 8 8 8zM532 50c100 0 78 220 79 281c-6 13 -18 24 -39 24c-95 0 -120 -305 -40 -305zM580 -248c58 2 32 124 32 166v36c-47 -37 -86 -76 -86 -139c0 -37 31 -63 54 -63z" />
    <glyph glyph-name="g_ss2" horiz-adv-x="1501" 
d="M1536 244c4 0 8 -4 8 -9c-2 -45 -13 -93 -30 -133c-20 -45 -55 -77 -92 -106c-1 -17 -1 -33 -1 -46c0 -94 -29 -213 -81 -213c-29 0 -41 7 -54 20c-9 10 -21 28 -21 58c0 37 13 71 39 102c17 21 40 40 63 58v105v20c-6 -35 -40 -99 -90 -99c-45 0 -73 32 -87 77
c-7 -22 -15 -42 -25 -59c-29 -49 -69 -86 -116 -105c-24 -10 -63 -18 -87 -18c-278 0 -259 397 -34 397c9 0 17 -2 24 -5c-8 25 -23 47 -43 66c-39 34 -97 31 -167 31c-123 0 -741 -184 -741 -15c0 46 9 65 26 63c4 0 3 -7 -6 -10c-21 -8 -16 -64 119 -64
c85 0 515 63 603 63c74 0 135 -19 176 -56c35 -31 54 -73 54 -116c0 -26 -7 -50 -22 -68c-15 -19 -38 -29 -63 -29c-5 0 -7 3 -7 7c0 5 4 8 8 8c43 0 64 36 68 72c-4 5 -11 11 -27 11c-173 0 -192 -339 30 -339c23 0 61 7 83 16c44 19 81 53 108 99c13 24 24 52 32 83
c-17 112 37 270 143 270c26 0 43 -21 51 -44c18 5 51 5 51 -56c0 -14 -2 -35 -3 -58c-1 -60 -2 -140 -3 -205c32 26 61 54 77 91c17 39 27 84 29 128c0 4 4 8 8 8zM1287 50c100 0 78 220 79 281c-6 13 -18 24 -39 24c-95 0 -120 -305 -40 -305zM1335 -248
c58 2 32 124 32 166v36c-47 -37 -86 -76 -86 -139c0 -37 26 -63 54 -63z" />
    <glyph glyph-name="g_ss3" horiz-adv-x="778" 
d="M813 244c4 0 8 -4 8 -9c-2 -45 -13 -93 -30 -133c-20 -45 -55 -77 -92 -106c-1 -17 -1 -33 -1 -46c0 -94 -13 -213 -81 -213c-25 0 -41 7 -54 20c-9 10 -21 28 -21 58c0 37 13 71 39 102c17 21 40 40 63 58v105v20c-6 -35 -40 -99 -90 -99c-56 0 -87 50 -95 114
c-4 -9 -9 -17 -14 -25c-18 -28 -42 -51 -70 -69c-43 -28 -97 -43 -157 -43c-11 0 -23 1 -35 2c-97 9 -196 53 -270 122c-40 37 -71 79 -93 125c-24 50 -36 103 -36 159c0 81 18 148 53 199c30 43 90 107 232 107c77 0 159 -36 188 -77c25 -37 4 -60 -18 -64c-4 -1 8 7 2 15
c-22 36 -64 68 -115 85c-53 19 -110 21 -160 7c-48 -13 -88 -42 -116 -82c-33 -48 -50 -112 -50 -190c0 -53 12 -105 35 -152c21 -45 50 -85 89 -120c71 -67 167 -110 261 -118c70 -7 132 7 182 38c26 17 48 39 65 65c10 16 18 33 25 52c0 106 53 229 146 229
c26 0 43 -21 51 -44c18 5 51 5 51 -56c0 -14 -2 -35 -3 -58c-1 -60 -2 -140 -3 -205c32 26 61 54 77 91c17 39 27 84 29 128c0 4 4 8 8 8zM564 50c101 0 77 220 79 281c-6 13 -18 24 -39 24c-95 0 -120 -305 -40 -305zM612 -248c56 0 32 124 32 166v36
c-47 -37 -86 -76 -86 -139c0 -37 20 -63 54 -63z" />
    <glyph glyph-name="g_ss4" horiz-adv-x="322" 
d="M486 500c12 0 17 -23 12 -35c-12 -29 -45 -34 -77 -34c-141 0 -296 166 -411 166c-71 0 -130 -21 -170 -61c-35 -35 -54 -83 -54 -136c0 -52 19 -103 53 -140c27 -30 78 -64 157 -64h7c12 93 63 184 143 184c26 0 43 -21 51 -44c18 5 51 5 51 -56c0 -14 -2 -35 -3 -58
c-1 -60 -2 -140 -3 -205c32 26 61 54 77 91c17 39 27 84 29 128c0 4 4 8 8 8s8 -4 8 -9c-2 -45 -13 -93 -30 -133c-20 -45 -55 -77 -92 -106c-1 -17 -1 -33 -1 -46c0 -94 -18 -213 -85 -213c-27 0 -37 7 -50 20c-9 10 -21 28 -21 58c0 37 13 71 39 102c17 21 40 40 63 58
v105v20c-6 -35 -40 -99 -90 -99c-74 0 -104 88 -96 179h-5c-85 0 -140 37 -169 69c-36 40 -57 95 -57 151c0 57 20 109 58 147c44 43 106 66 182 66c86 0 168 -49 243 -86c130 -63 198 -56 229 -38c8 5 -1 11 4 11zM107 50c76 0 80 154 80 211c-9 -11 -19 -22 -31 -31
c-28 -21 -60 -36 -96 -44c-5 -70 10 -136 47 -136zM155 -248c58 0 32 124 32 166v36c-47 -37 -86 -76 -86 -139c0 -37 20 -63 54 -63zM147 355c-48 0 -78 -76 -86 -152c32 8 61 21 85 40c17 13 31 29 43 47c-1 13 -1 27 -3 41c-6 13 -18 24 -39 24z" />
    <glyph glyph-name="g_ss5" horiz-adv-x="310" 
d="M1022 -26c17 1 25 -18 25 -64c0 -169 -618 15 -741 15h-62v-19c0 -93 -27 -212 -86 -212c-54 0 -83 43 -83 97c0 42 20 84 54 115c17 15 36 27 58 36v131v0v7v20c-6 -35 -40 -99 -90 -99c-154 0 -114 379 49 379c26 0 43 -21 51 -44c18 5 51 5 51 -56c0 -14 2 -35 0 -58
c0 -50 -2 -115 -3 -173v0v-76v-15c19 3 39 5 60 5c88 0 518 -63 603 -63c136 0 140 55 119 63c-9 4 -10 10 -5 11zM107 50c84 0 81 167 82 224c0 18 -1 38 -3 57c-6 13 -17 24 -39 24c-95 0 -120 -305 -40 -305zM155 -291c58 1 32 124 32 166v36v7c-18 -4 -34 -12 -47 -24
c-31 -27 -49 -65 -49 -103s19 -78 61 -82h1h2z" />
    <glyph glyph-name="g_ss6" horiz-adv-x="305" 
d="M992 -85c21 -19 32 -46 32 -78c0 -47 -25 -99 -68 -137c-23 -21 -49 -38 -79 -50c-33 -13 -69 -19 -106 -19c-46 0 -89 15 -133 47c-38 28 -59 52 -95 91c-15 -6 -90 -44 -154 -44c-106 0 -107 53 -89 76c11 15 5 -1 9 -3c56 -28 111 -34 173 -17c13 3 25 7 38 12
c-73 79 -149 156 -269 156h-7c-1 -48 -15 -196 -84 -202c-43 -4 -73 29 -73 77c0 34 15 69 41 95c12 13 32 27 59 36v9v117v19c-6 -35 -40 -99 -90 -99c-154 0 -114 379 49 379c26 0 43 -21 51 -44c18 5 57 5 51 -56c-11 -111 -3 -263 -4 -315h7c60 0 114 -18 167 -55
c44 -31 81 -71 118 -110c37 16 74 37 110 57c78 45 158 91 247 91c42 0 76 -11 99 -33zM107 50c101 0 79 220 79 281c-6 13 -17 24 -39 24c-95 0 -120 -305 -40 -305zM155 -238c58 1 32 124 32 166v10c-22 -8 -37 -20 -48 -31c-23 -22 -36 -53 -36 -83c0 -32 18 -59 52 -62z
M945 -289c40 36 63 83 63 126c0 27 -10 50 -27 67c-20 18 -50 28 -88 28c-109 0 -298 -141 -334 -157c67 -73 120 -128 212 -128c35 0 69 6 100 18c28 11 53 27 74 46z" />
    <glyph glyph-name="g_ss7" horiz-adv-x="327" 
d="M919 -65c119 0 276 -64 276 -226c0 -29 -5 -57 -17 -84c-11 -28 -28 -53 -49 -74c-48 -47 -116 -72 -195 -72c-89 0 -174 27 -259 83c-74 49 -138 113 -201 176c-74 74 -146 145 -224 181c-5 -93 -41 -205 -144 -246c-36 -15 -75 -18 -109 -8c-57 16 -92 63 -92 126
c0 46 26 91 70 123c31 23 68 38 109 44c35 5 72 4 109 -4v15v112v19c-6 -35 -40 -99 -90 -99c-154 0 -114 379 49 379c26 0 43 -21 51 -44c18 5 51 5 51 -56c0 -76 -2 -151 -3 -231v0c1 -21 -1 -86 -1 -104v-9c84 -36 158 -110 236 -187c61 -62 125 -125 198 -174
c82 -54 164 -80 250 -80c161 0 245 107 245 214c0 157 -156 206 -249 206c-186 0 -258 -164 -273 -205c-3 -7 10 -6 6 -8c-15 -8 -53 29 -44 66c13 51 111 167 300 167zM113 50c100 0 81 224 79 281c-6 13 -17 24 -39 24c-95 0 -120 -305 -40 -305zM100 -312
c110 44 93 130 93 225v24c-36 9 -72 10 -107 5c-38 -6 -73 -20 -101 -40c-40 -30 -64 -70 -64 -111c0 -29 8 -54 24 -73c13 -18 33 -31 56 -38c31 -8 66 -6 99 8z" />
    <glyph glyph-name="g_ss8" horiz-adv-x="316" 
d="M463 -153c12 0 17 -23 12 -35c-12 -29 -45 -35 -76 -35c-51 0 -104 22 -156 50c0 -149 -82 -228 -110 -250c-43 -33 -98 -51 -160 -51c-84 0 -140 38 -168 69c-37 41 -58 96 -58 152s21 109 59 147c43 43 106 66 182 66c69 0 136 -32 199 -64v184v20
c-6 -35 -40 -99 -90 -99c-154 0 -114 379 49 379c26 0 43 -21 51 -44c18 5 51 5 51 -56c0 -71 -6 -142 -6 -231c0 -60 3 -118 2 -182c121 -56 185 -48 215 -31c8 4 0 11 4 11zM107 50c101 0 79 220 79 281c-6 13 -17 24 -39 24c-95 0 -120 -305 -40 -305zM193 -276
c2 39 -6 85 -6 110v24c-72 42 -141 86 -199 86c-72 0 -131 -22 -171 -62c-35 -35 -54 -83 -54 -135s19 -103 53 -141c27 -29 78 -64 157 -64c59 0 110 17 150 48c22 17 40 38 51 62c11 22 17 46 19 72z" />
    <glyph glyph-name="g_ss9" horiz-adv-x="314" 
d="M295 -138c42 -36 65 -82 61 -128c-4 -63 -43 -107 -101 -119c-35 -7 -73 -1 -108 16c-37 19 -67 48 -87 86c-1 1 -1 2 -2 3v0c-2 4 0 9 4 11s8 0 10 -4c1 0 1 -1 1 -1c13 -16 35 -24 56 -21c25 3 43 22 55 49c17 37 6 104 4 144h-1c-42 10 -86 9 -132 -1
c-94 -22 -180 -95 -271 -173c-67 -58 -136 -117 -213 -160c-89 -50 -175 -70 -265 -64c-79 6 -144 36 -188 87c-20 23 -35 49 -44 78c-9 27 -13 56 -10 85c12 161 174 213 293 204c188 -14 277 -138 286 -189c6 -38 -35 -72 -49 -63c-4 2 8 1 6 8c-12 43 -71 211 -256 225
c-93 7 -253 -30 -265 -186c-8 -106 68 -220 229 -233c86 -6 169 14 255 62c76 42 145 101 211 158c93 79 180 154 278 176c46 11 92 12 135 2v166v20c-6 -35 -40 -99 -90 -99c-154 0 -114 379 49 379c26 0 43 -21 51 -44c18 5 51 5 51 -56c0 -107 -8 -129 -8 -252
c0 -16 3 -116 2 -132c19 -9 38 -20 53 -34zM107 50c101 0 79 220 79 281c-6 13 -17 24 -39 24c-95 0 -120 -305 -40 -305zM340 -265c4 41 -17 82 -55 115c-13 11 -29 21 -46 30c0 -61 -34 -182 -108 -191c-3 0 -7 -1 -10 -1c-9 0 -18 2 -26 5c16 -20 36 -36 59 -48
c32 -15 66 -21 98 -14c24 4 44 16 59 32c17 19 27 43 29 72z" />
    <glyph glyph-name="g_ss10" horiz-adv-x="310" 
d="M248 280c0 -14 2 -35 0 -58c0 -50 -2 -115 -3 -173v0c1 -77 -1 -95 -1 -156c0 -124 -38 -277 -194 -277c-59 0 -113 18 -166 55c-44 31 -82 71 -118 110c-37 -16 -74 -37 -110 -57c-78 -45 -159 -91 -247 -91c-42 0 -76 12 -99 33c-21 19 -32 46 -32 78
c0 47 25 99 68 138c22 21 49 37 79 49c33 13 68 19 106 19c46 0 89 -15 133 -47c37 -28 59 -52 94 -91c15 6 91 44 155 44c106 0 107 -53 89 -76c-11 -14 -5 1 -9 3c-56 28 -111 34 -173 17c-13 -3 -26 -7 -38 -12c72 -79 149 -156 268 -156c154 0 137 118 137 230v198v0v20
v20c-6 -35 -40 -99 -90 -99c-154 0 -114 379 49 379c26 0 43 -21 51 -44c18 5 51 5 51 -56zM-591 -351c109 0 297 141 334 157c-67 73 -120 128 -212 128c-36 0 -69 -6 -100 -18c-28 -11 -53 -27 -75 -46c-39 -36 -62 -83 -62 -126c0 -27 9 -50 27 -67c20 -18 50 -28 88 -28
zM107 50c101 0 79 220 79 281c-6 13 -17 24 -39 24c-95 0 -120 -305 -40 -305z" />
    <glyph glyph-name="g_ss11" horiz-adv-x="835" 
d="M1421 -58c119 0 277 -64 277 -226c0 -29 -6 -57 -17 -84c-12 -28 -29 -53 -50 -74c-48 -47 -115 -72 -195 -72c-89 0 -174 27 -258 83c-74 49 -139 114 -201 176c-75 74 -146 145 -225 181c-5 -92 -19 -208 -122 -249c-37 -15 -96 -15 -131 -5c-57 16 -92 63 -92 127
c0 45 27 90 71 123c30 22 68 37 108 43c35 5 72 4 109 -4c0 7 1 13 1 15c0 0 -2 138 -1 123c-7 -35 -41 -98 -90 -98c-52 0 -81 43 -92 99c-22 -5 -44 -7 -68 -7c-213 0 -434 177 -434 408c0 82 18 148 53 199c30 44 90 107 232 107c77 0 159 -36 188 -77
c25 -37 4 -60 -18 -64c-4 -1 8 7 2 16c-22 36 -63 67 -114 84c-54 19 -110 21 -161 7c-48 -13 -88 -42 -116 -82c-33 -48 -50 -112 -50 -190c0 -201 182 -373 385 -390c35 -3 68 -2 98 5c-14 111 40 264 144 264c26 0 43 -21 51 -44c18 5 51 5 51 -56c0 -14 2 -35 0 -58
c0 -75 -3 -149 -3 -270v-9c84 -36 157 -110 235 -187c62 -62 126 -125 199 -174c81 -54 163 -80 249 -80c161 0 246 108 246 214c0 157 -157 206 -250 206c-186 0 -257 -163 -273 -205c-2 -7 10 -6 6 -8c-15 -8 -53 29 -44 66c13 51 111 167 300 167zM655 355
c-62 0 -94 -130 -87 -220c67 29 109 96 128 175c0 7 -1 14 -2 21c-6 13 -17 24 -39 24zM615 50c72 0 87 141 80 200c-22 -58 -67 -103 -125 -132c6 -39 21 -68 45 -68zM623 -308c113 42 73 132 73 228c0 6 -1 14 -1 25c-36 8 -72 10 -106 4c-38 -5 -73 -20 -102 -40
c-40 -30 -64 -70 -64 -110c0 -30 9 -55 24 -74c14 -18 33 -31 57 -38c30 -8 87 -9 119 5z" />
    <glyph glyph-name="g_ss12" horiz-adv-x="832" 
d="M1492 -85c21 -19 32 -46 32 -78c0 -47 -25 -99 -68 -137c-23 -21 -49 -38 -79 -50c-33 -13 -69 -19 -106 -19c-46 0 -89 15 -133 47c-38 28 -59 52 -95 91c-15 -6 -90 -44 -154 -44c-106 0 -107 53 -89 76c11 15 5 -1 9 -3c56 -28 111 -34 173 -17c13 3 25 7 38 12
c-73 79 -149 156 -269 156h-7c-1 -48 -15 -196 -84 -202c-43 -4 -73 29 -73 77c0 34 15 69 41 95c12 13 32 27 59 36v125v17c-7 -35 -41 -96 -90 -96c-13 0 -25 3 -36 8v0c-1 1 -2 1 -2 2h-1c-1 0 -1 1 -2 1l-1 1v0c-26 16 -43 48 -50 87c-21 -5 -43 -7 -68 -7
c-108 0 -221 46 -305 124c-40 37 -71 79 -93 125c-28 59 -35 119 -35 189v2c5 67 22 123 52 167c7 11 17 23 29 36c37 36 97 71 203 71c77 0 159 -36 188 -77c15 -21 14 -37 7 -48c-5 -9 -15 -15 -25 -16c-4 -1 8 7 2 16c-22 36 -63 67 -114 84c-39 14 -78 19 -117 15
c-202 -14 -254 -269 -175 -432c21 -44 51 -85 89 -120c90 -84 230 -141 359 -113c-14 112 40 264 144 264c5 0 9 0 14 -2c18 -5 31 -23 37 -42c18 5 51 5 51 -56c0 -14 2 -35 0 -58c0 -50 -2 -115 -3 -216c0 -15 -1 -29 -1 -41h7c60 0 114 -18 167 -55
c44 -31 81 -71 118 -110c37 16 74 37 110 57c78 45 158 91 247 91c42 0 76 -11 99 -33zM607 50c3 0 5 0 7 1c36 7 71 73 71 121c0 16 1 36 2 59v18c-21 -59 -68 -106 -125 -131v0v0v0v0c6 -40 20 -68 45 -68zM647 355c-4 0 -8 0 -12 -1c-54 -16 -82 -134 -75 -219
c63 27 109 90 125 161c0 3 4 16 1 33v2c-6 13 -17 24 -39 24zM655 -238c58 1 32 124 32 166v10c-22 -8 -37 -20 -48 -31c-23 -22 -36 -53 -36 -83c0 -32 18 -59 52 -62zM1445 -289c40 36 63 83 63 126c0 27 -10 50 -27 67c-20 18 -50 28 -88 28c-109 0 -298 -141 -334 -157
c67 -73 120 -128 212 -128c35 0 69 6 100 18c28 11 53 27 74 46z" />
    <glyph glyph-name="g_ss13" horiz-adv-x="335" 
d="M247 280c0 -68 -1 -135 -2 -207c0 -39 -1 -79 -1 -185c0 -114 -42 -257 -166 -308c-24 -10 -63 -17 -88 -17c-277 0 -258 397 -33 397c40 0 29 -61 14 -61c-2 4 10 18 -12 18c-198 0 -193 -338 30 -338c23 0 60 6 83 16c52 22 96 64 117 117c15 55 -2 116 -2 144
c0 66 -1 133 -1 224v20c-6 -35 -40 -99 -90 -99c-52 0 -81 43 -92 99c-22 -5 -44 -7 -68 -7c-11 0 -23 1 -35 2c-97 9 -196 53 -270 122c-40 37 -71 79 -93 125c-24 50 -36 103 -36 159c0 82 18 148 53 199c30 44 90 107 232 107c77 0 159 -36 188 -77c25 -37 4 -60 -18 -64
c-4 -1 8 7 2 16c-22 36 -63 67 -114 84c-54 19 -110 21 -161 7c-48 -13 -88 -42 -116 -82c-33 -48 -50 -112 -50 -190c0 -53 12 -104 35 -152c21 -44 51 -85 89 -120c72 -67 167 -110 261 -118c35 -3 68 -2 98 5c-14 111 40 264 144 264c26 0 43 -21 51 -44
c18 5 51 5 51 -56zM146 355c-62 0 -94 -130 -87 -220c9 4 18 9 26 14c26 17 48 39 65 65c17 27 30 60 37 96c0 7 -1 14 -2 21c-6 13 -17 24 -39 24zM106 50c72 0 80 141 80 200c-6 -16 -14 -31 -23 -45c-18 -28 -42 -51 -70 -69c-10 -7 -21 -13 -32 -18c6 -39 21 -68 45 -68
z" />
    <glyph glyph-name="g_ss14" horiz-adv-x="317" 
d="M248 280c0 -68 -1 -135 -2 -207c0 -46 -1 -93 -1 -185c0 -114 -42 -257 -166 -308c-24 -10 -63 -17 -88 -17c-277 0 -258 397 -33 397c40 0 29 -61 14 -61c-2 4 10 18 -12 18c-198 0 -193 -338 30 -338c23 0 60 6 83 16c52 22 98 69 119 122c10 41 -4 111 -4 139
c0 8 -1 21 -1 37v162v0v25v20c-6 -35 -40 -99 -90 -99c-154 0 -114 379 49 379c26 0 43 -21 51 -44c18 5 51 5 51 -56zM107 50c84 0 81 167 82 224c0 18 -1 38 -3 57c-6 13 -17 24 -39 24c-95 0 -120 -305 -40 -305z" />
    <glyph glyph-name="g_ss15" horiz-adv-x="689" 
d="M699 702c156 0 289 -105 289 -306c0 -32 -3 -67 -8 -104c-10 -69 -30 -133 -62 -191c-28 -53 -65 -100 -108 -139c-41 -35 -86 -64 -133 -82c-39 -15 -86 -22 -128 -22c-172 0 -238 105 -256 183l-9 -9c-14 -13 -28 -24 -42 -36c0 -17 -1 -33 -1 -46
c0 -94 -29 -213 -81 -213c-25 0 -41 7 -53 20c-10 10 -22 28 -22 58c0 37 13 71 39 102c17 21 40 40 63 58v105v20c-6 -35 -40 -99 -90 -99c-154 0 -114 379 49 379c26 0 43 -21 51 -44c18 5 51 5 51 -56c0 -14 -1 -35 -3 -58c-1 -60 -2 -140 -3 -205c13 10 25 21 36 32v0
c3 3 6 6 12 13c-4 40 -9 84 8 144c9 33 25 39 35 39c8 0 18 -4 22 -11c27 -55 -15 -141 -47 -178c14 -101 106 -183 237 -183c82 0 177 33 254 101c42 38 77 83 105 135c31 56 51 119 60 186c5 35 8 69 8 100c0 86 -48 258 -258 258c-134 0 -196 -85 -218 -130
c-4 -8 7 -2 1 -7c-4 -3 -43 24 -38 47c18 78 124 139 240 139zM107 50c101 0 79 220 79 281c-6 13 -17 24 -39 24c-95 0 -120 -305 -40 -305zM155 -248c58 2 32 124 32 166v36c-47 -37 -86 -76 -86 -139c0 -41 27 -62 52 -62c1 0 1 0 2 -1zM305 80c3 3 4 4 10 14
c10 16 19 41 25 61c12 49 4 66 1 70c-3 2 -5 4 -8 4c-5 0 -13 -7 -19 -28c-7 -19 -10 -44 -10 -67c0 -18 0 -35 1 -54z" />
    <glyph glyph-name="g_ss16" horiz-adv-x="672" 
d="M595 280c247 0 244 -475 -52 -475c-180 0 -239 130 -257 230c-14 -14 -29 -27 -44 -39c0 -17 -1 -33 -1 -46c0 -94 -29 -213 -81 -213c-25 0 -41 7 -53 20c-10 10 -22 28 -22 58c0 37 13 71 39 102c17 21 40 40 63 58v105v20c-6 -35 -40 -99 -90 -99
c-154 0 -114 379 49 379c26 0 43 -21 51 -44c18 5 51 5 51 -56c0 -14 -1 -35 -3 -58c-1 -60 -2 -140 -3 -205c14 12 28 24 40 37v0l1 1c-3 46 -10 93 7 141c10 32 24 39 34 39c34 0 30 -51 26 -82v0c-9 -37 -24 -73 -51 -105c7 -66 60 -228 248 -228c270 0 252 420 42 420
c-23 0 -44 -25 -26 -36c-35 0 -29 76 32 76zM185 172c0 52 7 104 1 159c-6 13 -17 24 -39 24c-95 0 -120 -305 -40 -305c39 0 78 71 78 122zM153 -247c62 0 34 126 34 165v36c-47 -37 -86 -76 -86 -139c0 -41 27 -62 52 -62zM305 191c-13 -38 -11 -80 -9 -121
c9 12 17 25 23 38c5 12 9 24 13 36c2 7 15 75 -8 75c-5 0 -12 -7 -19 -28z" />
    <glyph glyph-name="g_ss17" horiz-adv-x="1091" 
d="M1489 415c17 1 25 -18 25 -64c0 -169 -618 15 -740 15c-70 0 -128 4 -167 -31c-20 -18 -34 -39 -42 -63c8 5 18 8 30 8c247 0 244 -475 -52 -475c-180 0 -239 130 -257 230c-14 -14 -29 -27 -44 -39c0 -17 -1 -33 -1 -46c0 -94 -29 -213 -81 -213c-25 0 -41 7 -53 20
c-10 10 -22 28 -22 58c0 37 13 71 39 102c17 21 40 40 63 58v105v20c-6 -35 -40 -99 -90 -99c-154 0 -114 379 49 379c26 0 43 -21 51 -44c18 5 51 5 51 -56c0 -14 -1 -35 -3 -58c-1 -60 -2 -140 -3 -205c14 12 28 24 40 37v0l1 1c-5 25 -16 180 41 180c8 0 15 -4 21 -11
c9 -12 11 -39 5 -71c-6 -37 -25 -74 -51 -105c0 -2 0 -5 1 -10v0c9 -61 64 -218 247 -218c270 0 252 420 42 420c-13 0 -25 -8 -30 -17c0 -33 25 -73 67 -73c5 0 8 -4 8 -8c0 -5 -2 -8 -6 -8c-25 0 -49 10 -64 29c-42 56 -20 137 32 184c42 37 103 57 176 57
c88 0 518 -63 604 -63c135 0 140 55 118 63c-9 4 -9 10 -5 11zM107 50c102 0 78 220 79 281c-6 13 -17 24 -39 24c-95 0 -120 -305 -40 -305zM153 -247c62 0 34 126 34 165v36c-47 -37 -86 -76 -86 -139c0 -41 27 -62 52 -62zM305 191c-13 -38 -11 -80 -9 -121
c9 12 17 25 23 38c5 12 9 24 13 36c2 7 15 75 -8 75c-5 0 -12 -7 -19 -28z" />
    <glyph glyph-name="h_ss1" horiz-adv-x="741" 
d="M784 235c-2 -55 -16 -110 -39 -151c-8 -15 -17 -28 -27 -38v0c-24 -27 -50 -44 -78 -44c-52 0 -55 56 -55 98c0 30 11 109 11 136s7 96 -24 96c-39 0 -78 -155 -78 -206c0 -37 -8 -56 -2 -116c0 -1 -6 -4 -11 -6c-16 -5 -47 -5 -50 47c-6 -17 -13 -32 -21 -46
c-29 -49 -68 -86 -115 -105c-24 -10 -63 -17 -88 -17c-277 0 -258 397 -33 397c40 0 29 -61 14 -61c-2 4 10 18 -12 18c-198 0 -193 -338 30 -338c23 0 60 6 83 16c43 18 80 52 107 98c17 29 29 64 37 103c2 41 4 92 5 133c-19 82 -60 169 -60 264c0 45 0 122 58 122
c76 0 61 -327 61 -399v-12c13 54 45 156 95 156c47 0 60 -46 60 -101c0 -51 -16 -162 -13 -205c2 -23 14 -39 25 -39c12 0 25 6 38 17c10 10 20 23 29 40c21 39 35 91 37 144c0 5 4 8 8 8c5 0 8 -4 8 -9zM438 304c-1 24 -3 55 -3 124c0 93 27 191 -1 191
c-31 0 -41 -47 -41 -116c0 -50 25 -132 45 -199z" />
    <glyph glyph-name="h_ss2" horiz-adv-x="1052" 
d="M1095 235c-2 -55 -16 -110 -39 -151c-8 -15 -17 -28 -27 -38v0c-24 -27 -50 -44 -78 -44c-52 0 -55 56 -55 98c0 30 11 109 11 136s7 96 -24 96c-70 0 -89 -270 -80 -322c0 -1 -6 -4 -11 -6c-16 -5 -47 -5 -50 47c-6 -17 -13 -32 -21 -46c-29 -49 -68 -86 -115 -105
c-24 -10 -63 -17 -88 -17c-277 0 -258 397 -33 397c1 0 2 0 4 -1c-9 19 -22 37 -38 52c-38 34 -97 31 -166 31c-123 0 -741 -184 -741 -15c0 46 8 65 25 63c5 0 4 -7 -5 -10c-21 -8 -17 -64 119 -64c85 0 515 63 603 63c73 0 134 -19 176 -56c34 -31 54 -73 54 -116
c0 -26 -8 -50 -22 -68c-15 -19 -39 -29 -64 -29c-4 0 -6 3 -6 7c0 5 3 8 8 8c44 0 68 42 68 88c-2 2 -6 4 -13 4c-198 0 -193 -338 30 -338c23 0 60 6 83 16c43 18 80 52 107 98c17 29 29 64 37 103c2 41 4 92 5 133c-19 82 -60 169 -60 264c0 45 0 122 58 122
c78 0 60 -332 61 -401c13 54 45 146 95 146c47 0 60 -46 60 -101c0 -51 -16 -162 -13 -205c2 -23 14 -39 25 -39c12 0 25 6 38 17c10 10 20 23 29 40c21 39 35 91 37 144c0 5 4 8 8 8c5 0 8 -4 8 -9zM749 304c-1 24 -3 55 -3 124c0 93 27 191 -1 191c-31 0 -41 -47 -41 -116
c0 -50 25 -132 45 -199z" />
    <glyph glyph-name="h_ss3" horiz-adv-x="740" 
d="M783 235c-2 -55 -16 -110 -39 -151c-8 -15 -17 -28 -27 -38v0c-24 -27 -50 -44 -78 -44c-52 0 -55 56 -55 98c0 30 11 109 11 136s7 96 -24 96c-70 0 -89 -270 -80 -322c0 -1 -6 -4 -11 -6c-17 -5 -50 -4 -50 56c0 24 3 79 5 132c-16 -22 -37 -41 -60 -56
c-44 -28 -98 -43 -157 -43c-216 0 -434 179 -434 408c0 172 89 306 285 306c77 0 159 -36 187 -77c26 -37 5 -60 -17 -64c-4 -1 7 7 2 16c-23 36 -64 67 -115 84c-194 70 -326 -74 -326 -265c0 -199 177 -372 384 -390c70 -7 133 7 182 38c26 17 48 39 65 65c2 3 4 6 5 8
c1 10 1 19 1 27c-19 82 -60 169 -60 264c0 45 0 122 58 122c78 0 60 -332 61 -401c13 54 45 146 95 146c47 0 60 -46 60 -101c0 -51 -16 -162 -13 -205c2 -23 14 -39 25 -39c12 0 25 6 38 17c10 10 20 23 29 40c21 39 35 91 37 144c0 5 4 8 8 8c5 0 8 -4 8 -9zM437 304
c-1 24 -3 55 -3 124c0 93 27 191 -1 191c-31 0 -41 -47 -41 -116c0 -50 25 -132 45 -199z" />
    <glyph glyph-name="h_ss4" horiz-adv-x="309" 
d="M68 440v-25c0 -28 -1 -145 -2 -181c13 54 45 146 95 146c47 0 60 -46 60 -101c0 -51 -16 -162 -13 -205c2 -23 14 -39 25 -39c12 0 25 6 38 17c10 10 20 23 29 40c21 39 35 91 37 144c0 5 4 8 8 8c5 0 8 -4 8 -9c-2 -55 -16 -110 -39 -151c-8 -15 -17 -28 -27 -38v0
c-24 -27 -50 -44 -78 -44c-52 0 -55 56 -55 98c0 30 11 109 11 136s7 96 -24 96c-70 0 -89 -270 -80 -322c0 -1 -6 -4 -11 -6c-17 -5 -50 -4 -50 56c0 30 5 105 7 167c-1 43 1 220 1 244v13c-48 50 -60 116 -60 148c0 33 11 91 56 91c81 0 57 -192 64 -264
c31 -16 70 -27 119 -27c79 0 130 35 157 65c34 37 53 88 53 140s-19 101 -54 136c-40 40 -99 61 -170 61c-115 0 -270 -166 -411 -166c-32 0 -65 5 -77 34c-5 12 0 35 12 35c5 0 -4 -6 4 -11c31 -18 100 -25 229 38c75 37 157 86 243 86c76 0 139 -23 182 -66
c38 -38 58 -90 58 -147c0 -56 -21 -111 -57 -151c-29 -32 -84 -70 -169 -70c-48 0 -88 10 -119 24zM-36 632c0 -34 12 -83 45 -124c0 69 55 199 -5 199c-33 0 -39 -49 -40 -75z" />
    <glyph glyph-name="h_ss5" horiz-adv-x="312" 
d="M345 244c5 0 8 -4 8 -9c-2 -55 -16 -110 -39 -151c-8 -15 -17 -28 -27 -38v0c-24 -27 -50 -44 -78 -44c-52 0 -55 56 -55 98c0 30 11 109 11 136s7 96 -24 96c-71 0 -89 -269 -80 -322c0 -1 -6 -4 -11 -6c-17 -5 -50 -4 -50 56c0 30 5 105 7 167c-2 81 1 163 1 250
c-26 29 -44 64 -52 101c-18 -7 -37 -13 -55 -20c-124 -43 -252 -88 -393 -88c-114 0 -224 90 -224 214c0 122 116 196 230 196c157 0 250 -160 277 -161c4 0 4 7 5 3c4 -10 -18 -51 -71 -23c-36 19 -84 165 -211 165c-98 0 -214 -61 -214 -180c0 -109 96 -198 208 -198
c138 0 265 44 388 87l57 21c-1 9 -2 19 -2 29c0 33 12 91 56 91c41 0 49 -54 54 -87c62 17 125 29 189 29c34 0 62 -11 80 -30c17 -17 27 -42 27 -69c0 -38 -17 -77 -47 -106c-23 -23 -65 -51 -132 -51c-39 0 -77 9 -110 28v-13c0 -28 -1 -145 -2 -181c13 54 45 146 95 146
c47 0 60 -46 60 -101c0 -51 -16 -162 -13 -205c2 -23 14 -39 25 -39c12 0 25 6 38 17c10 10 20 23 29 40c21 39 35 91 37 144c0 5 4 8 8 8zM250 640c-63 0 -125 -12 -187 -29c5 -40 5 -91 5 -164c33 -21 71 -31 110 -31c61 0 100 25 121 46c26 26 42 62 42 95
c0 40 -24 83 -91 83zM-33 623c0 -8 1 -16 2 -24c19 6 37 12 56 18c2 19 20 81 -18 81c-33 0 -39 -49 -40 -75zM-28 583c6 -29 18 -57 37 -82c2 36 8 69 13 98c-17 -5 -34 -10 -50 -16z" />
    <glyph glyph-name="h_ss6" horiz-adv-x="310" 
d="M353 235c-2 -55 -16 -110 -39 -151c-8 -15 -17 -28 -27 -38v0c-24 -27 -50 -44 -78 -44c-52 0 -55 56 -55 98c0 30 11 109 11 136s7 96 -24 96c-68 0 -89 -262 -80 -322c0 -1 -6 -4 -11 -6c-17 -5 -50 -4 -50 56c0 31 5 110 7 173v0c0 64 1 137 1 151c0 23 1 45 4 65
c-7 6 -14 12 -20 19c-18 20 -30 49 -33 80c-6 52 15 76 35 81c11 3 22 0 33 -7c33 -27 40 -70 40 -177c7 -1 14 -2 21 -2c40 0 65 42 65 81c0 116 -106 138 -210 138c-123 0 -746 -187 -746 -18c0 46 8 65 25 63c5 0 4 -7 -5 -10c-21 -8 -17 -64 119 -64c85 0 515 63 603 63
c100 0 230 -50 230 -172c0 -49 -31 -97 -86 -97h-1c-5 0 -10 1 -14 1v-99c0 -15 -1 -46 -2 -88c14 55 47 139 95 139c47 0 60 -46 60 -101c0 -51 -16 -162 -13 -205c2 -23 14 -39 25 -39c12 0 25 6 38 17c10 10 20 23 29 40c21 39 35 91 37 144c0 5 4 8 8 8c5 0 8 -4 8 -9z
M4 478c3 -4 7 -7 10 -10c3 19 42 156 -16 146c-15 -4 -28 -25 -23 -64c3 -28 13 -54 29 -72z" />
    <glyph glyph-name="h_ss7" horiz-adv-x="311" 
d="M354 235c-2 -55 -16 -110 -39 -151c-8 -15 -17 -28 -27 -38v0c-24 -27 -50 -44 -78 -44c-52 0 -55 56 -55 98c0 30 11 109 11 136s7 96 -24 96c-70 0 -89 -270 -80 -322c0 -1 -6 -4 -11 -6c-17 -5 -50 -4 -50 56c0 30 5 105 7 167c-1 35 0 157 1 215
c-55 -26 -113 -50 -172 -50c-121 0 -241 76 -241 213c0 122 98 221 226 221c63 0 118 -18 160 -51c82 -60 85 -165 87 -263c59 34 120 63 179 63c32 0 65 -6 77 -34c5 -13 -1 -36 -12 -36c-5 0 3 7 -4 11c-31 18 -100 25 -229 -38c-4 -2 -7 -4 -11 -5v-58
c0 -28 -1 -145 -2 -181c13 54 45 146 95 146c47 0 60 -46 60 -101c0 -51 -16 -162 -13 -205c2 -23 14 -39 25 -39c12 0 25 6 38 17c10 10 20 23 29 40c21 39 35 91 37 144c0 5 4 8 8 8c5 0 8 -4 8 -9zM-388 605c0 -121 105 -196 225 -196c51 0 110 32 172 69
c1 90 28 166 22 201c-25 87 -120 131 -209 131c-114 0 -207 -85 -210 -205z" />
    <glyph glyph-name="h_ss8" horiz-adv-x="309" 
d="M921 611c76 0 104 -34 104 -76c0 -38 -19 -48 -23 -48c-15 0 -12 10 0 13c24 7 35 72 -97 49c-146 -25 -456 -133 -770 -133c-23 0 -46 3 -68 8v-9c0 -28 -1 -143 -2 -179c13 54 45 144 95 144c47 0 60 -46 60 -101c0 -51 -16 -162 -13 -205c2 -23 14 -39 25 -39
c12 0 25 6 38 17c10 10 20 23 29 40c21 39 35 91 37 144c0 5 4 8 8 8c5 0 8 -4 8 -9c-2 -55 -16 -110 -39 -151c-8 -15 -17 -28 -27 -38v0c-24 -27 -50 -44 -78 -44c-52 0 -55 56 -55 98c0 30 11 109 11 136s7 96 -24 96c-70 0 -89 -270 -80 -322c0 -1 -6 -4 -11 -6
c-17 -5 -50 -4 -50 56c0 30 5 105 7 167c-1 35 0 158 1 216c-15 6 -29 13 -42 22c-61 39 -93 97 -93 167c0 38 8 68 23 90c14 19 34 31 56 33c21 2 41 -5 58 -18c15 -12 28 -30 35 -50v0c22 -52 23 -113 23 -247c22 -5 45 -8 68 -8c248 0 594 179 786 179zM-26 478
c10 -7 21 -12 33 -18v11c0 106 64 268 -54 268c-32 0 -65 -32 -65 -107c0 -34 8 -65 24 -92c15 -24 36 -45 62 -62z" />
    <glyph glyph-name="h_ss9" horiz-adv-x="312" 
d="M542 674c0 -75 -65 -244 -357 -244c-36 0 -77 5 -117 17v-32c0 -28 -1 -155 -2 -191c13 54 45 156 95 156c47 0 60 -46 60 -101c0 -51 -16 -162 -13 -205c2 -23 14 -39 25 -39c12 0 25 6 38 17c10 10 20 23 29 40c21 39 35 91 37 144c0 5 4 8 8 8c5 0 8 -4 8 -9
c-2 -55 -16 -110 -39 -151c-8 -15 -17 -28 -27 -38v0c-24 -27 -50 -44 -78 -44c-52 0 -55 56 -55 98c0 30 11 109 11 136s7 96 -24 96c-70 0 -89 -270 -80 -322c0 -1 -6 -4 -11 -6c-17 -5 -50 -4 -50 56c0 30 5 105 7 167c-1 43 1 220 1 244v1c-56 30 -99 78 -99 150
c0 36 13 60 24 74c13 18 32 30 52 30c96 0 83 -179 83 -262c37 -12 78 -18 117 -18c273 0 341 154 341 227c0 90 -93 143 -148 143c-177 0 -213 -154 -213 -179c0 -4 9 -11 -5 -6c-34 11 -46 27 -46 49c0 54 89 152 243 152c120 0 185 -81 185 -158zM-49 540
c14 -19 33 -36 57 -50c3 68 19 127 22 165c-2 24 -13 55 -44 55c-15 0 -30 -10 -41 -24c-9 -12 -20 -32 -20 -64c0 -31 9 -58 26 -82z" />
    <glyph glyph-name="h_ss10" horiz-adv-x="309" 
d="M595 871c126 0 203 -94 203 -181c0 -53 -22 -106 -61 -146c-42 -44 -100 -68 -164 -68c-140 0 -268 45 -392 88c-19 7 -37 13 -56 20c-8 -40 -28 -78 -57 -108v-61c0 -28 -1 -155 -2 -191c13 54 45 156 95 156c47 0 60 -46 60 -101c0 -51 -16 -162 -13 -205
c2 -23 14 -39 25 -39c12 0 25 6 38 17c10 10 20 23 29 40c21 39 35 91 37 144c0 5 4 8 8 8c5 0 8 -4 8 -9c-2 -55 -16 -110 -39 -151c-8 -15 -17 -28 -27 -38v0c-24 -27 -50 -44 -78 -44c-52 0 -55 56 -55 98c0 30 11 109 11 136s7 96 -24 96c-70 0 -89 -270 -80 -322
c0 -1 -6 -4 -11 -6c-17 -5 -50 -4 -50 56c0 30 5 105 7 167c-1 32 0 142 1 204c-32 -17 -68 -25 -105 -25c-66 0 -108 28 -132 51c-29 29 -46 68 -46 106c0 43 32 113 127 113c66 0 119 -19 176 -40c4 31 -11 84 41 84c15 0 35 -9 45 -23c11 -17 17 -40 17 -68
c0 -10 -1 -20 -3 -30c19 -6 39 -13 58 -20c123 -43 249 -87 387 -87c31 0 60 5 87 17c25 11 47 26 66 46c35 37 56 86 56 135c0 80 -74 165 -187 165c-105 0 -187 -150 -275 -165c-39 -7 -63 28 -60 38c1 4 1 -3 5 -3c58 0 153 146 330 146zM-97 422c38 0 73 9 105 27v22
c0 57 11 109 17 149c-56 22 -108 40 -173 40c-66 0 -111 -43 -111 -97c0 -34 16 -69 42 -95c21 -21 59 -46 120 -46zM68 500c21 26 35 57 42 89c-16 5 -31 11 -46 16c3 -28 4 -62 4 -105zM113 605c1 8 2 16 2 24c0 31 -8 49 -15 59c-6 10 -22 16 -31 16
c-13 0 -23 -7 -20 -26c6 -17 10 -34 13 -55c16 -6 33 -12 51 -18z" />
    <glyph glyph-name="h_ss11" horiz-adv-x="541" 
d="M488 263c248 0 245 -475 -51 -475c-360 0 -272 350 -272 448c0 27 7 96 -24 96c-70 0 -89 -270 -80 -322c0 -1 -6 -4 -11 -6c-17 -5 -50 -4 -50 56c0 27 4 126 6 193c-19 80 -59 165 -59 258c0 45 0 122 58 122c76 0 62 -241 62 -355c0 -8 -1 -16 -1 -42v-12
c13 54 45 156 95 156c47 0 60 -46 60 -101c0 -129 -88 -476 219 -476c271 0 253 419 42 419c-22 0 -44 -24 -25 -35c-36 0 -29 76 31 76zM3 617c-31 0 -41 -47 -41 -116c0 -49 25 -132 45 -198c-1 23 -3 54 -3 123c0 94 27 191 -1 191z" />
    <glyph glyph-name="h_ss12" horiz-adv-x="982" 
d="M1377 415c17 1 26 -18 26 -64c0 -169 -618 15 -741 15c-70 0 -128 4 -167 -31c-27 -24 -44 -56 -48 -89c9 9 23 17 41 17c248 0 245 -475 -51 -475c-360 0 -272 350 -272 448c0 27 7 96 -24 96c-70 0 -89 -270 -80 -322c0 -1 -6 -4 -11 -6c-17 -5 -50 -4 -50 56
c0 27 4 126 6 193c-19 80 -59 165 -59 258c0 45 0 122 58 122c76 0 62 -241 62 -355c0 -14 -1 -19 -1 -45c13 54 45 147 95 147c47 0 60 -46 60 -101c0 -128 -89 -476 219 -476c271 0 253 419 42 419c-14 0 -28 -9 -31 -19c1 -6 3 -11 5 -16h1h-1c11 -21 30 -37 59 -37
c4 0 8 -4 8 -8c0 -5 -2 -8 -7 -8c-25 0 -48 10 -63 29c-15 18 -22 42 -22 69c0 42 19 84 54 115c41 37 102 57 176 57c88 0 518 -63 603 -63c135 0 140 55 119 63c-9 4 -10 10 -6 11zM3 617c-31 0 -41 -47 -41 -116c0 -49 25 -132 45 -198c-1 23 -3 54 -3 123
c0 94 27 191 -1 191z" />
    <glyph glyph-name="h_ss13" horiz-adv-x="614" 
d="M576 692c155 0 288 -105 288 -306c0 -32 -2 -67 -7 -103c-10 -69 -31 -134 -62 -192c-28 -53 -65 -100 -108 -138c-41 -36 -141 -120 -261 -120c-289 0 -261 189 -261 403c0 27 7 96 -24 96c-39 0 -78 -155 -78 -206c0 -37 -8 -56 -2 -116c0 -1 -6 -4 -11 -6
c-17 -5 -50 -4 -50 56c0 27 4 126 6 193c-19 80 -59 165 -59 258c0 45 0 122 58 122c86 0 59 -305 61 -409c13 54 45 156 95 156c47 0 60 -46 60 -101c0 -165 -57 -431 201 -431c82 0 177 48 254 117c42 37 77 82 105 134c30 56 51 119 60 186c5 36 7 69 7 100
c0 87 -47 258 -257 258c-134 0 -196 -85 -218 -130c-4 -8 7 -2 1 -7c-4 -3 -43 24 -38 47c18 79 124 139 240 139zM3 617c-31 0 -41 -47 -41 -116c0 -49 25 -132 45 -198c-1 23 -3 54 -3 123c0 94 27 191 -1 191z" />
    <glyph glyph-name="h_ss14" horiz-adv-x="426" 
d="M408 -4c6 -43 -8 -86 -38 -118c-36 -38 -94 -59 -167 -61c-87 -2 -522 52 -606 50c-135 -3 -132 -59 -110 -67c9 -3 11 -10 7 -10c-17 -2 -27 17 -33 63c-23 170 614 -1 736 2c69 2 127 0 161 35c27 29 40 67 35 105s-30 79 -73 81c-8 1 -13 -2 -17 -7
c-17 -33 -50 -68 -94 -68c-52 0 -55 56 -55 98c0 30 11 109 11 136s7 96 -25 96c-39 0 -77 -155 -77 -206c0 -36 -8 -56 -2 -116c0 -1 -6 -4 -11 -6c-17 -5 -50 -4 -50 56c0 34 6 125 7 190c-19 81 -60 168 -60 263c0 45 0 122 58 122c76 0 61 -327 61 -399v-12
c13 54 45 157 95 157c47 0 59 -47 59 -102c0 -51 -15 -161 -12 -205c2 -23 14 -38 25 -38c12 0 25 5 38 17c8 7 10 10 15 19c1 3 3 7 5 9v0v0c5 8 13 13 24 12v0c23 -1 46 -10 63 -28c16 -18 27 -42 30 -68zM3 618c-31 0 -41 -47 -41 -116c0 -49 25 -132 45 -198
c-1 23 -3 54 -3 123c0 94 27 191 -1 191z" />
    <glyph glyph-name="i_ss1" horiz-adv-x="156" 
d="M198 235c-2 -55 -16 -110 -39 -151c-8 -15 -17 -28 -27 -38v0c-24 -27 -50 -44 -78 -44c-33 0 -44 35 -47 63c-7 -22 -16 -42 -26 -60c-29 -49 -69 -86 -115 -105c-24 -10 -64 -17 -88 -17c-278 0 -259 397 -34 397c41 0 29 -61 14 -61c-1 4 11 18 -12 18
c-198 0 -192 -338 30 -338c23 0 61 6 83 16c44 18 81 52 108 98c18 32 31 73 39 117c1 52 3 155 -1 201c-1 0 10 7 24 7c17 0 37 -10 37 -58c0 -46 -11 -149 -7 -206c3 -23 8 -39 19 -39c13 0 26 6 38 17c10 10 20 22 29 40c22 39 35 91 37 144c1 4 4 8 9 8c4 0 8 -4 7 -9z
M36 380c-24 0 -36 24 -36 45c0 15 7 30 24 30c24 0 36 -24 36 -45c0 -15 -8 -30 -24 -30z" />
    <glyph glyph-name="i_ss2" horiz-adv-x="897" 
d="M939 235c-2 -55 -16 -110 -39 -151c-8 -15 -17 -28 -27 -38v0c-24 -27 -50 -44 -78 -44c-33 0 -44 35 -47 63c-7 -22 -16 -42 -26 -60c-29 -49 -69 -86 -115 -105c-24 -10 -64 -17 -88 -17c-278 0 -259 397 -34 397c2 0 3 0 5 -1c-9 19 -21 37 -38 52
c-38 34 -97 30 -166 30c-123 0 -741 -184 -741 -14c0 46 9 65 25 63c5 0 4 -7 -5 -10c-21 -8 -17 -64 119 -64c85 0 515 63 603 63c74 0 134 -19 176 -56c34 -31 54 -73 54 -116c0 -26 -8 -50 -22 -68c-15 -19 -39 -29 -63 -29c-5 0 -7 3 -7 7c0 5 4 8 8 8c44 0 65 37 68 74
h-2c0 2 2 6 2 9v3c-1 3 -4 6 -14 6c-198 0 -192 -338 30 -338c23 0 61 6 83 16c44 18 81 52 108 98c18 32 31 73 39 117c1 52 3 155 -1 201c-1 0 10 7 24 7c17 0 37 -10 37 -58c0 -46 -11 -149 -7 -206c3 -23 8 -39 19 -39c13 0 26 6 38 17c10 10 20 22 29 40
c22 39 35 91 37 144c1 4 4 8 9 8c4 0 8 -4 7 -9zM777 380c-24 0 -36 24 -36 45c0 15 7 30 24 30c24 0 36 -24 36 -45c0 -15 -8 -30 -24 -30z" />
    <glyph glyph-name="i_ss3" horiz-adv-x="614" 
d="M656 235c-2 -55 -16 -110 -39 -151c-8 -15 -17 -28 -27 -38v0c-24 -27 -50 -44 -78 -44c-51 0 -49 84 -49 98c0 5 3 79 2 145c-5 -13 -12 -26 -20 -38c-18 -28 -42 -52 -70 -70c-43 -28 -97 -42 -157 -42c-11 0 -23 0 -35 1c-146 14 -296 106 -363 247
c-24 50 -36 104 -36 160c0 172 91 305 285 305c77 0 159 -36 188 -77c25 -36 4 -60 -18 -64c-4 -1 8 7 2 16c-22 36 -64 67 -115 85c-53 18 -110 21 -160 7c-118 -34 -166 -152 -166 -272c0 -54 12 -105 35 -153c62 -129 200 -224 350 -238c132 -12 242 49 280 181
c-1 15 -1 28 -2 38c-1 0 10 7 24 7c17 0 37 -10 37 -58c0 -46 -11 -149 -7 -206c3 -23 8 -39 19 -39c13 0 26 6 38 17c10 10 20 22 29 40c22 39 35 91 37 144c1 4 4 8 9 8c4 0 8 -4 7 -9zM494 380c-24 0 -36 24 -36 45c0 15 7 30 24 30c24 0 36 -24 36 -45
c0 -15 -8 -30 -24 -30z" />
    <glyph glyph-name="i_ss4" horiz-adv-x="149" 
d="M-6 425c0 15 7 30 24 30c24 0 36 -24 36 -45c0 -15 -8 -30 -24 -30c-24 0 -36 24 -36 45zM405 622c12 0 17 -23 12 -35c-12 -29 -45 -34 -76 -34c-142 0 -297 166 -411 166c-72 0 -131 -21 -171 -62c-35 -34 -54 -83 -54 -135s19 -103 53 -140c27 -30 78 -65 157 -65
c30 0 58 5 84 13v1c-1 0 10 7 24 7c17 0 37 -10 37 -58c0 -46 -11 -149 -7 -206c3 -23 8 -39 19 -39c13 0 26 6 38 17c10 10 20 22 29 40c22 39 35 91 37 144c1 4 4 8 9 8c4 0 8 -4 7 -9c-2 -55 -16 -110 -39 -151c-8 -15 -17 -28 -27 -38v0c-24 -27 -50 -44 -78 -44
c-51 0 -49 84 -49 98c0 7 5 144 1 214c-26 -8 -55 -13 -85 -13c-85 0 -140 38 -169 70c-36 40 -57 95 -57 151c0 57 21 109 59 147c43 43 106 66 182 66c85 0 167 -49 242 -86c130 -63 198 -56 229 -38c8 5 0 11 4 11z" />
    <glyph glyph-name="i_ss5" horiz-adv-x="136" 
d="M30 381c-24 0 -36 24 -36 44c0 16 7 30 24 30c24 0 36 -24 36 -44c0 -16 -8 -30 -24 -30zM168 -1c0 -43 -6 -72 -36 -104c-37 -38 -103 -50 -176 -52c-87 -2 -434 29 -519 27c-134 -3 -131 -59 -109 -67c9 -3 11 -10 7 -10c-17 -2 -28 17 -34 63c-24 184 682 -7 805 61
c29 16 43 43 43 81c0 19 -10 33 -29 33c-28 0 -20 -31 -72 -31c-51 0 -49 86 -49 100c0 8 6 171 0 231c-1 1 10 8 24 8c17 0 37 -11 37 -58c0 -46 -11 -150 -7 -207c3 -23 8 -38 19 -38c10 0 21 15 45 15c32 0 51 -25 51 -52z" />
    <glyph glyph-name="i_ss6" horiz-adv-x="385" 
d="M30 378c-24 0 -36 24 -36 44c0 16 7 30 24 30c24 0 36 -24 36 -44c0 -16 -8 -30 -24 -30zM333 263c248 0 245 -475 -51 -475c-268 0 -282 267 -282 286v0c-1 11 -1 19 -1 23c0 8 6 171 0 231c-1 1 10 8 24 8c17 0 37 -11 37 -58c0 -120 -78 -475 225 -475
c271 0 253 419 42 419c-22 0 -43 -24 -25 -35c-36 0 -29 76 31 76z" />
    <glyph glyph-name="i_ss7" horiz-adv-x="844" 
d="M30 378c-24 0 -36 24 -36 44c0 16 7 30 24 30c24 0 36 -24 36 -44c0 -16 -8 -30 -24 -30zM1219 415c17 1 26 -18 26 -64c0 -169 -618 15 -741 15c-70 0 -128 3 -166 -31c-29 -25 -46 -59 -49 -94c9 12 23 22 44 22c248 0 245 -475 -51 -475c-268 0 -282 267 -282 286v0
c-1 11 -1 19 -1 23c0 8 6 171 0 231c-1 1 10 8 24 8c17 0 37 -11 37 -58c0 -126 -77 -475 225 -475c271 0 253 419 42 419c-66 0 -14 -72 30 -72c4 0 8 -4 8 -8c0 -5 -2 -8 -7 -8c-25 0 -48 10 -63 29c-15 18 -22 42 -22 69c0 42 19 84 54 115c41 37 102 57 176 57
c88 0 518 -63 603 -63c135 0 140 55 119 63c-9 4 -10 10 -6 11z" />
    <glyph glyph-name="i_ss8" horiz-adv-x="475" 
d="M32 378c-24 0 -36 24 -36 44c0 16 7 30 24 30c24 0 36 -24 36 -44c0 -16 -8 -30 -24 -30zM422 692c155 0 288 -105 288 -306c0 -32 -2 -67 -7 -104c-10 -68 -31 -133 -62 -191c-29 -53 -65 -100 -109 -138c-40 -36 -140 -120 -261 -120c-167 0 -270 84 -270 264
c0 8 6 171 0 231c-1 1 10 8 24 8c17 0 37 -11 37 -58c0 -165 -51 -430 206 -430c82 0 176 48 254 117c42 37 77 82 105 134c30 56 50 119 60 186c5 36 7 69 7 100c0 86 -47 258 -257 258c-135 0 -196 -85 -218 -130c-4 -8 7 -2 1 -7c-4 -3 -44 24 -38 47
c17 78 124 139 240 139z" />
    <glyph glyph-name="j_ss1" horiz-adv-x="585" 
d="M470 380c-24 0 -36 24 -36 45c0 15 7 30 23 30c24 0 37 -24 37 -45c0 -15 -9 -30 -24 -30zM620 244c5 0 8 -4 8 -9c-2 -45 -13 -93 -30 -133c-22 -51 -65 -85 -107 -118v-34c0 -94 -22 -213 -82 -213c-44 0 -74 32 -74 78c0 37 10 61 36 92c15 18 41 39 66 57
c0 27 1 61 2 96c-7 -20 -15 -38 -25 -55c-28 -49 -68 -86 -115 -105c-24 -10 -63 -17 -87 -17c-278 0 -259 397 -34 397c40 0 29 -61 14 -61c-2 4 11 18 -12 18c-198 0 -193 -338 30 -338c23 0 61 6 83 16c44 18 81 52 107 98c19 33 33 75 40 120c3 64 4 128 -2 198
c0 0 11 7 24 7c17 0 38 -10 38 -58c0 -86 -8 -172 -9 -275c37 29 73 60 92 103c17 39 27 84 29 128c0 4 4 8 8 8zM404 -248c58 2 32 124 32 166c0 7 0 15 1 26c-46 -34 -86 -72 -86 -129c0 -42 25 -63 53 -63z" />
    <glyph glyph-name="j_ss2" horiz-adv-x="874" 
d="M759 380c-24 0 -36 24 -36 45c0 15 7 30 23 30c24 0 37 -24 37 -45c0 -15 -9 -30 -24 -30zM909 244c5 0 8 -4 8 -9c-2 -45 -13 -93 -30 -133c-22 -51 -65 -85 -107 -118v-34c0 -94 -25 -213 -86 -213c-42 0 -70 35 -70 78c0 37 10 61 36 92c15 18 41 39 66 57
c0 27 1 61 2 96c-7 -20 -15 -38 -25 -55c-28 -49 -68 -86 -115 -105c-24 -10 -63 -17 -87 -17c-278 0 -259 397 -34 397c2 0 3 0 4 -1c-8 19 -21 37 -37 52c-39 34 -97 30 -167 30c-122 0 -740 -184 -740 -14c0 46 8 65 25 63c4 0 3 -7 -5 -10c-22 -8 -17 -64 118 -64
c85 0 515 63 604 63c73 0 134 -19 175 -56c35 -31 54 -73 54 -116c0 -26 -7 -50 -22 -68c-15 -19 -38 -29 -63 -29c-4 0 -6 3 -6 7c0 5 3 8 8 8c43 0 67 43 67 82v5c-1 3 -5 5 -13 5c-198 0 -193 -338 30 -338c23 0 61 6 83 16c44 18 81 52 107 98c19 33 33 75 40 120
c3 64 4 128 -2 198c0 0 11 7 24 7c17 0 38 -10 38 -58c0 -86 -8 -172 -9 -275c37 29 73 60 92 103c17 39 27 84 29 128c0 4 4 8 8 8zM693 -248c58 2 32 124 32 166c0 7 0 15 1 26c-46 -34 -86 -72 -86 -129c0 -42 27 -63 53 -63z" />
    <glyph glyph-name="j_ss3" horiz-adv-x="613" 
d="M498 380c-24 0 -36 24 -36 45c0 15 7 30 23 30c24 0 37 -24 37 -45c0 -15 -9 -30 -24 -30zM648 244c5 0 8 -4 8 -9c-2 -45 -13 -93 -30 -133c-22 -51 -65 -85 -107 -118v-34c0 -94 -18 -213 -82 -213c-24 0 -41 7 -53 20c-10 10 -21 28 -21 58c0 37 10 61 36 92
c15 18 41 39 66 57c1 83 4 166 4 264v28c-6 -18 -15 -34 -25 -49c-48 -75 -134 -112 -226 -112c-12 0 -23 0 -35 1c-144 13 -298 105 -363 247c-24 50 -36 104 -36 160c0 172 89 305 285 305c76 0 158 -36 187 -77c25 -36 5 -60 -17 -64c-5 -1 7 7 2 16
c-23 36 -64 67 -115 85c-53 18 -110 21 -160 7c-118 -34 -166 -151 -166 -272c0 -54 11 -105 34 -153c62 -129 201 -224 350 -238c140 -12 248 53 284 197c-1 8 -1 16 -2 22c0 0 11 7 24 7c17 0 38 -10 38 -58c0 -86 -8 -172 -9 -275c37 29 73 60 92 103c17 39 27 84 29 128
c0 4 4 8 8 8zM432 -248c58 2 32 124 32 166c0 7 0 15 1 26c-46 -34 -86 -72 -86 -129c0 -42 27 -63 53 -63z" />
    <glyph glyph-name="j_ss4" horiz-adv-x="460" 
d="M309 425c0 15 7 30 23 30c24 0 37 -24 37 -45c0 -15 -9 -30 -24 -30c-24 0 -36 24 -36 45zM716 622c12 0 18 -24 13 -36c-13 -28 -45 -34 -77 -34c-141 0 -296 166 -411 166c-72 0 -131 -21 -171 -61c-35 -35 -54 -83 -54 -136c0 -52 20 -103 54 -140
c26 -29 78 -64 156 -64c32 0 61 5 87 14v0s11 7 24 7c17 0 38 -10 38 -58c0 -29 -5 -80 -7 -129c-1 -49 -2 -102 -2 -146c37 29 73 60 92 103c17 39 27 84 29 128c0 4 4 8 8 8c5 0 8 -4 8 -9c-2 -45 -13 -93 -30 -133c-22 -51 -65 -85 -107 -118v-34
c0 -94 -21 -213 -84 -213c-43 0 -72 33 -72 78c0 37 10 61 36 92c15 18 41 39 66 57c1 73 4 196 4 249v15c0 32 0 63 -1 86c-28 -9 -57 -13 -89 -13c-84 0 -139 37 -168 69c-37 40 -58 95 -58 151c0 57 21 109 59 147c43 43 106 66 182 66c85 0 167 -48 243 -85
c129 -64 197 -57 229 -38c7 4 -1 11 3 11zM279 -248c58 2 32 124 32 166c0 7 0 15 1 26c-46 -34 -86 -72 -86 -129c0 -42 25 -63 53 -63z" />
    <glyph glyph-name="j_ss5" horiz-adv-x="119" 
d="M-34 -291c58 1 34 124 34 166v43c-18 -4 -36 -12 -49 -24c-31 -27 -49 -65 -49 -103c0 -39 18 -82 64 -82zM30 380c-23 0 -36 24 -36 45c0 15 7 30 24 30c24 0 36 -24 36 -45c0 -15 -8 -30 -24 -30zM56 -42c19 3 39 5 60 5c88 0 518 -63 603 -63c136 0 140 55 119 63
c-9 4 -10 10 -5 11c17 1 25 -18 25 -64c0 -169 -618 15 -741 15h-62v-19c0 -93 -19 -212 -92 -212c-54 0 -77 44 -77 97c0 42 20 84 54 115c17 15 38 27 60 36c0 181 7 284 -1 389c0 0 11 7 24 7c17 0 37 -10 37 -58c0 -29 -5 -80 -4 -322z" />
    <glyph glyph-name="j_ss6" horiz-adv-x="121" 
d="M30 380c-23 0 -36 24 -36 45c0 15 7 30 24 30c24 0 36 -24 36 -45c0 -15 -8 -30 -24 -30zM-33 -238c58 1 32 124 32 166v10c-46 -17 -84 -61 -84 -114c0 -32 18 -59 52 -62zM586 -353c101 0 237 70 237 190c0 63 -54 95 -115 95c-109 0 -298 -141 -334 -157
c67 -73 120 -128 212 -128zM-1 -45v67c1 101 8 204 0 309c0 0 11 7 24 7c17 0 37 -10 37 -58c0 14 -8 -251 -4 -315c67 0 121 -18 174 -55c44 -31 81 -71 118 -110c37 16 74 37 110 57c78 45 158 91 247 91c66 0 131 -36 131 -111c0 -124 -136 -206 -253 -206
c-96 0 -164 69 -228 138c-15 -6 -90 -44 -154 -44c-106 0 -107 53 -89 76c11 15 5 -1 9 -3c56 -28 111 -34 173 -17c13 3 25 7 38 12c-73 79 -149 156 -276 156c-1 -48 -15 -196 -84 -202c-43 -4 -73 29 -73 77c0 58 41 109 100 131z" />
    <glyph glyph-name="j_ss7" horiz-adv-x="128" 
d="M30 380c-23 0 -36 24 -36 45c0 15 7 30 24 30c24 0 36 -24 36 -45c0 -15 -8 -30 -24 -30zM-93 -312c110 44 93 130 93 225v24c-96 24 -272 -17 -272 -146c0 -91 94 -139 179 -103zM-1 -46c1 124 10 250 0 377c0 0 11 7 24 7c17 0 37 -10 37 -58c0 -42 -4 -391 -4 -335v-9
c84 -36 158 -110 236 -187c61 -62 125 -125 198 -174c82 -54 164 -80 250 -80c161 0 245 107 245 214c0 157 -156 206 -249 206c-186 0 -258 -164 -273 -205c-3 -7 10 -6 6 -8c-15 -8 -53 29 -44 66c13 51 111 167 300 167c119 0 276 -64 276 -226
c0 -139 -124 -230 -261 -230c-89 0 -174 27 -259 83c-74 49 -138 113 -201 176c-74 74 -146 145 -224 181c-5 -93 -41 -205 -144 -246c-88 -37 -201 8 -201 118c0 139 173 183 288 163z" />
    <glyph glyph-name="j_ss8" horiz-adv-x="123" 
d="M30 380c-23 0 -36 24 -36 45c0 15 7 30 24 30c24 0 36 -24 36 -45c0 -15 -8 -30 -24 -30zM6 -276c2 39 -6 85 -6 110v24c-72 42 -141 86 -199 86c-72 0 -131 -22 -171 -62c-35 -35 -54 -83 -54 -135s19 -103 53 -141c27 -29 78 -64 157 -64c59 0 110 17 150 48
c22 17 40 38 51 62c11 22 17 46 19 72zM60 280c0 -29 -5 -80 -5 -129c3 -182 3 -231 2 -284c121 -56 185 -48 215 -31c8 4 0 11 4 11c12 0 17 -23 12 -35c-12 -29 -45 -35 -76 -35c-51 0 -104 22 -156 50c0 -149 -82 -228 -110 -250c-43 -33 -98 -51 -160 -51
c-84 0 -140 38 -168 69c-37 41 -58 96 -58 152s21 109 59 147c43 43 106 66 182 66c69 0 136 -32 199 -64v85c0 110 2 191 2 232v15c0 40 -1 79 -3 103c0 0 11 7 24 7c17 0 37 -10 37 -58z" />
    <glyph glyph-name="j_ss9" horiz-adv-x="136" 
d="M30 380c-23 0 -36 24 -36 45c0 15 7 30 24 30c24 0 36 -24 36 -45c0 -15 -8 -30 -24 -30zM153 -265c4 41 -17 82 -55 115c-13 11 -29 21 -46 30c0 -61 -34 -182 -108 -191c-3 0 -7 -1 -10 -1c-9 0 -18 2 -26 5c16 -20 36 -36 59 -48c32 -15 66 -21 98 -14
c24 4 44 16 59 32c17 19 27 43 29 72zM57 -57c0 -16 -1 -31 -2 -47c19 -9 38 -20 53 -34c42 -36 65 -82 61 -128c-4 -63 -43 -107 -101 -119c-35 -7 -73 -1 -108 16c-37 19 -67 48 -87 86l-2 3c-2 4 0 9 4 11s8 0 10 -4c1 0 1 -1 1 -1c13 -16 35 -24 56 -21
c25 3 43 22 55 49c17 37 6 104 4 144h-1c-42 10 -86 9 -132 -1c-94 -22 -180 -95 -271 -173c-67 -58 -136 -117 -213 -160c-89 -50 -175 -70 -265 -64c-79 6 -144 36 -188 87c-20 23 -35 49 -44 78c-9 27 -13 56 -10 85c12 161 174 213 293 204c188 -14 277 -138 286 -189
c6 -38 -35 -72 -49 -63c-4 2 8 1 6 8c-12 43 -71 211 -256 225c-93 7 -253 -30 -265 -186c-8 -106 68 -220 229 -233c86 -6 169 14 255 62c76 42 145 101 211 158c93 79 180 154 278 176c46 11 92 12 135 2v58c0 119 2 200 -1 359c0 0 11 7 24 7c17 0 37 -10 37 -58
c0 -29 -6 -80 -3 -337z" />
    <glyph glyph-name="j_ss10" horiz-adv-x="127" 
d="M30 380c-23 0 -36 24 -36 45c0 15 7 30 24 30c24 0 36 -24 36 -45c0 -15 -8 -30 -24 -30zM-778 -351c109 0 297 141 334 157c-67 73 -120 128 -212 128c-36 0 -69 -6 -100 -18c-28 -11 -53 -27 -75 -46c-39 -36 -62 -83 -62 -126c0 -27 9 -50 27 -67
c20 -18 50 -28 88 -28zM55 151c3 -185 2 -205 2 -258c0 -124 -38 -277 -194 -277c-59 0 -113 18 -166 55c-44 31 -82 71 -118 110c-37 -16 -74 -37 -110 -57c-78 -45 -159 -91 -247 -91c-42 0 -76 12 -99 33c-21 19 -32 46 -32 78c0 47 25 99 68 138c22 21 49 37 79 49
c33 13 68 19 106 19c46 0 89 -15 133 -47c37 -28 59 -52 94 -91c15 6 91 44 155 44c106 0 107 -53 89 -76c-11 -14 -5 1 -9 3c-56 28 -111 34 -173 17c-13 -3 -26 -7 -38 -12c72 -79 149 -156 268 -156c154 0 137 118 137 230v113c0 116 2 197 2 238v15c0 40 -1 79 -3 103
c0 0 11 7 24 7c17 0 37 -10 37 -58c0 -29 -5 -80 -5 -129z" />
    <glyph glyph-name="j_ss11" horiz-adv-x="138" 
d="M34 381c-23 0 -36 24 -36 45c0 15 7 30 24 30c24 0 36 -24 36 -45c0 -15 -8 -30 -24 -30zM729 -64c119 0 276 -64 276 -226c0 -29 -5 -57 -17 -84c-11 -28 -28 -53 -49 -74c-48 -47 -116 -72 -195 -72c-89 0 -174 27 -259 83c-74 49 -138 113 -201 176
c-74 74 -146 145 -224 181c-5 -93 -41 -205 -144 -246c-36 -15 -75 -18 -109 -8c-57 16 -92 63 -92 126c0 46 26 91 70 123c31 23 68 38 109 44c35 5 72 4 109 -4v73c1 68 3 146 3 186v15c0 12 0 24 -1 35c-6 -18 -15 -35 -24 -51c-19 -28 -42 -52 -70 -70
c-44 -28 -98 -42 -157 -42c-12 0 -23 0 -35 1c-98 9 -196 54 -271 123c-39 36 -71 78 -92 124c-24 50 -36 104 -36 160c0 81 18 148 52 198c30 44 90 107 233 107c76 0 158 -36 187 -77c25 -36 5 -60 -17 -64c-5 -1 7 7 2 16c-23 36 -64 67 -115 85c-53 18 -110 21 -160 7
c-48 -14 -89 -42 -117 -83c-32 -47 -49 -111 -49 -189c0 -54 11 -105 34 -153c21 -44 51 -84 89 -120c72 -66 167 -109 261 -118c70 -6 133 7 182 39c26 16 48 38 65 64c17 27 30 60 37 95c-1 6 -1 12 -1 16c0 0 11 7 24 7c17 0 37 -10 37 -58c0 -29 -5 -80 -5 -129
c2 -177 1 -193 1 -206v-9c84 -36 158 -110 236 -187c61 -62 125 -125 198 -174c82 -54 164 -80 250 -80c161 0 245 107 245 214c0 157 -156 206 -249 206c-186 0 -258 -164 -273 -205c-3 -7 10 -6 6 -8c-15 -8 -53 29 -44 66c13 51 111 167 300 167zM-89 -311
c110 44 93 130 93 225v24c-36 9 -72 10 -107 5c-38 -6 -73 -20 -101 -40c-40 -30 -64 -70 -64 -111c0 -29 8 -54 24 -73c13 -18 33 -31 56 -38c31 -8 66 -6 99 8z" />
    <glyph glyph-name="j_ss12" horiz-adv-x="136" 
d="M-33 -238c58 1 32 124 32 166v10c-22 -8 -37 -20 -48 -31c-23 -22 -36 -53 -36 -83c0 -32 18 -59 52 -62zM760 -289c40 36 63 83 63 126c0 27 -10 50 -27 67c-20 18 -50 28 -88 28c-109 0 -298 -141 -334 -157c67 -73 120 -128 212 -128c35 0 69 6 100 18
c28 11 53 27 74 46zM1 133l1 80v43c-6 -18 -15 -34 -25 -49c-18 -28 -41 -52 -69 -70c-44 -28 -98 -42 -157 -42c-12 0 -23 0 -35 1c-98 9 -196 54 -271 123c-39 36 -71 78 -92 124c-24 50 -36 104 -36 160c0 81 17 148 52 198c30 44 90 107 233 107c76 0 158 -36 187 -77
c25 -36 5 -60 -17 -64c-5 -1 7 7 2 16c-23 36 -64 67 -115 85c-53 18 -110 21 -160 7c-48 -14 -89 -42 -117 -83c-32 -47 -49 -111 -49 -189c0 -54 11 -105 34 -153c21 -44 51 -84 89 -120c72 -66 167 -109 261 -118c70 -6 133 7 182 39c26 16 48 38 65 64
c17 27 30 59 37 94l-2 22s11 7 24 7c17 0 38 -10 38 -58c0 -25 -4 -65 -6 -129v-93c2 -67 1 -81 1 -93h7c60 0 114 -18 167 -55c44 -31 81 -71 118 -110c37 16 74 37 110 57c78 45 158 91 247 91c42 0 76 -11 99 -33c21 -19 32 -46 32 -78c0 -47 -25 -99 -68 -137
c-23 -21 -49 -38 -79 -50c-33 -13 -69 -19 -106 -19c-46 0 -89 15 -133 47c-38 28 -59 52 -95 91c-15 -6 -90 -44 -154 -44c-106 0 -107 53 -89 76c11 15 5 -1 9 -3c56 -28 111 -34 173 -17c13 3 25 7 38 12c-73 79 -149 156 -269 156h-7c-1 -48 -15 -196 -84 -202
c-43 -4 -73 29 -73 77c0 34 15 69 41 95c12 13 32 27 59 36v85c1 30 2 63 2 93zM31 380c-24 0 -36 24 -36 45c0 15 7 30 23 30c24 0 37 -24 37 -45c0 -15 -9 -30 -24 -30z" />
    <glyph glyph-name="j_ss13" horiz-adv-x="134" 
d="M30 380c-23 0 -36 24 -36 45c0 15 7 30 24 30c24 0 36 -24 36 -45c0 -15 -8 -30 -24 -30zM1 -144c0 10 -1 28 -1 125c0 110 2 191 2 232v15v4c-5 -11 -10 -21 -17 -31c-19 -28 -42 -52 -70 -70c-44 -28 -98 -42 -157 -42c-12 0 -23 0 -35 1c-98 9 -196 54 -271 123
c-39 36 -71 78 -92 124c-24 50 -36 104 -36 160c0 81 18 148 52 198c30 44 90 107 233 107c76 0 158 -36 187 -77c25 -36 5 -60 -17 -64c-5 -1 7 7 2 16c-23 36 -64 67 -115 85c-53 18 -110 21 -160 7c-48 -14 -89 -42 -117 -83c-32 -47 -49 -111 -49 -189
c0 -54 11 -105 34 -153c21 -44 51 -84 89 -120c72 -66 167 -109 261 -118c70 -6 133 7 182 39c26 16 48 38 65 64c13 20 23 43 30 68c0 21 -1 40 -2 54c0 0 11 7 24 7c17 0 37 -10 37 -58c0 -29 -5 -80 -5 -129c1 -80 3 -161 3 -263c0 -114 -42 -257 -166 -308
c-24 -10 -63 -17 -88 -17c-277 0 -258 397 -33 397c40 0 29 -61 14 -61c-2 4 10 18 -12 18c-198 0 -193 -338 30 -338c23 0 60 6 83 16c52 22 96 64 117 117c15 55 -2 116 -2 144z" />
    <glyph glyph-name="j_ss14" horiz-adv-x="118" 
d="M30 380c-23 0 -36 24 -36 45c0 15 7 30 24 30c24 0 36 -24 36 -45c0 -15 -8 -30 -24 -30zM2 213c-1 29 -1 54 -1 64c0 21 -1 40 -2 54c0 0 11 7 24 7c17 0 37 -10 37 -58c0 -29 -5 -80 -5 -129c1 -80 3 -161 3 -263c0 -114 -42 -257 -166 -308c-24 -10 -63 -17 -88 -17
c-277 0 -258 397 -33 397c40 0 29 -61 14 -61c-2 4 10 18 -12 18c-198 0 -193 -338 30 -338c23 0 60 6 83 16c52 22 96 64 117 117c15 55 -2 116 -2 144c0 10 -1 28 -1 125c0 110 2 191 2 232z" />
    <glyph glyph-name="j_ss15" horiz-adv-x="614" 
d="M36 380c-24 0 -36 24 -36 45c0 15 7 30 23 30c24 0 37 -24 37 -45c0 -15 -9 -30 -24 -30zM530 702c155 0 288 -105 288 -306c0 -32 -2 -67 -7 -104c-31 -210 -193 -434 -432 -434c-171 0 -237 105 -255 183c-20 -20 -43 -38 -67 -57v-34c0 -94 -23 -213 -85 -213
c-44 0 -71 32 -71 78c0 37 10 61 36 92c15 18 41 39 66 57c-4 120 2 242 1 367c0 0 11 7 24 7c17 0 38 -10 38 -58c0 -86 -8 -172 -9 -275c23 17 45 36 63 57c-9 34 -10 183 43 183c65 0 13 -152 -24 -191c14 -101 106 -181 236 -181c224 0 387 205 420 422c5 35 7 69 7 100
c0 86 -47 258 -257 258c-135 0 -196 -85 -218 -130v-7c-3 -3 -43 24 -37 46c17 79 124 140 240 140zM-30 -248c58 2 32 124 32 166c0 7 0 15 1 26c-46 -34 -86 -72 -86 -129c0 -42 22 -63 53 -63zM135 85c0 -4 2 -8 11 9s18 41 24 61c2 8 16 74 -7 74c-4 0 -12 -8 -19 -28
c-12 -37 -11 -76 -9 -116z" />
    <glyph glyph-name="j_ss16" horiz-adv-x="517" 
d="M34 380c-24 0 -36 24 -36 45c0 15 7 30 23 30c24 0 37 -24 37 -45c0 -15 -9 -30 -24 -30zM433 280c247 0 244 -475 -51 -475c-144 0 -251 122 -260 236c-20 -20 -43 -38 -67 -57v-34c0 -94 -26 -213 -87 -213c-44 0 -69 32 -69 78c0 37 10 61 36 92c15 18 41 39 66 57
c1 73 4 196 4 249c0 39 1 78 -3 118c0 0 11 7 24 7c17 0 38 -10 38 -58c0 -29 -5 -80 -7 -129c-1 -49 -2 -102 -2 -146c23 17 45 36 63 57c-5 31 -11 183 43 183c9 0 16 -4 21 -11c33 -47 -13 -138 -46 -178c0 -120 116 -236 249 -236c270 0 252 420 42 420
c-23 0 -44 -25 -26 -36c-35 0 -29 76 32 76zM-32 -248c58 2 32 124 32 166c0 7 0 15 1 26c-46 -34 -86 -72 -86 -129c0 -42 19 -63 53 -63zM161 229c-34 0 -30 -124 -28 -144c0 -4 2 -8 11 9s20 40 26 60c2 8 15 75 -9 75z" />
    <glyph glyph-name="j_ss17" horiz-adv-x="946" 
d="M1325 421c17 1 26 -18 26 -64c0 -169 -638 15 -761 15c-19 0 -159 4 -191 -103c8 6 19 11 34 11c247 0 244 -475 -51 -475c-144 0 -253 118 -260 236c-20 -20 -43 -38 -67 -57v-34c0 -94 -24 -213 -87 -213c-44 0 -69 32 -69 78c0 37 10 61 36 92c15 18 41 39 66 57
c1 83 4 166 4 264c1 40 0 79 -3 103c0 0 11 7 24 7c17 0 38 -10 38 -58c0 -29 -5 -80 -7 -129c-1 -49 -2 -102 -2 -146c23 17 45 36 63 57c-5 46 -7 98 9 144c11 32 25 39 34 39c54 0 17 -123 -1 -153c-4 -6 -11 -21 -24 -36c0 -120 116 -236 249 -236c270 0 252 420 42 420
c-14 0 -27 -9 -31 -19c0 -33 28 -65 67 -65c4 0 8 -4 8 -8c0 -5 -2 -8 -7 -8c-53 0 -85 46 -85 98c0 42 19 84 54 115c41 37 102 57 176 57c88 0 518 -63 603 -63c135 0 140 55 119 63c-9 4 -10 10 -6 11zM-32 -248c58 2 32 124 32 166c0 7 0 15 1 26
c-46 -34 -86 -72 -86 -129c0 -42 18 -63 53 -63zM133 85c0 -4 2 -8 11 9s18 41 24 61c13 49 4 65 1 70c-2 2 -4 4 -8 4s-12 -8 -19 -28c-12 -37 -11 -76 -9 -116zM34 380c-24 0 -36 24 -36 45c0 15 7 30 23 30c24 0 37 -24 37 -45c0 -15 -9 -30 -24 -30z" />
    <glyph glyph-name="k_ss1" horiz-adv-x="744" 
d="M787 235c-2 -55 -16 -110 -39 -151c-8 -15 -17 -28 -27 -38v0c-24 -27 -50 -44 -78 -44h-9c-31 4 -41 28 -41 61c0 47 10 65 10 115c0 20 -7 31 -16 38c-5 -3 -10 -6 -16 -8c-19 -9 -47 -15 -65 -18c-6 -26 -9 -49 -9 -64c0 -6 -7 -66 -2 -117c0 0 -6 -3 -11 -5
c-16 -5 -46 -5 -50 46c-6 -16 -13 -31 -21 -45c-28 -49 -68 -86 -115 -105c-24 -10 -63 -17 -87 -17c-278 0 -259 397 -34 397c40 0 29 -61 14 -61c-2 4 11 18 -12 18c-198 0 -193 -338 30 -338c23 0 60 6 83 16c43 18 81 52 107 98c17 28 29 64 37 102c2 41 4 93 5 134
c-19 82 -60 169 -60 264c0 45 0 122 58 122c76 0 61 -325 61 -397v-14v0c6 35 46 156 99 156c38 0 50 -34 50 -63c0 -31 -15 -61 -39 -83c26 -9 47 -30 47 -73c0 -39 -5 -27 -5 -89c0 -18 3 -29 8 -34c2 -2 4 -3 7 -3c12 0 25 6 38 17c10 10 20 22 29 40c21 39 35 91 37 144
c0 4 4 8 8 8c5 0 8 -4 8 -9zM441 304c-1 24 -3 55 -3 124c0 93 28 191 -1 191c-31 0 -41 -47 -41 -116c0 -50 25 -132 45 -199zM509 203c16 2 40 7 59 19c-20 2 -43 -5 -57 -10c-1 -3 -2 -6 -2 -9zM586 238c23 28 20 94 -11 94c-23 0 -45 -51 -60 -104c18 6 45 12 71 10z
" />
    <glyph glyph-name="k_ss2" horiz-adv-x="1033" 
d="M1076 235c-2 -55 -16 -110 -39 -151c-8 -15 -17 -28 -27 -38v0c-24 -27 -50 -44 -78 -44h-9c-31 4 -41 28 -41 61c0 47 10 65 10 115c0 20 -7 31 -16 38c-5 -3 -10 -6 -16 -8c-19 -9 -47 -15 -65 -18c-6 -26 -9 -49 -9 -64c0 -6 -7 -66 -2 -117c0 0 -6 -3 -11 -5
c-16 -5 -46 -5 -50 46c-6 -16 -13 -31 -21 -45c-41 -72 -115 -122 -202 -122c-278 0 -259 397 -34 397c2 0 4 -1 5 -1c-8 19 -21 37 -37 52c-39 34 -97 30 -167 30c-122 0 -740 -184 -740 -14c0 46 8 65 25 63c4 0 3 -7 -5 -10c-22 -8 -17 -64 118 -64c86 0 516 63 604 63
c73 0 134 -19 175 -56c35 -31 55 -73 55 -116c0 -26 -8 -50 -22 -68c-16 -19 -39 -29 -64 -29c-4 0 -6 3 -6 7c0 5 3 8 8 8c43 0 65 37 67 74c0 6 1 18 -14 18c-198 0 -193 -338 30 -338c123 0 200 100 227 216c2 41 4 93 5 134c-19 82 -60 169 -60 264c0 45 0 122 58 122
c76 0 61 -325 61 -397v-14v0c6 35 46 156 99 156c38 0 50 -34 50 -63c0 -31 -15 -61 -39 -83c26 -9 47 -30 47 -73c0 -39 -5 -27 -5 -89c0 -18 3 -29 8 -34c2 -2 4 -3 7 -3c12 0 25 6 38 17c10 10 20 22 29 40c21 39 35 91 37 144c0 4 4 8 8 8c5 0 8 -4 8 -9zM730 304
c-1 24 -3 55 -3 124c0 93 28 191 -1 191c-31 0 -41 -47 -41 -116c0 -50 25 -132 45 -199zM798 203c16 2 40 7 59 19c-20 2 -43 -5 -57 -10c-1 -3 -2 -6 -2 -9zM875 238c23 28 20 94 -11 94c-23 0 -45 -51 -60 -104c18 6 45 12 71 10z" />
    <glyph glyph-name="k_ss3" horiz-adv-x="745" 
d="M788 235c-2 -55 -16 -110 -39 -151c-8 -15 -17 -28 -27 -38v0c-24 -27 -50 -44 -78 -44h-9c-31 4 -41 28 -41 61c0 47 10 65 10 115c0 20 -7 31 -16 38c-5 -3 -10 -6 -16 -8c-19 -9 -47 -15 -65 -18c-6 -26 -9 -49 -9 -64c0 -6 -7 -66 -2 -117c0 0 -6 -3 -11 -5
c-17 -5 -50 -4 -50 56c0 25 3 80 5 134c-51 -70 -132 -105 -222 -105c-218 0 -434 178 -434 408c0 172 90 305 285 305c76 0 158 -36 187 -77c25 -36 5 -60 -17 -64c-5 -1 7 7 2 16c-23 36 -64 67 -115 85c-186 63 -326 -67 -326 -265c0 -200 177 -371 384 -391
c114 -10 192 26 258 121v22c-19 82 -60 169 -60 264c0 45 0 122 58 122c76 0 61 -325 61 -397v-14v0c6 35 46 156 99 156c38 0 50 -34 50 -63c0 -31 -15 -61 -39 -83c26 -9 47 -30 47 -73c0 -39 -5 -27 -5 -89c0 -18 3 -29 8 -34c2 -2 4 -3 7 -3c12 0 25 6 38 17
c10 10 20 22 29 40c21 39 35 91 37 144c0 4 4 8 8 8c5 0 8 -4 8 -9zM442 304c-1 24 -3 55 -3 124c0 93 28 191 -1 191c-31 0 -41 -47 -41 -116c0 -50 25 -132 45 -199zM510 203c16 2 40 7 59 19c-20 2 -43 -5 -57 -10c-1 -3 -2 -6 -2 -9zM587 238c23 28 20 94 -11 94
c-23 0 -45 -51 -60 -104c18 6 45 12 71 10z" />
    <glyph glyph-name="k_ss4" horiz-adv-x="309" 
d="M67 441v-26c0 -27 -1 -153 -2 -190c6 36 46 155 99 155c38 0 50 -34 50 -63c0 -31 -15 -61 -39 -83c26 -9 47 -30 47 -73c0 -39 -5 -27 -5 -89c0 -18 3 -29 8 -34c2 -2 4 -3 7 -3c12 0 25 6 38 17c10 10 20 22 29 40c21 39 35 91 37 144c0 4 4 8 8 8c5 0 8 -4 8 -9
c-2 -55 -16 -110 -39 -151c-8 -15 -17 -28 -27 -38v0c-24 -27 -50 -44 -78 -44h-9c-31 4 -41 28 -41 61c0 47 10 65 10 115c0 20 -7 31 -16 38c-5 -3 -10 -6 -16 -8c-19 -9 -47 -15 -65 -18c-6 -26 -9 -49 -9 -64c0 -6 -7 -66 -2 -117c0 0 -6 -3 -11 -5
c-17 -5 -50 -4 -50 56c0 29 4 122 6 183v0c0 60 2 206 2 228v14c-48 50 -59 116 -59 148c0 28 5 52 16 68c10 15 24 23 39 23c85 0 58 -192 64 -264c31 -16 70 -27 120 -27c78 0 129 35 156 64c34 38 54 89 54 141s-20 100 -54 135c-41 40 -100 62 -171 62
c-115 0 -270 -167 -411 -167c-32 0 -65 6 -77 35c-5 12 1 35 12 35c5 0 -3 -7 4 -11c31 -18 100 -25 229 38c76 37 157 86 243 86c76 0 139 -23 182 -66c38 -38 59 -91 59 -147s-21 -111 -58 -151c-29 -32 -84 -70 -168 -70c-49 0 -89 9 -120 24zM140 332
c-23 0 -45 -51 -60 -104c18 6 45 12 71 10c23 28 20 94 -11 94zM76 212c-1 -3 -2 -6 -2 -9c16 2 40 7 59 19c-20 2 -43 -5 -57 -10zM-36 633c0 -35 11 -83 44 -124c6 76 27 139 21 170c-4 13 -7 29 -26 29c-10 0 -19 -6 -26 -16c-6 -9 -13 -27 -13 -59z" />
    <glyph glyph-name="k_ss5" horiz-adv-x="309" 
d="M352 235c-2 -55 -16 -110 -39 -151c-8 -15 -17 -28 -27 -38v0c-24 -27 -50 -44 -78 -44h-9c-31 4 -41 28 -41 61c0 47 10 65 10 115c0 20 -7 31 -16 38c-5 -3 -10 -6 -16 -8c-19 -9 -47 -15 -65 -18c-3 -21 -8 -41 -9 -64c0 -6 -7 -66 -2 -117c0 0 -6 -3 -11 -5
c-17 -5 -50 -4 -50 56c0 105 8 210 8 322c0 22 1 43 4 63c-7 5 -13 11 -19 17c-17 21 -29 49 -33 80c-6 53 15 77 35 82c77 14 69 -140 72 -185c50 -12 87 29 87 80c0 38 -18 76 -49 103c-38 35 -96 31 -166 31c-123 0 -741 -184 -741 -14c0 46 9 64 26 63c4 -1 3 -7 -6 -10
c-21 -8 -16 -64 119 -64c85 0 515 63 603 63c74 0 135 -20 176 -57c35 -30 54 -73 54 -115c0 -26 -8 -51 -22 -68c-18 -23 -51 -33 -80 -28v-97c0 -14 0 -55 -1 -95c9 41 48 149 98 149c38 0 50 -34 50 -63c0 -31 -15 -61 -39 -83c26 -9 47 -30 47 -73c0 -39 -5 -27 -5 -89
c0 -18 3 -29 8 -34c2 -2 4 -3 7 -3c12 0 25 6 38 17c10 10 20 22 29 40c21 39 35 91 37 144c0 4 4 8 8 8c5 0 8 -4 8 -9zM5 473c2 -4 5 -7 8 -9c8 56 20 101 16 126c0 1 -1 2 -1 2c-8 13 -19 19 -30 16c-14 -3 -27 -25 -23 -64c3 -28 14 -53 30 -71zM74 203c16 2 40 7 59 19
c-20 2 -43 -5 -57 -10c-1 -3 -2 -6 -2 -9zM151 238c23 28 20 94 -11 94c-23 0 -45 -51 -60 -104c18 6 45 12 71 10z" />
    <glyph glyph-name="k_ss7" horiz-adv-x="311" 
d="M344 244c5 0 8 -4 8 -9c-2 -55 -16 -110 -39 -151c-8 -15 -17 -28 -27 -38v0c-24 -27 -50 -44 -78 -44h-9c-31 4 -41 28 -41 61c0 47 10 65 10 115c0 20 -7 31 -16 38c-5 -3 -10 -6 -16 -8c-19 -9 -47 -15 -65 -18c-6 -26 -9 -49 -9 -64c0 -6 -7 -66 -2 -117
c0 0 -6 -3 -11 -5c-17 -5 -50 -4 -50 56c0 29 4 122 6 183v0c0 60 2 206 2 228v4c-25 29 -43 63 -50 99c-19 -6 -37 -12 -56 -19c-124 -44 -252 -89 -392 -89c-64 0 -122 25 -164 68c-39 40 -61 94 -61 147c0 49 20 94 56 126c40 36 100 55 174 55c157 0 251 -145 277 -146
c4 0 4 7 6 2c3 -9 -19 -50 -72 -22c-36 18 -106 150 -211 150c-70 0 -126 -17 -164 -51c-32 -29 -50 -70 -50 -114c0 -49 21 -98 56 -136c19 -19 41 -34 66 -45c27 -12 56 -18 87 -18c138 0 264 45 387 88c19 7 38 14 58 20c-2 10 -2 20 -2 29c0 29 5 52 16 68
c10 15 24 24 39 24c41 0 48 -52 54 -87c62 17 125 28 190 28c33 0 61 -10 80 -29c17 -18 26 -42 26 -70c0 -37 -17 -76 -46 -105c-24 -24 -66 -52 -132 -52c-40 0 -79 11 -112 29v-10c0 -27 -1 -153 -2 -190c6 36 46 155 99 155c38 0 50 -34 50 -63c0 -31 -15 -61 -39 -83
c26 -9 47 -30 47 -73c0 -39 -5 -27 -5 -89c0 -18 3 -29 8 -34c2 -2 4 -3 7 -3c12 0 25 6 38 17c10 10 20 22 29 40c21 39 35 91 37 144c0 4 4 8 8 8zM251 636c-64 0 -126 -11 -188 -28c4 -40 4 -91 4 -164c33 -21 71 -32 112 -32c61 0 99 26 120 47c26 26 42 61 42 94
c0 41 -24 83 -90 83zM-32 619c0 -8 0 -16 1 -23c18 6 36 12 54 17c3 19 22 82 -16 82c-10 0 -19 -6 -26 -16c-6 -10 -13 -28 -13 -60zM-28 580c6 -29 18 -56 36 -81c2 36 7 68 12 96zM74 203c16 2 40 7 59 19c-20 2 -43 -5 -57 -10c-1 -3 -2 -6 -2 -9zM151 238
c23 28 20 94 -11 94c-23 0 -45 -51 -60 -104c18 6 45 12 71 10z" />
    <glyph glyph-name="k_ss6" horiz-adv-x="309" 
d="M352 235c-2 -55 -16 -110 -39 -151c-8 -15 -17 -28 -27 -38v0c-24 -27 -50 -44 -78 -44h-9c-31 4 -41 28 -41 61c0 47 10 65 10 115c0 20 -7 31 -16 38c-5 -3 -10 -6 -16 -8c-19 -9 -47 -15 -65 -18c-6 -26 -9 -49 -9 -64c0 -6 -7 -66 -2 -117c0 0 -6 -3 -11 -5
c-17 -5 -50 -4 -50 56c0 29 4 122 6 183v0c0 53 1 171 2 214c-57 -28 -116 -52 -177 -52c-76 0 -139 23 -182 66c-38 38 -59 90 -59 147c0 55 22 111 58 151c29 32 84 69 168 69c63 0 118 -18 160 -50c34 -26 57 -60 69 -101v0c17 -39 21 -84 22 -160c59 33 118 60 175 60
c32 0 65 -6 77 -34c5 -12 -1 -36 -12 -36c-5 0 3 7 -4 11c-31 19 -100 26 -229 -38l-6 -3v-72s-1 -153 -2 -190c6 36 46 155 99 155c38 0 50 -34 50 -63c0 -31 -15 -61 -39 -83c26 -9 47 -30 47 -73c0 -39 -5 -27 -5 -89c0 -18 3 -29 8 -34c2 -2 4 -3 7 -3c12 0 25 6 38 17
c10 10 20 22 29 40c21 39 35 91 37 144c0 4 4 8 8 8c5 0 8 -4 8 -9zM-340 482c40 -40 99 -61 170 -61c53 0 113 34 177 72c4 83 28 153 22 186c-1 2 -1 3 -1 5c-3 10 -7 19 -11 28c-12 25 -29 46 -51 63c-40 30 -92 47 -151 47c-78 0 -129 -35 -156 -64
c-34 -37 -53 -88 -53 -140c0 -53 19 -101 54 -136zM74 203c16 2 40 7 59 19c-20 2 -43 -5 -57 -10c-1 -3 -2 -6 -2 -9zM151 238c23 28 20 94 -11 94c-23 0 -45 -51 -60 -104c18 6 45 12 71 10z" />
    <glyph glyph-name="k_ss8" horiz-adv-x="307" 
d="M652 573c76 0 104 -40 104 -82c0 -38 -19 -49 -24 -49c-14 0 -11 11 0 14c25 7 37 60 -96 54c-141 -6 -271 -103 -497 -103c-24 0 -48 3 -72 8v0c0 -27 -1 -153 -2 -190c6 36 46 155 99 155c38 0 50 -34 50 -63c0 -31 -15 -61 -39 -83c26 -9 47 -30 47 -73
c0 -39 -5 -27 -5 -89c0 -18 3 -29 8 -34c2 -2 4 -3 7 -3c12 0 25 6 38 17c10 10 20 22 29 40c21 39 35 91 37 144c0 4 4 8 8 8c5 0 8 -4 8 -9c-2 -55 -16 -110 -39 -151c-8 -15 -17 -28 -27 -38v0c-24 -27 -50 -44 -78 -44h-9c-31 4 -41 28 -41 61c0 47 10 65 10 115
c0 20 -7 31 -16 38c-5 -3 -10 -6 -16 -8c-19 -9 -47 -15 -65 -18c-6 -26 -9 -49 -9 -64c0 -6 -7 -66 -2 -117c0 0 -6 -3 -11 -5c-17 -5 -50 -4 -50 56c0 29 4 122 6 183v0c0 46 1 140 2 192c-13 6 -26 13 -37 20c-61 40 -94 98 -94 168c0 37 8 67 24 89c14 20 34 31 56 33
c20 2 41 -4 58 -18s33 -38 38 -62c15 -49 15 -112 15 -233c24 -6 48 -9 72 -9c190 0 321 150 513 150zM140 332c-23 0 -45 -51 -60 -104c18 6 45 12 71 10c23 28 20 94 -11 94zM76 212c-1 -3 -2 -6 -2 -9c16 2 40 7 59 19c-20 2 -43 -5 -57 -10zM-21 469c8 -6 18 -11 28 -16
v18c0 86 24 160 23 199c-3 26 -32 63 -73 59c-31 -2 -65 -32 -65 -106c0 -34 8 -66 25 -93c14 -24 35 -44 62 -61z" />
    </font>
</defs>
</svg>
